G04 #@! TF.FileFunction,Soldermask,Bot*
%FSLAX46Y46*%
G04 Gerber Fmt 4.6, Leading zero omitted, Abs format (unit mm)*
G04 Created by KiCad (PCBNEW 4.0.7) date 07/30/18 15:36:35*
%MOMM*%
%LPD*%
G01*
G04 APERTURE LIST*
%ADD10C,0.100000*%
%ADD11C,2.100000*%
%ADD12R,1.000000X1.950000*%
%ADD13R,1.150000X1.600000*%
%ADD14R,1.600000X1.150000*%
%ADD15R,2.900000X2.400000*%
%ADD16R,1.150000X1.200000*%
%ADD17R,4.900000X3.700000*%
%ADD18R,2.178000X3.194000*%
%ADD19R,10.400000X5.400000*%
%ADD20R,2.100000X2.100000*%
%ADD21O,2.100000X2.100000*%
%ADD22O,1.850000X2.400000*%
%ADD23O,1.550000X2.200000*%
%ADD24O,1.200000X1.200000*%
%ADD25R,4.600000X2.800000*%
%ADD26R,2.398980X2.398980*%
%ADD27R,2.300000X1.200000*%
%ADD28R,1.200000X2.300000*%
%ADD29R,1.600000X1.300000*%
%ADD30R,1.300000X1.600000*%
%ADD31C,6.800000*%
%ADD32C,1.200000*%
%ADD33R,1.950000X1.000000*%
%ADD34R,1.160000X1.800000*%
%ADD35R,2.200000X2.200000*%
%ADD36C,2.200000*%
%ADD37R,3.400000X2.000000*%
%ADD38R,2.000000X3.400000*%
G04 APERTURE END LIST*
D10*
D11*
X62715000Y-72335000D03*
X69215000Y-72335000D03*
X62715000Y-76835000D03*
X69215000Y-76835000D03*
D12*
X68580000Y-66835000D03*
X67310000Y-66835000D03*
X66040000Y-66835000D03*
X64770000Y-66835000D03*
X64770000Y-61435000D03*
X66040000Y-61435000D03*
X67310000Y-61435000D03*
X68580000Y-61435000D03*
D13*
X81280000Y-152085000D03*
X81280000Y-153985000D03*
D14*
X66360000Y-138430000D03*
X68260000Y-138430000D03*
X66360000Y-139700000D03*
X68260000Y-139700000D03*
X70170000Y-174625000D03*
X72070000Y-174625000D03*
D15*
X65405000Y-168180000D03*
X65405000Y-172180000D03*
D10*
G36*
X82989150Y-99434023D02*
X82175977Y-98620850D01*
X83307348Y-97489479D01*
X84120521Y-98302652D01*
X82989150Y-99434023D01*
X82989150Y-99434023D01*
G37*
G36*
X84332652Y-98090521D02*
X83519479Y-97277348D01*
X84650850Y-96145977D01*
X85464023Y-96959150D01*
X84332652Y-98090521D01*
X84332652Y-98090521D01*
G37*
G36*
X53852652Y-98090520D02*
X53039480Y-97277348D01*
X53888008Y-96428820D01*
X54701180Y-97241992D01*
X53852652Y-98090520D01*
X53852652Y-98090520D01*
G37*
G36*
X52791992Y-99151180D02*
X51978820Y-98338008D01*
X52827348Y-97489480D01*
X53640520Y-98302652D01*
X52791992Y-99151180D01*
X52791992Y-99151180D01*
G37*
G36*
X65070520Y-92832348D02*
X64257348Y-93645520D01*
X63408820Y-92796992D01*
X64221992Y-91983820D01*
X65070520Y-92832348D01*
X65070520Y-92832348D01*
G37*
G36*
X66131180Y-93893008D02*
X65318008Y-94706180D01*
X64469480Y-93857652D01*
X65282652Y-93044480D01*
X66131180Y-93893008D01*
X66131180Y-93893008D01*
G37*
G36*
X50287348Y-40339480D02*
X51100520Y-41152652D01*
X50251992Y-42001180D01*
X49438820Y-41188008D01*
X50287348Y-40339480D01*
X50287348Y-40339480D01*
G37*
G36*
X51348008Y-39278820D02*
X52161180Y-40091992D01*
X51312652Y-40940520D01*
X50499480Y-40127348D01*
X51348008Y-39278820D01*
X51348008Y-39278820D01*
G37*
D16*
X73025000Y-65520000D03*
X73025000Y-64020000D03*
D17*
X47670000Y-21590000D03*
X56470000Y-21590000D03*
X62910000Y-21590000D03*
X71710000Y-21590000D03*
X78150000Y-21590000D03*
X86950000Y-21590000D03*
D18*
X65278000Y-176530000D03*
X61722000Y-176530000D03*
D19*
X51435000Y-175895000D03*
X51435000Y-164465000D03*
D20*
X54610000Y-115570000D03*
D21*
X54610000Y-118110000D03*
X54610000Y-120650000D03*
X54610000Y-123190000D03*
X54610000Y-125730000D03*
X54610000Y-128270000D03*
X54610000Y-130810000D03*
X54610000Y-133350000D03*
X54610000Y-135890000D03*
X54610000Y-138430000D03*
X54610000Y-140970000D03*
X54610000Y-143510000D03*
X54610000Y-146050000D03*
X54610000Y-148590000D03*
D20*
X90170000Y-116205000D03*
D21*
X90170000Y-118745000D03*
X90170000Y-121285000D03*
X90170000Y-123825000D03*
X90170000Y-126365000D03*
X90170000Y-128905000D03*
X90170000Y-131445000D03*
X90170000Y-133985000D03*
X90170000Y-136525000D03*
X90170000Y-139065000D03*
X90170000Y-141605000D03*
X90170000Y-144145000D03*
X90170000Y-146685000D03*
X90170000Y-149225000D03*
D20*
X60960000Y-153670000D03*
D21*
X60960000Y-156210000D03*
X63500000Y-153670000D03*
X63500000Y-156210000D03*
X66040000Y-153670000D03*
X66040000Y-156210000D03*
D22*
X69935000Y-184840000D03*
X77385000Y-184840000D03*
D23*
X69785000Y-188640000D03*
X77535000Y-188640000D03*
D24*
X71160000Y-185890000D03*
X76160000Y-185890000D03*
D20*
X70485000Y-53340000D03*
D21*
X70485000Y-50800000D03*
X67945000Y-53340000D03*
X67945000Y-50800000D03*
X65405000Y-53340000D03*
X65405000Y-50800000D03*
D25*
X85090000Y-150840000D03*
X85090000Y-146340000D03*
D26*
X88900000Y-175681640D03*
X88900000Y-164678360D03*
D27*
X82145000Y-175580000D03*
X82145000Y-177480000D03*
X79145000Y-176530000D03*
D28*
X79690000Y-172315000D03*
X77790000Y-172315000D03*
X78740000Y-169315000D03*
D29*
X68115000Y-127000000D03*
X70315000Y-127000000D03*
X68115000Y-124460000D03*
X70315000Y-124460000D03*
D30*
X70485000Y-145585000D03*
X70485000Y-147785000D03*
D29*
X66210000Y-144145000D03*
X68410000Y-144145000D03*
X66210000Y-146050000D03*
X68410000Y-146050000D03*
X70020000Y-179070000D03*
X72220000Y-179070000D03*
X70020000Y-176530000D03*
X72220000Y-176530000D03*
X53510000Y-158750000D03*
X55710000Y-158750000D03*
X73830000Y-130810000D03*
X76030000Y-130810000D03*
X76030000Y-132715000D03*
X73830000Y-132715000D03*
X73830000Y-128270000D03*
X76030000Y-128270000D03*
X76030000Y-126365000D03*
X73830000Y-126365000D03*
D30*
X83820000Y-163365000D03*
X83820000Y-165565000D03*
X81280000Y-163365000D03*
X81280000Y-165565000D03*
X60960000Y-160190000D03*
X60960000Y-162390000D03*
X63500000Y-160190000D03*
X63500000Y-162390000D03*
X66040000Y-162390000D03*
X66040000Y-160190000D03*
D29*
X74465000Y-175260000D03*
X76665000Y-175260000D03*
D30*
X76200000Y-163365000D03*
X76200000Y-165565000D03*
X78740000Y-163365000D03*
X78740000Y-165565000D03*
X72390000Y-162095000D03*
X72390000Y-164295000D03*
X74295000Y-164295000D03*
X74295000Y-162095000D03*
X69850000Y-162095000D03*
X69850000Y-164295000D03*
X61595000Y-56345000D03*
X61595000Y-54145000D03*
X60325000Y-61425000D03*
X60325000Y-59225000D03*
X62230000Y-61425000D03*
X62230000Y-59225000D03*
X71120000Y-83650000D03*
X71120000Y-81450000D03*
X65405000Y-83650000D03*
X65405000Y-81450000D03*
X69215000Y-83650000D03*
X69215000Y-81450000D03*
D11*
X85240000Y-42600000D03*
X78740000Y-42600000D03*
X85240000Y-38100000D03*
X78740000Y-38100000D03*
X85240000Y-69270000D03*
X78740000Y-69270000D03*
X85240000Y-64770000D03*
X78740000Y-64770000D03*
X85240000Y-85780000D03*
X78740000Y-85780000D03*
X85240000Y-81280000D03*
X78740000Y-81280000D03*
X53490000Y-69270000D03*
X46990000Y-69270000D03*
X53490000Y-64770000D03*
X46990000Y-64770000D03*
X53490000Y-85780000D03*
X46990000Y-85780000D03*
X53490000Y-81280000D03*
X46990000Y-81280000D03*
D31*
X45085000Y-146685000D03*
D32*
X47485000Y-146685000D03*
X46782056Y-148382056D03*
X45085000Y-149085000D03*
X43387944Y-148382056D03*
X42685000Y-146685000D03*
X43387944Y-144987944D03*
X45085000Y-144285000D03*
X46782056Y-144987944D03*
D31*
X88900000Y-185420000D03*
D32*
X91300000Y-185420000D03*
X90597056Y-187117056D03*
X88900000Y-187820000D03*
X87202944Y-187117056D03*
X86500000Y-185420000D03*
X87202944Y-183722944D03*
X88900000Y-183020000D03*
X90597056Y-183722944D03*
D31*
X66675000Y-33020000D03*
D32*
X69075000Y-33020000D03*
X68372056Y-34717056D03*
X66675000Y-35420000D03*
X64977944Y-34717056D03*
X64275000Y-33020000D03*
X64977944Y-31322944D03*
X66675000Y-30620000D03*
X68372056Y-31322944D03*
D33*
X78265000Y-147320000D03*
X78265000Y-148590000D03*
X78265000Y-149860000D03*
X78265000Y-151130000D03*
X72865000Y-151130000D03*
X72865000Y-149860000D03*
X72865000Y-148590000D03*
X72865000Y-147320000D03*
D34*
X73660000Y-168180000D03*
X73660000Y-172180000D03*
X72390000Y-168180000D03*
X72390000Y-172180000D03*
X71120000Y-168180000D03*
X71120000Y-172180000D03*
X69850000Y-168180000D03*
X69850000Y-172180000D03*
D35*
X52070000Y-187960000D03*
D36*
X54610000Y-187960000D03*
X57150000Y-187960000D03*
D30*
X52070000Y-169080000D03*
X52070000Y-171280000D03*
D37*
X53000000Y-154940000D03*
X48600000Y-154940000D03*
D38*
X60325000Y-171745000D03*
X60325000Y-167345000D03*
D10*
G36*
X80175000Y-160115000D02*
X80175000Y-156115000D01*
X84875000Y-157115000D01*
X84875000Y-159115000D01*
X80175000Y-160115000D01*
X80175000Y-160115000D01*
G37*
G36*
X91275000Y-156115000D02*
X91275000Y-160115000D01*
X86575000Y-159115000D01*
X86575000Y-157115000D01*
X91275000Y-156115000D01*
X91275000Y-156115000D01*
G37*
G36*
X58255000Y-45625000D02*
X58255000Y-49625000D01*
X53555000Y-48625000D01*
X53555000Y-46625000D01*
X58255000Y-45625000D01*
X58255000Y-45625000D01*
G37*
G36*
X47155000Y-49625000D02*
X47155000Y-45625000D01*
X51855000Y-46625000D01*
X51855000Y-48625000D01*
X47155000Y-49625000D01*
X47155000Y-49625000D01*
G37*
G36*
X58255000Y-52610000D02*
X58255000Y-56610000D01*
X53555000Y-55610000D01*
X53555000Y-53610000D01*
X58255000Y-52610000D01*
X58255000Y-52610000D01*
G37*
G36*
X47155000Y-56610000D02*
X47155000Y-52610000D01*
X51855000Y-53610000D01*
X51855000Y-55610000D01*
X47155000Y-56610000D01*
X47155000Y-56610000D01*
G37*
M02*
