M48
;DRILL file {KiCad 4.0.7} date 07/30/18 15:36:45
;FORMAT={-:-/ absolute / inch / decimal}
FMAT,2
INCH,TZ
T1C0.016
T2C0.020
T3C0.022
T4C0.033
T5C0.035
T6C0.039
T7C0.039
T8C0.047
T9C0.126
%
G90
G05
M72
T1
X1.7Y-6.875
X1.725Y-2.2
X1.725Y-2.45
X1.725Y-3.475
X1.775Y-2.35
X1.775Y-3.5
X1.775Y-3.75
X1.775Y-5.225
X1.8Y-6.175
X1.825Y-3.65
X1.825Y-3.85
X1.825Y-6.75
X1.85Y-4.2
X1.85Y-7.175
X1.86Y-3.54
X1.875Y-3.9
X1.875Y-6.25
X1.9Y-6.775
X1.9Y-7.075
X1.925Y-3.525
X1.95Y-2.3
X1.95Y-4.25
X1.95Y-4.725
X1.98Y-3.6
X1.98Y-3.96
X2.Y-2.5
X2.Y-3.05
X2.Y-4.22
X2.Y-4.3
X2.025Y-1.575
X2.025Y-5.225
X2.025Y-5.575
X2.05Y-2.925
X2.05Y-3.95
X2.075Y-3.8
X2.075Y-4.425
X2.12Y-4.32
X2.125Y-3.075
X2.125Y-6.75
X2.14Y-3.66
X2.15Y-2.325
X2.16Y-3.76
X2.175Y-1.5
X2.175Y-2.925
X2.2Y-3.675
X2.225Y-3.725
X2.225Y-4.925
X2.225Y-5.325
X2.225Y-6.65
X2.25Y-1.275
X2.275Y-5.8
X2.28Y-3.24
X2.3Y-3.45
X2.3Y-3.525
X2.3Y-5.675
X2.3Y-6.
X2.325Y-2.125
X2.325Y-5.875
X2.34Y-2.94
X2.35Y-5.75
X2.35Y-6.1
X2.375Y-3.75
X2.375Y-5.075
X2.375Y-5.875
X2.4Y-1.925
X2.4Y-3.22
X2.4Y-4.45
X2.4Y-5.6
X2.4Y-5.775
X2.425Y-5.625
X2.44Y-2.94
X2.45Y-2.675
X2.45Y-2.775
X2.45Y-3.35
X2.45Y-4.325
X2.45Y-5.9
X2.475Y-3.7
X2.475Y-4.65
X2.475Y-5.025
X2.475Y-5.275
X2.5Y-3.825
X2.5Y-5.225
X2.5Y-5.9
X2.52Y-3.7
X2.525Y-3.4
X2.525Y-3.85
X2.525Y-5.8
X2.55Y-2.675
X2.55Y-5.85
X2.575Y-3.6
X2.575Y-3.85
X2.6Y-3.15
X2.6Y-5.375
X2.625Y-5.975
X2.625Y-6.525
X2.65Y-3.15
X2.65Y-3.7
X2.65Y-4.4
X2.65Y-5.175
X2.65Y-6.275
X2.675Y-3.35
X2.7Y-4.275
X2.7Y-5.85
X2.725Y-3.475
X2.725Y-3.625
X2.725Y-4.075
X2.725Y-4.8
X2.725Y-5.55
X2.75Y-5.975
X2.775Y-5.075
X2.775Y-6.1
X2.8Y-2.525
X2.82Y-3.38
X2.825Y-3.05
X2.825Y-5.6
X2.825Y-7.175
X2.84Y-3.54
X2.85Y-1.225
X2.85Y-2.825
X2.85Y-4.475
X2.85Y-6.9
X2.8683Y-4.15
X2.8744Y-7.1756
X2.875Y-4.275
X2.88Y-1.72
X2.9Y-5.15
X2.925Y-1.875
X2.925Y-1.925
X2.925Y-3.7
X2.925Y-5.3
X2.925Y-7.2
X2.95Y-3.4
X2.95Y-3.5
X2.95Y-5.025
X2.95Y-6.3
X2.95Y-6.825
X2.975Y-4.45
X3.Y-3.05
X3.Y-5.575
X3.Y-5.85
X3.Y-6.4317
X3.02Y-5.68
X3.025Y-6.7
X3.06Y-1.76
X3.075Y-3.525
X3.075Y-3.95
X3.075Y-4.7
X3.075Y-5.55
X3.1Y-2.85
X3.1Y-6.425
X3.125Y-4.125
X3.125Y-4.275
X3.125Y-4.475
X3.125Y-5.6
X3.15Y-4.35
X3.15Y-5.725
X3.175Y-2.275
X3.2Y-4.95
X3.2Y-5.22
X3.2Y-5.68
X3.2Y-6.4317
X3.225Y-5.6
X3.249Y-6.225
X3.25Y-3.925
X3.25Y-5.025
X3.25Y-5.225
X3.3Y-3.575
X3.3Y-3.7
X3.3Y-4.275
X3.3Y-6.425
X3.375Y-4.9
X3.4Y-1.25
X3.4Y-1.825
X3.4Y-3.7
X3.4Y-4.475
X3.425Y-4.85
X3.45Y-4.35
X3.475Y-3.75
X3.475Y-4.15
X3.475Y-5.65
X3.525Y-3.
X3.55Y-3.7
X3.55Y-3.75
X3.575Y-3.125
X3.6Y-4.475
X3.625Y-1.85
X3.625Y-3.875
X3.65Y-3.7
X3.65Y-4.725
X3.65Y-5.3
X3.675Y-3.75
T2
X1.6805Y-5.775
X1.7082Y-5.7082
X1.7082Y-5.8418
X1.775Y-5.6805
X1.775Y-5.8695
X1.8418Y-5.7082
X1.8418Y-5.8418
X1.8695Y-5.775
X2.5305Y-1.3
X2.5582Y-1.2332
X2.5582Y-1.3668
X2.625Y-1.2055
X2.625Y-1.3945
X2.6918Y-1.2332
X2.6918Y-1.3668
X2.7195Y-1.3
X3.4055Y-7.3
X3.4332Y-7.2332
X3.4332Y-7.3668
X3.5Y-7.2055
X3.5Y-7.3945
X3.5668Y-7.2332
X3.5668Y-7.3668
X3.5945Y-7.3
T5
X2.05Y-7.4
X2.15Y-7.4
X2.25Y-7.4
T6
X1.85Y-2.55
X1.85Y-2.7272
X1.85Y-3.2
X1.85Y-3.3772
X2.1059Y-2.55
X2.1059Y-2.7272
X2.1059Y-3.2
X2.1059Y-3.3772
X2.15Y-4.55
X2.15Y-4.65
X2.15Y-4.75
X2.15Y-4.85
X2.15Y-4.95
X2.15Y-5.05
X2.15Y-5.15
X2.15Y-5.25
X2.15Y-5.35
X2.15Y-5.45
X2.15Y-5.55
X2.15Y-5.65
X2.15Y-5.75
X2.15Y-5.85
X2.4Y-6.05
X2.4Y-6.15
X2.4691Y-2.8478
X2.4691Y-3.025
X2.5Y-6.05
X2.5Y-6.15
X2.575Y-2.
X2.575Y-2.1
X2.6Y-6.05
X2.6Y-6.15
X2.675Y-2.
X2.675Y-2.1
X2.725Y-2.8478
X2.725Y-3.025
X2.775Y-2.
X2.775Y-2.1
X3.1Y-1.5
X3.1Y-1.6772
X3.1Y-2.55
X3.1Y-2.7272
X3.1Y-3.2
X3.1Y-3.3772
X3.3559Y-1.5
X3.3559Y-1.6772
X3.3559Y-2.55
X3.3559Y-2.7272
X3.3559Y-3.2
X3.3559Y-3.3772
X3.55Y-4.575
X3.55Y-4.675
X3.55Y-4.775
X3.55Y-4.875
X3.55Y-4.975
X3.55Y-5.075
X3.55Y-5.175
X3.55Y-5.275
X3.55Y-5.375
X3.55Y-5.475
X3.55Y-5.575
X3.55Y-5.675
X3.55Y-5.775
X3.55Y-5.875
T7
X3.5Y-6.5031
X3.5Y-6.8969
T8
X1.8531Y-0.85
X2.2469Y-0.85
X2.4531Y-0.85
X2.8469Y-0.85
X3.0531Y-0.85
X3.4469Y-0.85
T9
X1.775Y-5.775
X2.625Y-1.3
X3.5Y-7.3
T3
X2.7474Y-7.414G85X2.7474Y-7.4396
G05
X3.0526Y-7.414G85X3.0526Y-7.4396
G05
T4
X2.7533Y-7.2663G85X2.7533Y-7.288
G05
X3.0467Y-7.2663G85X3.0467Y-7.288
G05
T0
M30
