G04 #@! TF.FileFunction,Soldermask,Top*
%FSLAX46Y46*%
G04 Gerber Fmt 4.6, Leading zero omitted, Abs format (unit mm)*
G04 Created by KiCad (PCBNEW 4.0.7) date 07/30/18 15:36:35*
%MOMM*%
%LPD*%
G01*
G04 APERTURE LIST*
%ADD10C,0.100000*%
%ADD11R,1.160000X1.650000*%
%ADD12C,2.100000*%
%ADD13R,1.150000X1.200000*%
%ADD14R,1.150000X1.600000*%
%ADD15R,1.600000X1.150000*%
%ADD16R,1.200000X1.150000*%
%ADD17R,1.300000X1.600000*%
%ADD18R,1.600000X1.300000*%
%ADD19R,4.900000X3.700000*%
%ADD20R,0.950000X1.945000*%
%ADD21R,1.945000X0.950000*%
%ADD22R,2.100000X2.100000*%
%ADD23O,2.100000X2.100000*%
%ADD24R,0.850000X1.700000*%
%ADD25O,1.850000X2.400000*%
%ADD26O,1.550000X2.200000*%
%ADD27O,1.200000X1.200000*%
%ADD28R,1.800000X2.200000*%
%ADD29R,2.398980X2.398980*%
%ADD30R,2.300000X1.200000*%
%ADD31R,1.200000X2.300000*%
%ADD32C,6.800000*%
%ADD33C,1.200000*%
%ADD34R,1.850000X0.850000*%
%ADD35R,0.850000X1.900000*%
%ADD36R,2.200000X2.200000*%
%ADD37C,2.200000*%
%ADD38R,4.500000X7.575000*%
G04 APERTURE END LIST*
D10*
D11*
X74930000Y-159920000D03*
X76200000Y-153770000D03*
X76200000Y-159920000D03*
X74930000Y-153770000D03*
D12*
X62715000Y-72335000D03*
X69215000Y-72335000D03*
X62715000Y-76835000D03*
X69215000Y-76835000D03*
D13*
X51435000Y-110375000D03*
X51435000Y-111875000D03*
D14*
X45085000Y-131125000D03*
X45085000Y-129225000D03*
X45085000Y-134305000D03*
X45085000Y-136205000D03*
D15*
X62550000Y-113030000D03*
X64450000Y-113030000D03*
D16*
X55130000Y-184150000D03*
X56630000Y-184150000D03*
X75450000Y-181610000D03*
X76950000Y-181610000D03*
D17*
X55880000Y-66210000D03*
X55880000Y-68410000D03*
X43180000Y-66210000D03*
X43180000Y-68410000D03*
D18*
X49065000Y-60960000D03*
X51265000Y-60960000D03*
D17*
X88900000Y-66210000D03*
X88900000Y-68410000D03*
X74930000Y-66210000D03*
X74930000Y-68410000D03*
D18*
X80180000Y-60960000D03*
X82380000Y-60960000D03*
D17*
X56515000Y-82720000D03*
X56515000Y-84920000D03*
X43180000Y-82720000D03*
X43180000Y-84920000D03*
D18*
X48430000Y-77470000D03*
X50630000Y-77470000D03*
D17*
X88900000Y-82720000D03*
X88900000Y-84920000D03*
X74930000Y-82720000D03*
X74930000Y-84920000D03*
D18*
X80180000Y-77470000D03*
X82380000Y-77470000D03*
D17*
X90170000Y-39540000D03*
X90170000Y-41740000D03*
X73660000Y-39540000D03*
X73660000Y-41740000D03*
D18*
X80180000Y-34290000D03*
X82380000Y-34290000D03*
D19*
X47670000Y-21590000D03*
X56470000Y-21590000D03*
X62910000Y-21590000D03*
X71710000Y-21590000D03*
X78150000Y-21590000D03*
X86950000Y-21590000D03*
D20*
X78200000Y-114270000D03*
X77400000Y-114270000D03*
X76600000Y-114270000D03*
X75800000Y-114270000D03*
X75000000Y-114270000D03*
X74200000Y-114270000D03*
X74200000Y-116865000D03*
X75000000Y-116865000D03*
X75800000Y-116865000D03*
X76600000Y-116865000D03*
X77400000Y-116865000D03*
X78200000Y-116865000D03*
D21*
X78497500Y-115570000D03*
X73902500Y-115570000D03*
D22*
X54610000Y-115570000D03*
D23*
X54610000Y-118110000D03*
X54610000Y-120650000D03*
X54610000Y-123190000D03*
X54610000Y-125730000D03*
X54610000Y-128270000D03*
X54610000Y-130810000D03*
X54610000Y-133350000D03*
X54610000Y-135890000D03*
X54610000Y-138430000D03*
X54610000Y-140970000D03*
X54610000Y-143510000D03*
X54610000Y-146050000D03*
X54610000Y-148590000D03*
D22*
X90170000Y-116205000D03*
D23*
X90170000Y-118745000D03*
X90170000Y-121285000D03*
X90170000Y-123825000D03*
X90170000Y-126365000D03*
X90170000Y-128905000D03*
X90170000Y-131445000D03*
X90170000Y-133985000D03*
X90170000Y-136525000D03*
X90170000Y-139065000D03*
X90170000Y-141605000D03*
X90170000Y-144145000D03*
X90170000Y-146685000D03*
X90170000Y-149225000D03*
D22*
X60960000Y-153670000D03*
D23*
X60960000Y-156210000D03*
X63500000Y-153670000D03*
X63500000Y-156210000D03*
X66040000Y-153670000D03*
X66040000Y-156210000D03*
D24*
X72360000Y-184790000D03*
X73010000Y-184790000D03*
X73660000Y-184790000D03*
X74310000Y-184790000D03*
X74960000Y-184790000D03*
D25*
X69935000Y-184840000D03*
X77385000Y-184840000D03*
D26*
X69785000Y-188640000D03*
X77535000Y-188640000D03*
D27*
X71160000Y-185890000D03*
X76160000Y-185890000D03*
D22*
X70485000Y-53340000D03*
D23*
X70485000Y-50800000D03*
X67945000Y-53340000D03*
X67945000Y-50800000D03*
X65405000Y-53340000D03*
X65405000Y-50800000D03*
D28*
X52450000Y-38240000D03*
X49150000Y-38240000D03*
X49150000Y-43040000D03*
X52450000Y-43040000D03*
D10*
G36*
X91049450Y-174543060D02*
X86750550Y-174543060D01*
X87850370Y-170642940D01*
X89949630Y-170642940D01*
X91049450Y-174543060D01*
X91049450Y-174543060D01*
G37*
G36*
X86750550Y-165816940D02*
X91049450Y-165816940D01*
X89949630Y-169717060D01*
X87850370Y-169717060D01*
X86750550Y-165816940D01*
X86750550Y-165816940D01*
G37*
D29*
X88900000Y-175681640D03*
X88900000Y-164678360D03*
D30*
X88035000Y-90490000D03*
X88035000Y-92390000D03*
X91035000Y-91440000D03*
D31*
X91120000Y-107085000D03*
X89220000Y-107085000D03*
X90170000Y-110085000D03*
D30*
X82320000Y-109540000D03*
X82320000Y-111440000D03*
X85320000Y-110490000D03*
X81050000Y-90490000D03*
X81050000Y-92390000D03*
X84050000Y-91440000D03*
D31*
X45405000Y-114530000D03*
X47305000Y-114530000D03*
X46355000Y-111530000D03*
X58740000Y-69445000D03*
X60640000Y-69445000D03*
X59690000Y-66445000D03*
X71440000Y-69445000D03*
X73340000Y-69445000D03*
X72390000Y-66445000D03*
X58740000Y-85320000D03*
X60640000Y-85320000D03*
X59690000Y-82320000D03*
X70805000Y-85320000D03*
X72705000Y-85320000D03*
X71755000Y-82320000D03*
X68900000Y-42140000D03*
X70800000Y-42140000D03*
X69850000Y-39140000D03*
X63820000Y-42140000D03*
X65720000Y-42140000D03*
X64770000Y-39140000D03*
X54295000Y-176760000D03*
X56195000Y-176760000D03*
X55245000Y-173760000D03*
X89850000Y-158520000D03*
X87950000Y-158520000D03*
X88900000Y-161520000D03*
D17*
X86995000Y-133815000D03*
X86995000Y-131615000D03*
X86995000Y-126535000D03*
X86995000Y-128735000D03*
D18*
X62400000Y-114935000D03*
X64600000Y-114935000D03*
X70020000Y-153670000D03*
X72220000Y-153670000D03*
X83355000Y-147320000D03*
X85555000Y-147320000D03*
X83355000Y-145415000D03*
X85555000Y-145415000D03*
X66210000Y-148590000D03*
X68410000Y-148590000D03*
D17*
X57150000Y-103040000D03*
X57150000Y-105240000D03*
X64770000Y-103040000D03*
X64770000Y-105240000D03*
X59690000Y-103040000D03*
X59690000Y-105240000D03*
X67310000Y-103040000D03*
X67310000Y-105240000D03*
D18*
X72855000Y-105410000D03*
X70655000Y-105410000D03*
X72855000Y-107315000D03*
X70655000Y-107315000D03*
D17*
X42545000Y-103040000D03*
X42545000Y-105240000D03*
X45085000Y-103040000D03*
X45085000Y-105240000D03*
X47625000Y-103040000D03*
X47625000Y-105240000D03*
X50165000Y-103040000D03*
X50165000Y-105240000D03*
X54610000Y-103040000D03*
X54610000Y-105240000D03*
X62230000Y-103040000D03*
X62230000Y-105240000D03*
X69850000Y-98595000D03*
X69850000Y-100795000D03*
X72390000Y-98595000D03*
X72390000Y-100795000D03*
D18*
X70655000Y-103505000D03*
X72855000Y-103505000D03*
X91270000Y-112395000D03*
X89070000Y-112395000D03*
D17*
X52705000Y-105240000D03*
X52705000Y-103040000D03*
X74295000Y-98595000D03*
X74295000Y-100795000D03*
X71120000Y-90975000D03*
X71120000Y-93175000D03*
D18*
X81450000Y-103505000D03*
X83650000Y-103505000D03*
X83650000Y-105410000D03*
X81450000Y-105410000D03*
X83650000Y-107315000D03*
X81450000Y-107315000D03*
D17*
X73660000Y-92540000D03*
X73660000Y-90340000D03*
X76200000Y-92540000D03*
X76200000Y-90340000D03*
D18*
X45255000Y-118110000D03*
X47455000Y-118110000D03*
D17*
X49530000Y-114130000D03*
X49530000Y-111930000D03*
D18*
X59520000Y-63500000D03*
X57320000Y-63500000D03*
X72560000Y-63500000D03*
X74760000Y-63500000D03*
X59520000Y-80010000D03*
X57320000Y-80010000D03*
X72560000Y-80010000D03*
X74760000Y-80010000D03*
X71290000Y-36830000D03*
X73490000Y-36830000D03*
X68750000Y-112395000D03*
X70950000Y-112395000D03*
X70950000Y-113665000D03*
X68750000Y-113665000D03*
X66210000Y-117475000D03*
X68410000Y-117475000D03*
X66210000Y-119380000D03*
X68410000Y-119380000D03*
D17*
X84455000Y-131615000D03*
X84455000Y-133815000D03*
D18*
X82380000Y-133985000D03*
X80180000Y-133985000D03*
D17*
X84455000Y-128735000D03*
X84455000Y-126535000D03*
X84455000Y-124290000D03*
X84455000Y-122090000D03*
X59690000Y-38270000D03*
X59690000Y-40470000D03*
X60960000Y-38270000D03*
X60960000Y-40470000D03*
X46990000Y-28110000D03*
X46990000Y-30310000D03*
X62230000Y-28110000D03*
X62230000Y-30310000D03*
X77470000Y-28110000D03*
X77470000Y-30310000D03*
X57150000Y-30310000D03*
X57150000Y-28110000D03*
X72390000Y-30310000D03*
X72390000Y-28110000D03*
X87630000Y-30310000D03*
X87630000Y-28110000D03*
D18*
X53170000Y-184150000D03*
X50970000Y-184150000D03*
D17*
X50800000Y-179240000D03*
X50800000Y-181440000D03*
D18*
X62060000Y-176530000D03*
X59860000Y-176530000D03*
X62060000Y-179070000D03*
X59860000Y-179070000D03*
X87800000Y-156210000D03*
X90000000Y-156210000D03*
X86530000Y-179070000D03*
X88730000Y-179070000D03*
D17*
X55880000Y-39540000D03*
X55880000Y-41740000D03*
D12*
X85240000Y-42600000D03*
X78740000Y-42600000D03*
X85240000Y-38100000D03*
X78740000Y-38100000D03*
X85240000Y-69270000D03*
X78740000Y-69270000D03*
X85240000Y-64770000D03*
X78740000Y-64770000D03*
X85240000Y-85780000D03*
X78740000Y-85780000D03*
X85240000Y-81280000D03*
X78740000Y-81280000D03*
X53490000Y-69270000D03*
X46990000Y-69270000D03*
X53490000Y-64770000D03*
X46990000Y-64770000D03*
X53490000Y-85780000D03*
X46990000Y-85780000D03*
X53490000Y-81280000D03*
X46990000Y-81280000D03*
D32*
X45085000Y-146685000D03*
D33*
X47485000Y-146685000D03*
X46782056Y-148382056D03*
X45085000Y-149085000D03*
X43387944Y-148382056D03*
X42685000Y-146685000D03*
X43387944Y-144987944D03*
X45085000Y-144285000D03*
X46782056Y-144987944D03*
D32*
X88900000Y-185420000D03*
D33*
X91300000Y-185420000D03*
X90597056Y-187117056D03*
X88900000Y-187820000D03*
X87202944Y-187117056D03*
X86500000Y-185420000D03*
X87202944Y-183722944D03*
X88900000Y-183020000D03*
X90597056Y-183722944D03*
D32*
X66675000Y-33020000D03*
D33*
X69075000Y-33020000D03*
X68372056Y-34717056D03*
X66675000Y-35420000D03*
X64977944Y-34717056D03*
X64275000Y-33020000D03*
X64977944Y-31322944D03*
X66675000Y-30620000D03*
X68372056Y-31322944D03*
D10*
G36*
X65241712Y-133073666D02*
X65913464Y-132401914D01*
X67327678Y-133816128D01*
X66655926Y-134487880D01*
X65241712Y-133073666D01*
X65241712Y-133073666D01*
G37*
G36*
X64676027Y-133639352D02*
X65347779Y-132967600D01*
X66761993Y-134381814D01*
X66090241Y-135053566D01*
X64676027Y-133639352D01*
X64676027Y-133639352D01*
G37*
G36*
X64110341Y-134205037D02*
X64782093Y-133533285D01*
X66196307Y-134947499D01*
X65524555Y-135619251D01*
X64110341Y-134205037D01*
X64110341Y-134205037D01*
G37*
G36*
X63544656Y-134770722D02*
X64216408Y-134098970D01*
X65630622Y-135513184D01*
X64958870Y-136184936D01*
X63544656Y-134770722D01*
X63544656Y-134770722D01*
G37*
G36*
X62978970Y-135336408D02*
X63650722Y-134664656D01*
X65064936Y-136078870D01*
X64393184Y-136750622D01*
X62978970Y-135336408D01*
X62978970Y-135336408D01*
G37*
G36*
X62413285Y-135902093D02*
X63085037Y-135230341D01*
X64499251Y-136644555D01*
X63827499Y-137316307D01*
X62413285Y-135902093D01*
X62413285Y-135902093D01*
G37*
G36*
X61847600Y-136467779D02*
X62519352Y-135796027D01*
X63933566Y-137210241D01*
X63261814Y-137881993D01*
X61847600Y-136467779D01*
X61847600Y-136467779D01*
G37*
G36*
X61281914Y-137033464D02*
X61953666Y-136361712D01*
X63367880Y-137775926D01*
X62696128Y-138447678D01*
X61281914Y-137033464D01*
X61281914Y-137033464D01*
G37*
G36*
X61953666Y-140498288D02*
X61281914Y-139826536D01*
X62696128Y-138412322D01*
X63367880Y-139084074D01*
X61953666Y-140498288D01*
X61953666Y-140498288D01*
G37*
G36*
X62519352Y-141063973D02*
X61847600Y-140392221D01*
X63261814Y-138978007D01*
X63933566Y-139649759D01*
X62519352Y-141063973D01*
X62519352Y-141063973D01*
G37*
G36*
X63085037Y-141629659D02*
X62413285Y-140957907D01*
X63827499Y-139543693D01*
X64499251Y-140215445D01*
X63085037Y-141629659D01*
X63085037Y-141629659D01*
G37*
G36*
X63650722Y-142195344D02*
X62978970Y-141523592D01*
X64393184Y-140109378D01*
X65064936Y-140781130D01*
X63650722Y-142195344D01*
X63650722Y-142195344D01*
G37*
G36*
X64216408Y-142761030D02*
X63544656Y-142089278D01*
X64958870Y-140675064D01*
X65630622Y-141346816D01*
X64216408Y-142761030D01*
X64216408Y-142761030D01*
G37*
G36*
X64782093Y-143326715D02*
X64110341Y-142654963D01*
X65524555Y-141240749D01*
X66196307Y-141912501D01*
X64782093Y-143326715D01*
X64782093Y-143326715D01*
G37*
G36*
X65347779Y-143892400D02*
X64676027Y-143220648D01*
X66090241Y-141806434D01*
X66761993Y-142478186D01*
X65347779Y-143892400D01*
X65347779Y-143892400D01*
G37*
G36*
X65913464Y-144458086D02*
X65241712Y-143786334D01*
X66655926Y-142372120D01*
X67327678Y-143043872D01*
X65913464Y-144458086D01*
X65913464Y-144458086D01*
G37*
G36*
X67292322Y-143043872D02*
X67964074Y-142372120D01*
X69378288Y-143786334D01*
X68706536Y-144458086D01*
X67292322Y-143043872D01*
X67292322Y-143043872D01*
G37*
G36*
X67858007Y-142478186D02*
X68529759Y-141806434D01*
X69943973Y-143220648D01*
X69272221Y-143892400D01*
X67858007Y-142478186D01*
X67858007Y-142478186D01*
G37*
G36*
X68423693Y-141912501D02*
X69095445Y-141240749D01*
X70509659Y-142654963D01*
X69837907Y-143326715D01*
X68423693Y-141912501D01*
X68423693Y-141912501D01*
G37*
G36*
X68989378Y-141346816D02*
X69661130Y-140675064D01*
X71075344Y-142089278D01*
X70403592Y-142761030D01*
X68989378Y-141346816D01*
X68989378Y-141346816D01*
G37*
G36*
X69555064Y-140781130D02*
X70226816Y-140109378D01*
X71641030Y-141523592D01*
X70969278Y-142195344D01*
X69555064Y-140781130D01*
X69555064Y-140781130D01*
G37*
G36*
X70120749Y-140215445D02*
X70792501Y-139543693D01*
X72206715Y-140957907D01*
X71534963Y-141629659D01*
X70120749Y-140215445D01*
X70120749Y-140215445D01*
G37*
G36*
X70686434Y-139649759D02*
X71358186Y-138978007D01*
X72772400Y-140392221D01*
X72100648Y-141063973D01*
X70686434Y-139649759D01*
X70686434Y-139649759D01*
G37*
G36*
X71252120Y-139084074D02*
X71923872Y-138412322D01*
X73338086Y-139826536D01*
X72666334Y-140498288D01*
X71252120Y-139084074D01*
X71252120Y-139084074D01*
G37*
G36*
X71923872Y-138447678D02*
X71252120Y-137775926D01*
X72666334Y-136361712D01*
X73338086Y-137033464D01*
X71923872Y-138447678D01*
X71923872Y-138447678D01*
G37*
G36*
X71358186Y-137881993D02*
X70686434Y-137210241D01*
X72100648Y-135796027D01*
X72772400Y-136467779D01*
X71358186Y-137881993D01*
X71358186Y-137881993D01*
G37*
G36*
X70792501Y-137316307D02*
X70120749Y-136644555D01*
X71534963Y-135230341D01*
X72206715Y-135902093D01*
X70792501Y-137316307D01*
X70792501Y-137316307D01*
G37*
G36*
X70226816Y-136750622D02*
X69555064Y-136078870D01*
X70969278Y-134664656D01*
X71641030Y-135336408D01*
X70226816Y-136750622D01*
X70226816Y-136750622D01*
G37*
G36*
X69661130Y-136184936D02*
X68989378Y-135513184D01*
X70403592Y-134098970D01*
X71075344Y-134770722D01*
X69661130Y-136184936D01*
X69661130Y-136184936D01*
G37*
G36*
X69095445Y-135619251D02*
X68423693Y-134947499D01*
X69837907Y-133533285D01*
X70509659Y-134205037D01*
X69095445Y-135619251D01*
X69095445Y-135619251D01*
G37*
G36*
X68529759Y-135053566D02*
X67858007Y-134381814D01*
X69272221Y-132967600D01*
X69943973Y-133639352D01*
X68529759Y-135053566D01*
X68529759Y-135053566D01*
G37*
G36*
X67964074Y-134487880D02*
X67292322Y-133816128D01*
X68706536Y-132401914D01*
X69378288Y-133073666D01*
X67964074Y-134487880D01*
X67964074Y-134487880D01*
G37*
D34*
X56290000Y-99740000D03*
X56290000Y-99090000D03*
X56290000Y-98440000D03*
X56290000Y-97790000D03*
X56290000Y-97140000D03*
X56290000Y-96490000D03*
X56290000Y-95840000D03*
X50390000Y-95840000D03*
X50390000Y-96490000D03*
X50390000Y-97140000D03*
X50390000Y-97790000D03*
X50390000Y-98440000D03*
X50390000Y-99090000D03*
X50390000Y-99740000D03*
X86770000Y-99740000D03*
X86770000Y-99090000D03*
X86770000Y-98440000D03*
X86770000Y-97790000D03*
X86770000Y-97140000D03*
X86770000Y-96490000D03*
X86770000Y-95840000D03*
X80870000Y-95840000D03*
X80870000Y-96490000D03*
X80870000Y-97140000D03*
X80870000Y-97790000D03*
X80870000Y-98440000D03*
X80870000Y-99090000D03*
X80870000Y-99740000D03*
D35*
X67045000Y-89760000D03*
X66395000Y-89760000D03*
X65745000Y-89760000D03*
X65095000Y-89760000D03*
X64445000Y-89760000D03*
X63795000Y-89760000D03*
X63145000Y-89760000D03*
X62495000Y-89760000D03*
X62495000Y-95660000D03*
X63145000Y-95660000D03*
X63795000Y-95660000D03*
X64445000Y-95660000D03*
X65095000Y-95660000D03*
X65745000Y-95660000D03*
X66395000Y-95660000D03*
X67045000Y-95660000D03*
D36*
X52070000Y-187960000D03*
D37*
X54610000Y-187960000D03*
X57150000Y-187960000D03*
D38*
X48260000Y-127177500D03*
X48260000Y-138252500D03*
M02*
