G04 #@! TF.FileFunction,Other,Fab,Bot*
%FSLAX46Y46*%
G04 Gerber Fmt 4.6, Leading zero omitted, Abs format (unit mm)*
G04 Created by KiCad (PCBNEW 4.0.7) date 07/30/18 15:36:35*
%MOMM*%
%LPD*%
G01*
G04 APERTURE LIST*
%ADD10C,0.100000*%
%ADD11C,0.300000*%
%ADD12C,0.200000*%
%ADD13C,0.150000*%
%ADD14C,0.075000*%
G04 APERTURE END LIST*
D10*
D11*
X45390715Y-172763571D02*
X44890715Y-172049286D01*
X44533572Y-172763571D02*
X44533572Y-171263571D01*
X45105000Y-171263571D01*
X45247858Y-171335000D01*
X45319286Y-171406429D01*
X45390715Y-171549286D01*
X45390715Y-171763571D01*
X45319286Y-171906429D01*
X45247858Y-171977857D01*
X45105000Y-172049286D01*
X44533572Y-172049286D01*
X46033572Y-171977857D02*
X46533572Y-171977857D01*
X46747858Y-172763571D02*
X46033572Y-172763571D01*
X46033572Y-171263571D01*
X46747858Y-171263571D01*
X47390715Y-172763571D02*
X47390715Y-171263571D01*
X47747858Y-171263571D01*
X47962143Y-171335000D01*
X48105001Y-171477857D01*
X48176429Y-171620714D01*
X48247858Y-171906429D01*
X48247858Y-172120714D01*
X48176429Y-172406429D01*
X48105001Y-172549286D01*
X47962143Y-172692143D01*
X47747858Y-172763571D01*
X47390715Y-172763571D01*
X44982143Y-160547857D02*
X45196429Y-160619286D01*
X45267857Y-160690714D01*
X45339286Y-160833571D01*
X45339286Y-161047857D01*
X45267857Y-161190714D01*
X45196429Y-161262143D01*
X45053571Y-161333571D01*
X44482143Y-161333571D01*
X44482143Y-159833571D01*
X44982143Y-159833571D01*
X45125000Y-159905000D01*
X45196429Y-159976429D01*
X45267857Y-160119286D01*
X45267857Y-160262143D01*
X45196429Y-160405000D01*
X45125000Y-160476429D01*
X44982143Y-160547857D01*
X44482143Y-160547857D01*
X46696429Y-161333571D02*
X45982143Y-161333571D01*
X45982143Y-159833571D01*
X47125000Y-160905000D02*
X47839286Y-160905000D01*
X46982143Y-161333571D02*
X47482143Y-159833571D01*
X47982143Y-161333571D01*
X49339286Y-161190714D02*
X49267857Y-161262143D01*
X49053571Y-161333571D01*
X48910714Y-161333571D01*
X48696429Y-161262143D01*
X48553571Y-161119286D01*
X48482143Y-160976429D01*
X48410714Y-160690714D01*
X48410714Y-160476429D01*
X48482143Y-160190714D01*
X48553571Y-160047857D01*
X48696429Y-159905000D01*
X48910714Y-159833571D01*
X49053571Y-159833571D01*
X49267857Y-159905000D01*
X49339286Y-159976429D01*
X49982143Y-161333571D02*
X49982143Y-159833571D01*
X50839286Y-161333571D02*
X50196429Y-160476429D01*
X50839286Y-159833571D02*
X49982143Y-160690714D01*
D12*
X57150000Y-167640000D02*
X57150000Y-161290000D01*
X44450000Y-167640000D02*
X57150000Y-167640000D01*
X44450000Y-161290000D02*
X44450000Y-167640000D01*
X57150000Y-161290000D02*
X44450000Y-161290000D01*
D10*
X69125000Y-65085000D02*
X69125000Y-62185000D01*
X69125000Y-62185000D02*
X64225000Y-62185000D01*
X64225000Y-62185000D02*
X64225000Y-66085000D01*
X64225000Y-66085000D02*
X68125000Y-66085000D01*
X68125000Y-66085000D02*
X69125000Y-65085000D01*
X81680000Y-152235000D02*
X80880000Y-152235000D01*
X81680000Y-153835000D02*
X81680000Y-152235000D01*
X80880000Y-153835000D02*
X81680000Y-153835000D01*
X80880000Y-152235000D02*
X80880000Y-153835000D01*
X66510000Y-138030000D02*
X66510000Y-138830000D01*
X68110000Y-138030000D02*
X66510000Y-138030000D01*
X68110000Y-138830000D02*
X68110000Y-138030000D01*
X66510000Y-138830000D02*
X68110000Y-138830000D01*
X66510000Y-139300000D02*
X66510000Y-140100000D01*
X68110000Y-139300000D02*
X66510000Y-139300000D01*
X68110000Y-140100000D02*
X68110000Y-139300000D01*
X66510000Y-140100000D02*
X68110000Y-140100000D01*
X70320000Y-174225000D02*
X70320000Y-175025000D01*
X71920000Y-174225000D02*
X70320000Y-174225000D01*
X71920000Y-175025000D02*
X71920000Y-174225000D01*
X70320000Y-175025000D02*
X71920000Y-175025000D01*
X66655000Y-168580000D02*
X64155000Y-168580000D01*
X66655000Y-171780000D02*
X66655000Y-168580000D01*
X64155000Y-171780000D02*
X66655000Y-171780000D01*
X64155000Y-168580000D02*
X64155000Y-171780000D01*
X82971472Y-98072843D02*
X83537157Y-98638528D01*
X84102843Y-96941472D02*
X82971472Y-98072843D01*
X84668528Y-97507157D02*
X84102843Y-96941472D01*
X83537157Y-98638528D02*
X84668528Y-97507157D01*
X53057157Y-98638528D02*
X54188528Y-97507157D01*
X54188528Y-97507157D02*
X53622843Y-96941472D01*
X53622843Y-96941472D02*
X52491472Y-98072843D01*
X52491472Y-98072843D02*
X53057157Y-98638528D01*
X65618528Y-93627843D02*
X64487157Y-92496472D01*
X64487157Y-92496472D02*
X63921472Y-93062157D01*
X63921472Y-93062157D02*
X65052843Y-94193528D01*
X65052843Y-94193528D02*
X65618528Y-93627843D01*
X51082843Y-39791472D02*
X49951472Y-40922843D01*
X49951472Y-40922843D02*
X50517157Y-41488528D01*
X50517157Y-41488528D02*
X51648528Y-40357157D01*
X51648528Y-40357157D02*
X51082843Y-39791472D01*
X72625000Y-63970000D02*
X72625000Y-65570000D01*
X72625000Y-65570000D02*
X73425000Y-65570000D01*
X73425000Y-65570000D02*
X73425000Y-63970000D01*
X73425000Y-63970000D02*
X72625000Y-63970000D01*
X85090000Y-151040000D02*
X86740000Y-151040000D01*
X86740000Y-151040000D02*
X87540000Y-150240000D01*
X87540000Y-150240000D02*
X87540000Y-148590000D01*
X85090000Y-146140000D02*
X86740000Y-146140000D01*
X86740000Y-146140000D02*
X87540000Y-146940000D01*
X87540000Y-146940000D02*
X87540000Y-148590000D01*
X85090000Y-146140000D02*
X83440000Y-146140000D01*
X83440000Y-146140000D02*
X82640000Y-146940000D01*
X82640000Y-146940000D02*
X82640000Y-148590000D01*
X85090000Y-151040000D02*
X83440000Y-151040000D01*
X83440000Y-151040000D02*
X82640000Y-150240000D01*
X82640000Y-150240000D02*
X82640000Y-148590000D01*
X81345000Y-175580000D02*
X81345000Y-178030000D01*
X80795000Y-175010000D02*
X79945000Y-175010000D01*
X81345000Y-175580000D02*
X80795000Y-175010000D01*
X79945000Y-175010000D02*
X79945000Y-178050000D01*
X81345000Y-178050000D02*
X79945000Y-178050000D01*
X79690000Y-171515000D02*
X77240000Y-171515000D01*
X80260000Y-170965000D02*
X80260000Y-170115000D01*
X79690000Y-171515000D02*
X80260000Y-170965000D01*
X80260000Y-170115000D02*
X77220000Y-170115000D01*
X77220000Y-171515000D02*
X77220000Y-170115000D01*
X68415000Y-126600000D02*
X68415000Y-127400000D01*
X70015000Y-126600000D02*
X68415000Y-126600000D01*
X70015000Y-127400000D02*
X70015000Y-126600000D01*
X68415000Y-127400000D02*
X70015000Y-127400000D01*
X68415000Y-124060000D02*
X68415000Y-124860000D01*
X70015000Y-124060000D02*
X68415000Y-124060000D01*
X70015000Y-124860000D02*
X70015000Y-124060000D01*
X68415000Y-124860000D02*
X70015000Y-124860000D01*
X70885000Y-145885000D02*
X70085000Y-145885000D01*
X70885000Y-147485000D02*
X70885000Y-145885000D01*
X70085000Y-147485000D02*
X70885000Y-147485000D01*
X70085000Y-145885000D02*
X70085000Y-147485000D01*
X66510000Y-143745000D02*
X66510000Y-144545000D01*
X68110000Y-143745000D02*
X66510000Y-143745000D01*
X68110000Y-144545000D02*
X68110000Y-143745000D01*
X66510000Y-144545000D02*
X68110000Y-144545000D01*
X66510000Y-145650000D02*
X66510000Y-146450000D01*
X68110000Y-145650000D02*
X66510000Y-145650000D01*
X68110000Y-146450000D02*
X68110000Y-145650000D01*
X66510000Y-146450000D02*
X68110000Y-146450000D01*
X70320000Y-178670000D02*
X70320000Y-179470000D01*
X71920000Y-178670000D02*
X70320000Y-178670000D01*
X71920000Y-179470000D02*
X71920000Y-178670000D01*
X70320000Y-179470000D02*
X71920000Y-179470000D01*
X70320000Y-176130000D02*
X70320000Y-176930000D01*
X71920000Y-176130000D02*
X70320000Y-176130000D01*
X71920000Y-176930000D02*
X71920000Y-176130000D01*
X70320000Y-176930000D02*
X71920000Y-176930000D01*
X53810000Y-158350000D02*
X53810000Y-159150000D01*
X55410000Y-158350000D02*
X53810000Y-158350000D01*
X55410000Y-159150000D02*
X55410000Y-158350000D01*
X53810000Y-159150000D02*
X55410000Y-159150000D01*
X74130000Y-130410000D02*
X74130000Y-131210000D01*
X75730000Y-130410000D02*
X74130000Y-130410000D01*
X75730000Y-131210000D02*
X75730000Y-130410000D01*
X74130000Y-131210000D02*
X75730000Y-131210000D01*
X75730000Y-133115000D02*
X75730000Y-132315000D01*
X74130000Y-133115000D02*
X75730000Y-133115000D01*
X74130000Y-132315000D02*
X74130000Y-133115000D01*
X75730000Y-132315000D02*
X74130000Y-132315000D01*
X74130000Y-127870000D02*
X74130000Y-128670000D01*
X75730000Y-127870000D02*
X74130000Y-127870000D01*
X75730000Y-128670000D02*
X75730000Y-127870000D01*
X74130000Y-128670000D02*
X75730000Y-128670000D01*
X75730000Y-126765000D02*
X75730000Y-125965000D01*
X74130000Y-126765000D02*
X75730000Y-126765000D01*
X74130000Y-125965000D02*
X74130000Y-126765000D01*
X75730000Y-125965000D02*
X74130000Y-125965000D01*
X84220000Y-163665000D02*
X83420000Y-163665000D01*
X84220000Y-165265000D02*
X84220000Y-163665000D01*
X83420000Y-165265000D02*
X84220000Y-165265000D01*
X83420000Y-163665000D02*
X83420000Y-165265000D01*
X81680000Y-163665000D02*
X80880000Y-163665000D01*
X81680000Y-165265000D02*
X81680000Y-163665000D01*
X80880000Y-165265000D02*
X81680000Y-165265000D01*
X80880000Y-163665000D02*
X80880000Y-165265000D01*
X61360000Y-160490000D02*
X60560000Y-160490000D01*
X61360000Y-162090000D02*
X61360000Y-160490000D01*
X60560000Y-162090000D02*
X61360000Y-162090000D01*
X60560000Y-160490000D02*
X60560000Y-162090000D01*
X63900000Y-160490000D02*
X63100000Y-160490000D01*
X63900000Y-162090000D02*
X63900000Y-160490000D01*
X63100000Y-162090000D02*
X63900000Y-162090000D01*
X63100000Y-160490000D02*
X63100000Y-162090000D01*
X65640000Y-162090000D02*
X66440000Y-162090000D01*
X65640000Y-160490000D02*
X65640000Y-162090000D01*
X66440000Y-160490000D02*
X65640000Y-160490000D01*
X66440000Y-162090000D02*
X66440000Y-160490000D01*
X74765000Y-174860000D02*
X74765000Y-175660000D01*
X76365000Y-174860000D02*
X74765000Y-174860000D01*
X76365000Y-175660000D02*
X76365000Y-174860000D01*
X74765000Y-175660000D02*
X76365000Y-175660000D01*
X76600000Y-163665000D02*
X75800000Y-163665000D01*
X76600000Y-165265000D02*
X76600000Y-163665000D01*
X75800000Y-165265000D02*
X76600000Y-165265000D01*
X75800000Y-163665000D02*
X75800000Y-165265000D01*
X79140000Y-163665000D02*
X78340000Y-163665000D01*
X79140000Y-165265000D02*
X79140000Y-163665000D01*
X78340000Y-165265000D02*
X79140000Y-165265000D01*
X78340000Y-163665000D02*
X78340000Y-165265000D01*
X72790000Y-162395000D02*
X71990000Y-162395000D01*
X72790000Y-163995000D02*
X72790000Y-162395000D01*
X71990000Y-163995000D02*
X72790000Y-163995000D01*
X71990000Y-162395000D02*
X71990000Y-163995000D01*
X73895000Y-163995000D02*
X74695000Y-163995000D01*
X73895000Y-162395000D02*
X73895000Y-163995000D01*
X74695000Y-162395000D02*
X73895000Y-162395000D01*
X74695000Y-163995000D02*
X74695000Y-162395000D01*
X70250000Y-162395000D02*
X69450000Y-162395000D01*
X70250000Y-163995000D02*
X70250000Y-162395000D01*
X69450000Y-163995000D02*
X70250000Y-163995000D01*
X69450000Y-162395000D02*
X69450000Y-163995000D01*
X61195000Y-56045000D02*
X61995000Y-56045000D01*
X61195000Y-54445000D02*
X61195000Y-56045000D01*
X61995000Y-54445000D02*
X61195000Y-54445000D01*
X61995000Y-56045000D02*
X61995000Y-54445000D01*
X59925000Y-61125000D02*
X60725000Y-61125000D01*
X59925000Y-59525000D02*
X59925000Y-61125000D01*
X60725000Y-59525000D02*
X59925000Y-59525000D01*
X60725000Y-61125000D02*
X60725000Y-59525000D01*
X61830000Y-61125000D02*
X62630000Y-61125000D01*
X61830000Y-59525000D02*
X61830000Y-61125000D01*
X62630000Y-59525000D02*
X61830000Y-59525000D01*
X62630000Y-61125000D02*
X62630000Y-59525000D01*
X70720000Y-83350000D02*
X71520000Y-83350000D01*
X70720000Y-81750000D02*
X70720000Y-83350000D01*
X71520000Y-81750000D02*
X70720000Y-81750000D01*
X71520000Y-83350000D02*
X71520000Y-81750000D01*
X65005000Y-83350000D02*
X65805000Y-83350000D01*
X65005000Y-81750000D02*
X65005000Y-83350000D01*
X65805000Y-81750000D02*
X65005000Y-81750000D01*
X65805000Y-83350000D02*
X65805000Y-81750000D01*
X68815000Y-83350000D02*
X69615000Y-83350000D01*
X68815000Y-81750000D02*
X68815000Y-83350000D01*
X69615000Y-81750000D02*
X68815000Y-81750000D01*
X69615000Y-83350000D02*
X69615000Y-81750000D01*
X76515000Y-146775000D02*
X73615000Y-146775000D01*
X73615000Y-146775000D02*
X73615000Y-151675000D01*
X73615000Y-151675000D02*
X77515000Y-151675000D01*
X77515000Y-151675000D02*
X77515000Y-147775000D01*
X77515000Y-147775000D02*
X76515000Y-146775000D01*
X52470000Y-169380000D02*
X51670000Y-169380000D01*
X52470000Y-170980000D02*
X52470000Y-169380000D01*
X51670000Y-170980000D02*
X52470000Y-170980000D01*
X51670000Y-169380000D02*
X51670000Y-170980000D01*
X53202082Y-154940000D02*
G75*
G03X53202082Y-154940000I-2402082J0D01*
G01*
X48290000Y-157450000D02*
X48290000Y-152430000D01*
X52640000Y-157450000D02*
X48290000Y-157450000D01*
X53310000Y-156780000D02*
X52640000Y-157450000D01*
X53310000Y-153100000D02*
X53310000Y-156780000D01*
X52640000Y-152430000D02*
X53310000Y-153100000D01*
X48290000Y-152430000D02*
X52640000Y-152430000D01*
X62727082Y-169545000D02*
G75*
G03X62727082Y-169545000I-2402082J0D01*
G01*
X57815000Y-167035000D02*
X62835000Y-167035000D01*
X57815000Y-171385000D02*
X57815000Y-167035000D01*
X58485000Y-172055000D02*
X57815000Y-171385000D01*
X62165000Y-172055000D02*
X58485000Y-172055000D01*
X62835000Y-171385000D02*
X62165000Y-172055000D01*
X62835000Y-167035000D02*
X62835000Y-171385000D01*
X89275000Y-155015000D02*
X82175000Y-155015000D01*
X82175000Y-155015000D02*
X82175000Y-161215000D01*
X89275000Y-161215000D02*
X89275000Y-155015000D01*
X89275000Y-161215000D02*
X82175000Y-161215000D01*
X88025000Y-156115000D02*
X83425000Y-156115000D01*
X83425000Y-156115000D02*
X83425000Y-160115000D01*
X88025000Y-160115000D02*
X88025000Y-156115000D01*
X88025000Y-160115000D02*
X83425000Y-160115000D01*
X85075560Y-158113980D02*
X84173860Y-158113980D01*
X86226180Y-158113980D02*
X87224400Y-158113980D01*
X85075560Y-158914080D02*
X85075560Y-157313880D01*
X86226180Y-157364680D02*
X86226180Y-158914080D01*
X85075560Y-158113980D02*
X86226180Y-157364680D01*
X85075560Y-158113980D02*
X86226180Y-158914080D01*
X49155000Y-50725000D02*
X56255000Y-50725000D01*
X56255000Y-50725000D02*
X56255000Y-44525000D01*
X49155000Y-44525000D02*
X49155000Y-50725000D01*
X49155000Y-44525000D02*
X56255000Y-44525000D01*
X50405000Y-49625000D02*
X55005000Y-49625000D01*
X55005000Y-49625000D02*
X55005000Y-45625000D01*
X50405000Y-45625000D02*
X50405000Y-49625000D01*
X50405000Y-45625000D02*
X55005000Y-45625000D01*
X53354440Y-47626020D02*
X54256140Y-47626020D01*
X52203820Y-47626020D02*
X51205600Y-47626020D01*
X53354440Y-46825920D02*
X53354440Y-48426120D01*
X52203820Y-48375320D02*
X52203820Y-46825920D01*
X53354440Y-47626020D02*
X52203820Y-48375320D01*
X53354440Y-47626020D02*
X52203820Y-46825920D01*
X49155000Y-57710000D02*
X56255000Y-57710000D01*
X56255000Y-57710000D02*
X56255000Y-51510000D01*
X49155000Y-51510000D02*
X49155000Y-57710000D01*
X49155000Y-51510000D02*
X56255000Y-51510000D01*
X50405000Y-56610000D02*
X55005000Y-56610000D01*
X55005000Y-56610000D02*
X55005000Y-52610000D01*
X50405000Y-52610000D02*
X50405000Y-56610000D01*
X50405000Y-52610000D02*
X55005000Y-52610000D01*
X53354440Y-54611020D02*
X54256140Y-54611020D01*
X52203820Y-54611020D02*
X51205600Y-54611020D01*
X53354440Y-53810920D02*
X53354440Y-55411120D01*
X52203820Y-55360320D02*
X52203820Y-53810920D01*
X53354440Y-54611020D02*
X52203820Y-55360320D01*
X53354440Y-54611020D02*
X52203820Y-53810920D01*
D13*
X63341667Y-60992143D02*
X63341667Y-61468334D01*
X63627381Y-60896905D02*
X62627381Y-61230238D01*
X63627381Y-61563572D01*
X62627381Y-61754048D02*
X62627381Y-62325477D01*
X63627381Y-62039762D02*
X62627381Y-62039762D01*
X62627381Y-62515953D02*
X62627381Y-63087382D01*
X63627381Y-62801667D02*
X62627381Y-62801667D01*
X63627381Y-63420715D02*
X62627381Y-63420715D01*
X63627381Y-63896905D02*
X62627381Y-63896905D01*
X63627381Y-64468334D01*
X62627381Y-64468334D01*
X63151190Y-65135000D02*
X63627381Y-65135000D01*
X62627381Y-64801667D02*
X63151190Y-65135000D01*
X62627381Y-65468334D01*
X63055952Y-65944524D02*
X63008333Y-65849286D01*
X62960714Y-65801667D01*
X62865476Y-65754048D01*
X62817857Y-65754048D01*
X62722619Y-65801667D01*
X62675000Y-65849286D01*
X62627381Y-65944524D01*
X62627381Y-66135001D01*
X62675000Y-66230239D01*
X62722619Y-66277858D01*
X62817857Y-66325477D01*
X62865476Y-66325477D01*
X62960714Y-66277858D01*
X63008333Y-66230239D01*
X63055952Y-66135001D01*
X63055952Y-65944524D01*
X63103571Y-65849286D01*
X63151190Y-65801667D01*
X63246429Y-65754048D01*
X63436905Y-65754048D01*
X63532143Y-65801667D01*
X63579762Y-65849286D01*
X63627381Y-65944524D01*
X63627381Y-66135001D01*
X63579762Y-66230239D01*
X63532143Y-66277858D01*
X63436905Y-66325477D01*
X63246429Y-66325477D01*
X63151190Y-66277858D01*
X63103571Y-66230239D01*
X63055952Y-66135001D01*
X62627381Y-67230239D02*
X62627381Y-66754048D01*
X63103571Y-66706429D01*
X63055952Y-66754048D01*
X63008333Y-66849286D01*
X63008333Y-67087382D01*
X63055952Y-67182620D01*
X63103571Y-67230239D01*
X63198810Y-67277858D01*
X63436905Y-67277858D01*
X63532143Y-67230239D01*
X63579762Y-67182620D01*
X63627381Y-67087382D01*
X63627381Y-66849286D01*
X63579762Y-66754048D01*
X63532143Y-66706429D01*
X83232381Y-152868334D02*
X83232381Y-152296905D01*
X83232381Y-152582619D02*
X82232381Y-152582619D01*
X82375238Y-152487381D01*
X82470476Y-152392143D01*
X82518095Y-152296905D01*
X82565714Y-153296905D02*
X83232381Y-153296905D01*
X82660952Y-153296905D02*
X82613333Y-153344524D01*
X82565714Y-153439762D01*
X82565714Y-153582620D01*
X82613333Y-153677858D01*
X82708571Y-153725477D01*
X83232381Y-153725477D01*
X63984047Y-140152381D02*
X64555476Y-140152381D01*
X64269762Y-140152381D02*
X64269762Y-139152381D01*
X64365000Y-139295238D01*
X64460238Y-139390476D01*
X64555476Y-139438095D01*
X63365000Y-139152381D02*
X63269761Y-139152381D01*
X63174523Y-139200000D01*
X63126904Y-139247619D01*
X63079285Y-139342857D01*
X63031666Y-139533333D01*
X63031666Y-139771429D01*
X63079285Y-139961905D01*
X63126904Y-140057143D01*
X63174523Y-140104762D01*
X63269761Y-140152381D01*
X63365000Y-140152381D01*
X63460238Y-140104762D01*
X63507857Y-140057143D01*
X63555476Y-139961905D01*
X63603095Y-139771429D01*
X63603095Y-139533333D01*
X63555476Y-139342857D01*
X63507857Y-139247619D01*
X63460238Y-139200000D01*
X63365000Y-139152381D01*
X62412619Y-139152381D02*
X62317380Y-139152381D01*
X62222142Y-139200000D01*
X62174523Y-139247619D01*
X62126904Y-139342857D01*
X62079285Y-139533333D01*
X62079285Y-139771429D01*
X62126904Y-139961905D01*
X62174523Y-140057143D01*
X62222142Y-140104762D01*
X62317380Y-140152381D01*
X62412619Y-140152381D01*
X62507857Y-140104762D01*
X62555476Y-140057143D01*
X62603095Y-139961905D01*
X62650714Y-139771429D01*
X62650714Y-139533333D01*
X62603095Y-139342857D01*
X62555476Y-139247619D01*
X62507857Y-139200000D01*
X62412619Y-139152381D01*
X61650714Y-139485714D02*
X61650714Y-140152381D01*
X61650714Y-139580952D02*
X61603095Y-139533333D01*
X61507857Y-139485714D01*
X61364999Y-139485714D01*
X61269761Y-139533333D01*
X61222142Y-139628571D01*
X61222142Y-140152381D01*
X69064047Y-175077381D02*
X69635476Y-175077381D01*
X69349762Y-175077381D02*
X69349762Y-174077381D01*
X69445000Y-174220238D01*
X69540238Y-174315476D01*
X69635476Y-174363095D01*
X68445000Y-174077381D02*
X68349761Y-174077381D01*
X68254523Y-174125000D01*
X68206904Y-174172619D01*
X68159285Y-174267857D01*
X68111666Y-174458333D01*
X68111666Y-174696429D01*
X68159285Y-174886905D01*
X68206904Y-174982143D01*
X68254523Y-175029762D01*
X68349761Y-175077381D01*
X68445000Y-175077381D01*
X68540238Y-175029762D01*
X68587857Y-174982143D01*
X68635476Y-174886905D01*
X68683095Y-174696429D01*
X68683095Y-174458333D01*
X68635476Y-174267857D01*
X68587857Y-174172619D01*
X68540238Y-174125000D01*
X68445000Y-174077381D01*
X67492619Y-174077381D02*
X67397380Y-174077381D01*
X67302142Y-174125000D01*
X67254523Y-174172619D01*
X67206904Y-174267857D01*
X67159285Y-174458333D01*
X67159285Y-174696429D01*
X67206904Y-174886905D01*
X67254523Y-174982143D01*
X67302142Y-175029762D01*
X67397380Y-175077381D01*
X67492619Y-175077381D01*
X67587857Y-175029762D01*
X67635476Y-174982143D01*
X67683095Y-174886905D01*
X67730714Y-174696429D01*
X67730714Y-174458333D01*
X67683095Y-174267857D01*
X67635476Y-174172619D01*
X67587857Y-174125000D01*
X67492619Y-174077381D01*
X66730714Y-174410714D02*
X66730714Y-175077381D01*
X66730714Y-174505952D02*
X66683095Y-174458333D01*
X66587857Y-174410714D01*
X66444999Y-174410714D01*
X66349761Y-174458333D01*
X66302142Y-174553571D01*
X66302142Y-175077381D01*
X68397381Y-169465715D02*
X68397381Y-168894286D01*
X68397381Y-169180000D02*
X67397381Y-169180000D01*
X67540238Y-169084762D01*
X67635476Y-168989524D01*
X67683095Y-168894286D01*
X67397381Y-170084762D02*
X67397381Y-170180001D01*
X67445000Y-170275239D01*
X67492619Y-170322858D01*
X67587857Y-170370477D01*
X67778333Y-170418096D01*
X68016429Y-170418096D01*
X68206905Y-170370477D01*
X68302143Y-170322858D01*
X68349762Y-170275239D01*
X68397381Y-170180001D01*
X68397381Y-170084762D01*
X68349762Y-169989524D01*
X68302143Y-169941905D01*
X68206905Y-169894286D01*
X68016429Y-169846667D01*
X67778333Y-169846667D01*
X67587857Y-169894286D01*
X67492619Y-169941905D01*
X67445000Y-169989524D01*
X67397381Y-170084762D01*
X67730714Y-170846667D02*
X68730714Y-170846667D01*
X68254524Y-171322858D02*
X68349762Y-171370477D01*
X68397381Y-171465715D01*
X68254524Y-170846667D02*
X68349762Y-170894286D01*
X68397381Y-170989524D01*
X68397381Y-171180001D01*
X68349762Y-171275239D01*
X68254524Y-171322858D01*
X67730714Y-171322858D01*
X83870507Y-96257936D02*
X84274569Y-95853875D01*
X84072538Y-96055905D02*
X83365432Y-95348798D01*
X83533790Y-95382470D01*
X83668477Y-95382470D01*
X83769492Y-95348798D01*
X82725668Y-95988562D02*
X82658324Y-96055906D01*
X82624652Y-96156921D01*
X82624652Y-96224264D01*
X82658324Y-96325279D01*
X82759339Y-96493638D01*
X82927699Y-96661997D01*
X83096057Y-96763012D01*
X83197072Y-96796684D01*
X83264416Y-96796684D01*
X83365431Y-96763012D01*
X83432775Y-96695668D01*
X83466447Y-96594653D01*
X83466447Y-96527310D01*
X83432775Y-96426295D01*
X83331760Y-96257936D01*
X83163401Y-96089577D01*
X82995042Y-95988562D01*
X82894027Y-95954890D01*
X82826683Y-95954890D01*
X82725668Y-95988562D01*
X82052233Y-96661997D02*
X81984889Y-96729341D01*
X81951217Y-96830356D01*
X81951217Y-96897699D01*
X81984889Y-96998714D01*
X82085904Y-97167073D01*
X82254264Y-97335432D01*
X82422622Y-97436447D01*
X82523637Y-97470119D01*
X82590981Y-97470119D01*
X82691996Y-97436447D01*
X82759340Y-97369103D01*
X82793012Y-97268088D01*
X82793012Y-97200745D01*
X82759340Y-97099730D01*
X82658325Y-96931371D01*
X82489966Y-96763012D01*
X82321607Y-96661997D01*
X82220592Y-96628325D01*
X82153248Y-96628325D01*
X82052233Y-96661997D01*
X81749187Y-97436447D02*
X82220592Y-97907852D01*
X81816530Y-97503790D02*
X81749187Y-97503790D01*
X81648172Y-97537462D01*
X81547156Y-97638478D01*
X81513484Y-97739493D01*
X81547156Y-97840508D01*
X81917546Y-98210898D01*
X53390507Y-96257936D02*
X53794569Y-95853875D01*
X53592538Y-96055905D02*
X52885432Y-95348798D01*
X53053790Y-95382470D01*
X53188477Y-95382470D01*
X53289492Y-95348798D01*
X52245668Y-95988562D02*
X52178324Y-96055906D01*
X52144652Y-96156921D01*
X52144652Y-96224264D01*
X52178324Y-96325279D01*
X52279339Y-96493638D01*
X52447699Y-96661997D01*
X52616057Y-96763012D01*
X52717072Y-96796684D01*
X52784416Y-96796684D01*
X52885431Y-96763012D01*
X52952775Y-96695668D01*
X52986447Y-96594653D01*
X52986447Y-96527310D01*
X52952775Y-96426295D01*
X52851760Y-96257936D01*
X52683401Y-96089577D01*
X52515042Y-95988562D01*
X52414027Y-95954890D01*
X52346683Y-95954890D01*
X52245668Y-95988562D01*
X51572233Y-96661997D02*
X51504889Y-96729341D01*
X51471217Y-96830356D01*
X51471217Y-96897699D01*
X51504889Y-96998714D01*
X51605904Y-97167073D01*
X51774264Y-97335432D01*
X51942622Y-97436447D01*
X52043637Y-97470119D01*
X52110981Y-97470119D01*
X52211996Y-97436447D01*
X52279340Y-97369103D01*
X52313012Y-97268088D01*
X52313012Y-97200745D01*
X52279340Y-97099730D01*
X52178325Y-96931371D01*
X52009966Y-96763012D01*
X51841607Y-96661997D01*
X51740592Y-96628325D01*
X51673248Y-96628325D01*
X51572233Y-96661997D01*
X51269187Y-97436447D02*
X51740592Y-97907852D01*
X51336530Y-97503790D02*
X51269187Y-97503790D01*
X51168172Y-97537462D01*
X51067156Y-97638478D01*
X51033484Y-97739493D01*
X51067156Y-97840508D01*
X51437546Y-98210898D01*
D14*
X53653147Y-97628376D02*
X53673351Y-97628376D01*
X53713756Y-97608172D01*
X53733959Y-97587970D01*
X53754162Y-97547564D01*
X53754162Y-97507157D01*
X53744061Y-97476854D01*
X53713756Y-97426346D01*
X53683452Y-97396041D01*
X53632944Y-97365737D01*
X53602639Y-97355634D01*
X53562233Y-97355635D01*
X53521827Y-97375838D01*
X53501624Y-97396040D01*
X53481421Y-97436447D01*
X53481421Y-97456650D01*
X53279390Y-97618274D02*
X53319797Y-97577868D01*
X53350101Y-97567767D01*
X53370304Y-97567767D01*
X53420812Y-97577869D01*
X53471320Y-97608173D01*
X53552131Y-97688985D01*
X53562233Y-97719290D01*
X53562234Y-97739493D01*
X53552131Y-97769797D01*
X53511725Y-97810203D01*
X53481421Y-97820305D01*
X53461218Y-97820305D01*
X53430913Y-97810203D01*
X53380406Y-97759696D01*
X53370304Y-97729391D01*
X53370304Y-97709188D01*
X53380405Y-97678884D01*
X53420812Y-97638478D01*
X53451117Y-97628376D01*
X53471319Y-97628376D01*
X53501624Y-97638478D01*
X53127868Y-97769797D02*
X53107665Y-97790000D01*
X53097563Y-97820304D01*
X53097563Y-97840508D01*
X53107665Y-97870812D01*
X53137970Y-97921320D01*
X53188478Y-97971828D01*
X53238984Y-98002132D01*
X53269289Y-98012234D01*
X53289493Y-98012234D01*
X53319797Y-98002132D01*
X53340000Y-97981929D01*
X53350102Y-97951625D01*
X53350102Y-97931421D01*
X53339999Y-97901117D01*
X53309696Y-97850610D01*
X53259188Y-97800102D01*
X53208680Y-97769797D01*
X53178376Y-97759696D01*
X53158172Y-97759696D01*
X53127868Y-97769797D01*
X52996548Y-97941523D02*
X52976345Y-97941523D01*
X52946040Y-97951624D01*
X52895532Y-98002132D01*
X52885431Y-98032437D01*
X52885431Y-98052640D01*
X52895533Y-98082944D01*
X52915737Y-98103147D01*
X52956142Y-98123351D01*
X53198579Y-98123350D01*
X53067259Y-98254670D01*
D13*
X64180744Y-95516827D02*
X64584805Y-95920889D01*
X64382775Y-95718858D02*
X65089882Y-95011752D01*
X65056210Y-95180110D01*
X65056210Y-95314797D01*
X65089882Y-95415812D01*
X64450118Y-94371988D02*
X64382774Y-94304644D01*
X64281759Y-94270972D01*
X64214416Y-94270972D01*
X64113401Y-94304644D01*
X63945042Y-94405659D01*
X63776683Y-94574019D01*
X63675668Y-94742377D01*
X63641996Y-94843392D01*
X63641996Y-94910736D01*
X63675668Y-95011751D01*
X63743012Y-95079095D01*
X63844027Y-95112767D01*
X63911370Y-95112767D01*
X64012385Y-95079095D01*
X64180744Y-94978080D01*
X64349103Y-94809721D01*
X64450118Y-94641362D01*
X64483790Y-94540347D01*
X64483790Y-94473003D01*
X64450118Y-94371988D01*
X63776683Y-93698553D02*
X63709339Y-93631209D01*
X63608324Y-93597537D01*
X63540981Y-93597537D01*
X63439966Y-93631209D01*
X63271607Y-93732224D01*
X63103248Y-93900584D01*
X63002233Y-94068942D01*
X62968561Y-94169957D01*
X62968561Y-94237301D01*
X63002233Y-94338316D01*
X63069577Y-94405660D01*
X63170592Y-94439332D01*
X63237935Y-94439332D01*
X63338950Y-94405660D01*
X63507309Y-94304645D01*
X63675668Y-94136286D01*
X63776683Y-93967927D01*
X63810355Y-93866912D01*
X63810355Y-93799568D01*
X63776683Y-93698553D01*
X63002233Y-93395507D02*
X62530828Y-93866912D01*
X62934890Y-93462850D02*
X62934890Y-93395507D01*
X62901218Y-93294492D01*
X62800202Y-93193476D01*
X62699187Y-93159804D01*
X62598172Y-93193476D01*
X62227782Y-93563866D01*
D14*
X64931624Y-93658147D02*
X64931624Y-93678351D01*
X64951828Y-93718756D01*
X64972030Y-93738959D01*
X65012436Y-93759162D01*
X65052843Y-93759162D01*
X65083146Y-93749061D01*
X65133654Y-93718756D01*
X65163959Y-93688452D01*
X65194263Y-93637944D01*
X65204366Y-93607639D01*
X65204365Y-93567233D01*
X65184162Y-93526827D01*
X65163960Y-93506624D01*
X65123553Y-93486421D01*
X65103350Y-93486421D01*
X64941726Y-93284390D02*
X64982132Y-93324797D01*
X64992233Y-93355101D01*
X64992233Y-93375304D01*
X64982131Y-93425812D01*
X64951827Y-93476320D01*
X64871015Y-93557131D01*
X64840710Y-93567233D01*
X64820507Y-93567234D01*
X64790203Y-93557131D01*
X64749797Y-93516725D01*
X64739695Y-93486421D01*
X64739695Y-93466218D01*
X64749797Y-93435913D01*
X64800304Y-93385406D01*
X64830609Y-93375304D01*
X64850812Y-93375304D01*
X64881116Y-93385405D01*
X64921522Y-93425812D01*
X64931624Y-93456117D01*
X64931624Y-93476319D01*
X64921522Y-93506624D01*
X64790203Y-93132868D02*
X64770000Y-93112665D01*
X64739696Y-93102563D01*
X64719492Y-93102563D01*
X64689188Y-93112665D01*
X64638680Y-93142970D01*
X64588172Y-93193478D01*
X64557868Y-93243984D01*
X64547766Y-93274289D01*
X64547766Y-93294493D01*
X64557868Y-93324797D01*
X64578071Y-93345000D01*
X64608375Y-93355102D01*
X64628579Y-93355102D01*
X64658883Y-93344999D01*
X64709390Y-93314696D01*
X64759898Y-93264188D01*
X64790203Y-93213680D01*
X64800304Y-93183376D01*
X64800304Y-93163172D01*
X64790203Y-93132868D01*
X64648782Y-92991447D02*
X64517462Y-92860127D01*
X64507361Y-93011650D01*
X64477056Y-92981345D01*
X64446751Y-92971244D01*
X64426548Y-92971243D01*
X64396244Y-92981346D01*
X64345737Y-93031853D01*
X64335634Y-93062157D01*
X64335634Y-93082361D01*
X64345736Y-93112665D01*
X64406346Y-93173274D01*
X64436649Y-93183376D01*
X64456853Y-93183376D01*
D13*
X52971827Y-41229256D02*
X53375889Y-40825195D01*
X53173858Y-41027225D02*
X52466752Y-40320118D01*
X52635110Y-40353790D01*
X52769797Y-40353790D01*
X52870812Y-40320118D01*
X51826988Y-40959882D02*
X51759644Y-41027226D01*
X51725972Y-41128241D01*
X51725972Y-41195584D01*
X51759644Y-41296599D01*
X51860659Y-41464958D01*
X52029019Y-41633317D01*
X52197377Y-41734332D01*
X52298392Y-41768004D01*
X52365736Y-41768004D01*
X52466751Y-41734332D01*
X52534095Y-41666988D01*
X52567767Y-41565973D01*
X52567767Y-41498630D01*
X52534095Y-41397615D01*
X52433080Y-41229256D01*
X52264721Y-41060897D01*
X52096362Y-40959882D01*
X51995347Y-40926210D01*
X51928003Y-40926210D01*
X51826988Y-40959882D01*
X51153553Y-41633317D02*
X51086209Y-41700661D01*
X51052537Y-41801676D01*
X51052537Y-41869019D01*
X51086209Y-41970034D01*
X51187224Y-42138393D01*
X51355584Y-42306752D01*
X51523942Y-42407767D01*
X51624957Y-42441439D01*
X51692301Y-42441439D01*
X51793316Y-42407767D01*
X51860660Y-42340423D01*
X51894332Y-42239408D01*
X51894332Y-42172065D01*
X51860660Y-42071050D01*
X51759645Y-41902691D01*
X51591286Y-41734332D01*
X51422927Y-41633317D01*
X51321912Y-41599645D01*
X51254568Y-41599645D01*
X51153553Y-41633317D01*
X50850507Y-42407767D02*
X51321912Y-42879172D01*
X50917850Y-42475110D02*
X50850507Y-42475110D01*
X50749492Y-42508782D01*
X50648476Y-42609798D01*
X50614804Y-42710813D01*
X50648476Y-42811828D01*
X51018866Y-43182218D01*
D14*
X51113147Y-40478376D02*
X51133351Y-40478376D01*
X51173756Y-40458172D01*
X51193959Y-40437970D01*
X51214162Y-40397564D01*
X51214162Y-40357157D01*
X51204061Y-40326854D01*
X51173756Y-40276346D01*
X51143452Y-40246041D01*
X51092944Y-40215737D01*
X51062639Y-40205634D01*
X51022233Y-40205635D01*
X50981827Y-40225838D01*
X50961624Y-40246040D01*
X50941421Y-40286447D01*
X50941421Y-40306650D01*
X51032335Y-40599594D02*
X50991929Y-40640000D01*
X50961624Y-40650102D01*
X50941421Y-40650102D01*
X50890913Y-40640001D01*
X50840406Y-40609696D01*
X50759594Y-40528883D01*
X50749492Y-40498579D01*
X50749492Y-40478376D01*
X50759593Y-40448071D01*
X50799999Y-40407665D01*
X50830304Y-40397563D01*
X50850507Y-40397564D01*
X50880812Y-40407665D01*
X50931320Y-40458173D01*
X50941421Y-40488478D01*
X50941421Y-40508680D01*
X50931320Y-40538986D01*
X50890913Y-40579392D01*
X50860609Y-40589493D01*
X50840405Y-40589493D01*
X50810102Y-40579391D01*
X50587868Y-40619797D02*
X50567665Y-40640000D01*
X50557563Y-40670304D01*
X50557563Y-40690508D01*
X50567665Y-40720812D01*
X50597970Y-40771320D01*
X50648478Y-40821828D01*
X50698984Y-40852132D01*
X50729289Y-40862234D01*
X50749493Y-40862234D01*
X50779797Y-40852132D01*
X50800000Y-40831929D01*
X50810102Y-40801625D01*
X50810102Y-40781421D01*
X50799999Y-40751117D01*
X50769696Y-40700610D01*
X50719188Y-40650102D01*
X50668680Y-40619797D01*
X50638376Y-40609696D01*
X50618172Y-40609696D01*
X50587868Y-40619797D01*
X50527259Y-41104670D02*
X50648477Y-40983452D01*
X50587868Y-41044061D02*
X50375736Y-40831929D01*
X50426243Y-40842030D01*
X50466650Y-40842030D01*
X50496955Y-40831929D01*
D13*
X74977381Y-63650953D02*
X74977381Y-63079524D01*
X74977381Y-63365238D02*
X73977381Y-63365238D01*
X74120238Y-63270000D01*
X74215476Y-63174762D01*
X74263095Y-63079524D01*
X73977381Y-64270000D02*
X73977381Y-64365239D01*
X74025000Y-64460477D01*
X74072619Y-64508096D01*
X74167857Y-64555715D01*
X74358333Y-64603334D01*
X74596429Y-64603334D01*
X74786905Y-64555715D01*
X74882143Y-64508096D01*
X74929762Y-64460477D01*
X74977381Y-64365239D01*
X74977381Y-64270000D01*
X74929762Y-64174762D01*
X74882143Y-64127143D01*
X74786905Y-64079524D01*
X74596429Y-64031905D01*
X74358333Y-64031905D01*
X74167857Y-64079524D01*
X74072619Y-64127143D01*
X74025000Y-64174762D01*
X73977381Y-64270000D01*
X73977381Y-65222381D02*
X73977381Y-65317620D01*
X74025000Y-65412858D01*
X74072619Y-65460477D01*
X74167857Y-65508096D01*
X74358333Y-65555715D01*
X74596429Y-65555715D01*
X74786905Y-65508096D01*
X74882143Y-65460477D01*
X74929762Y-65412858D01*
X74977381Y-65317620D01*
X74977381Y-65222381D01*
X74929762Y-65127143D01*
X74882143Y-65079524D01*
X74786905Y-65031905D01*
X74596429Y-64984286D01*
X74358333Y-64984286D01*
X74167857Y-65031905D01*
X74072619Y-65079524D01*
X74025000Y-65127143D01*
X73977381Y-65222381D01*
X74310714Y-65984286D02*
X74977381Y-65984286D01*
X74405952Y-65984286D02*
X74358333Y-66031905D01*
X74310714Y-66127143D01*
X74310714Y-66270001D01*
X74358333Y-66365239D01*
X74453571Y-66412858D01*
X74977381Y-66412858D01*
D14*
X73132143Y-64291429D02*
X73146429Y-64277143D01*
X73160714Y-64234286D01*
X73160714Y-64205715D01*
X73146429Y-64162858D01*
X73117857Y-64134286D01*
X73089286Y-64120001D01*
X73032143Y-64105715D01*
X72989286Y-64105715D01*
X72932143Y-64120001D01*
X72903571Y-64134286D01*
X72875000Y-64162858D01*
X72860714Y-64205715D01*
X72860714Y-64234286D01*
X72875000Y-64277143D01*
X72889286Y-64291429D01*
X73160714Y-64577143D02*
X73160714Y-64405715D01*
X73160714Y-64491429D02*
X72860714Y-64491429D01*
X72903571Y-64462858D01*
X72932143Y-64434286D01*
X72946429Y-64405715D01*
X72860714Y-64762857D02*
X72860714Y-64791429D01*
X72875000Y-64820000D01*
X72889286Y-64834286D01*
X72917857Y-64848572D01*
X72975000Y-64862857D01*
X73046429Y-64862857D01*
X73103571Y-64848572D01*
X73132143Y-64834286D01*
X73146429Y-64820000D01*
X73160714Y-64791429D01*
X73160714Y-64762857D01*
X73146429Y-64734286D01*
X73132143Y-64720000D01*
X73103571Y-64705715D01*
X73046429Y-64691429D01*
X72975000Y-64691429D01*
X72917857Y-64705715D01*
X72889286Y-64720000D01*
X72875000Y-64734286D01*
X72860714Y-64762857D01*
X72860714Y-65048571D02*
X72860714Y-65077143D01*
X72875000Y-65105714D01*
X72889286Y-65120000D01*
X72917857Y-65134286D01*
X72975000Y-65148571D01*
X73046429Y-65148571D01*
X73103571Y-65134286D01*
X73132143Y-65120000D01*
X73146429Y-65105714D01*
X73160714Y-65077143D01*
X73160714Y-65048571D01*
X73146429Y-65020000D01*
X73132143Y-65005714D01*
X73103571Y-64991429D01*
X73046429Y-64977143D01*
X72975000Y-64977143D01*
X72917857Y-64991429D01*
X72889286Y-65005714D01*
X72875000Y-65020000D01*
X72860714Y-65048571D01*
X73160714Y-65434285D02*
X73160714Y-65262857D01*
X73160714Y-65348571D02*
X72860714Y-65348571D01*
X72903571Y-65320000D01*
X72932143Y-65291428D01*
X72946429Y-65262857D01*
D13*
X64642857Y-178998571D02*
X64976191Y-178998571D01*
X64976191Y-179522381D02*
X64976191Y-178522381D01*
X64500000Y-178522381D01*
X63690476Y-178855714D02*
X63690476Y-179522381D01*
X64119048Y-178855714D02*
X64119048Y-179379524D01*
X64071429Y-179474762D01*
X63976191Y-179522381D01*
X63833333Y-179522381D01*
X63738095Y-179474762D01*
X63690476Y-179427143D01*
X63261905Y-179474762D02*
X63166667Y-179522381D01*
X62976191Y-179522381D01*
X62880952Y-179474762D01*
X62833333Y-179379524D01*
X62833333Y-179331905D01*
X62880952Y-179236667D01*
X62976191Y-179189048D01*
X63119048Y-179189048D01*
X63214286Y-179141429D01*
X63261905Y-179046190D01*
X63261905Y-178998571D01*
X63214286Y-178903333D01*
X63119048Y-178855714D01*
X62976191Y-178855714D01*
X62880952Y-178903333D01*
X62023809Y-179474762D02*
X62119047Y-179522381D01*
X62309524Y-179522381D01*
X62404762Y-179474762D01*
X62452381Y-179379524D01*
X62452381Y-178998571D01*
X62404762Y-178903333D01*
X62309524Y-178855714D01*
X62119047Y-178855714D01*
X62023809Y-178903333D01*
X61976190Y-178998571D01*
X61976190Y-179093810D01*
X62452381Y-179189048D01*
X45013571Y-173902858D02*
X45061190Y-174045715D01*
X45108810Y-174093334D01*
X45204048Y-174140953D01*
X45346905Y-174140953D01*
X45442143Y-174093334D01*
X45489762Y-174045715D01*
X45537381Y-173950477D01*
X45537381Y-173569524D01*
X44537381Y-173569524D01*
X44537381Y-173902858D01*
X44585000Y-173998096D01*
X44632619Y-174045715D01*
X44727857Y-174093334D01*
X44823095Y-174093334D01*
X44918333Y-174045715D01*
X44965952Y-173998096D01*
X45013571Y-173902858D01*
X45013571Y-173569524D01*
X45251667Y-174521905D02*
X45251667Y-174998096D01*
X45537381Y-174426667D02*
X44537381Y-174760000D01*
X45537381Y-175093334D01*
X44537381Y-175283810D02*
X44537381Y-175855239D01*
X45537381Y-175569524D02*
X44537381Y-175569524D01*
X45156429Y-176188572D02*
X45156429Y-176950477D01*
X45537381Y-176569525D02*
X44775476Y-176569525D01*
X45013571Y-163107858D02*
X45061190Y-163250715D01*
X45108810Y-163298334D01*
X45204048Y-163345953D01*
X45346905Y-163345953D01*
X45442143Y-163298334D01*
X45489762Y-163250715D01*
X45537381Y-163155477D01*
X45537381Y-162774524D01*
X44537381Y-162774524D01*
X44537381Y-163107858D01*
X44585000Y-163203096D01*
X44632619Y-163250715D01*
X44727857Y-163298334D01*
X44823095Y-163298334D01*
X44918333Y-163250715D01*
X44965952Y-163203096D01*
X45013571Y-163107858D01*
X45013571Y-162774524D01*
X45251667Y-163726905D02*
X45251667Y-164203096D01*
X45537381Y-163631667D02*
X44537381Y-163965000D01*
X45537381Y-164298334D01*
X44537381Y-164488810D02*
X44537381Y-165060239D01*
X45537381Y-164774524D02*
X44537381Y-164774524D01*
X45156429Y-165393572D02*
X45156429Y-166155477D01*
X80592381Y-147256667D02*
X80592381Y-147066190D01*
X80640000Y-146970952D01*
X80687619Y-146923333D01*
X80830476Y-146828095D01*
X81020952Y-146780476D01*
X81401905Y-146780476D01*
X81497143Y-146828095D01*
X81544762Y-146875714D01*
X81592381Y-146970952D01*
X81592381Y-147161429D01*
X81544762Y-147256667D01*
X81497143Y-147304286D01*
X81401905Y-147351905D01*
X81163810Y-147351905D01*
X81068571Y-147304286D01*
X81020952Y-147256667D01*
X80973333Y-147161429D01*
X80973333Y-146970952D01*
X81020952Y-146875714D01*
X81068571Y-146828095D01*
X81163810Y-146780476D01*
X81020952Y-147923333D02*
X80973333Y-147828095D01*
X80925714Y-147780476D01*
X80830476Y-147732857D01*
X80782857Y-147732857D01*
X80687619Y-147780476D01*
X80640000Y-147828095D01*
X80592381Y-147923333D01*
X80592381Y-148113810D01*
X80640000Y-148209048D01*
X80687619Y-148256667D01*
X80782857Y-148304286D01*
X80830476Y-148304286D01*
X80925714Y-148256667D01*
X80973333Y-148209048D01*
X81020952Y-148113810D01*
X81020952Y-147923333D01*
X81068571Y-147828095D01*
X81116190Y-147780476D01*
X81211429Y-147732857D01*
X81401905Y-147732857D01*
X81497143Y-147780476D01*
X81544762Y-147828095D01*
X81592381Y-147923333D01*
X81592381Y-148113810D01*
X81544762Y-148209048D01*
X81497143Y-148256667D01*
X81401905Y-148304286D01*
X81211429Y-148304286D01*
X81116190Y-148256667D01*
X81068571Y-148209048D01*
X81020952Y-148113810D01*
X80925714Y-148732857D02*
X81925714Y-148732857D01*
X81449524Y-149209048D02*
X81544762Y-149256667D01*
X81592381Y-149351905D01*
X81449524Y-148732857D02*
X81544762Y-148780476D01*
X81592381Y-148875714D01*
X81592381Y-149066191D01*
X81544762Y-149161429D01*
X81449524Y-149209048D01*
X80925714Y-149209048D01*
X81592381Y-149780476D02*
X80592381Y-149780476D01*
X81068571Y-149780476D02*
X81068571Y-150351905D01*
X81592381Y-150351905D02*
X80592381Y-150351905D01*
X82835476Y-179434762D02*
X82692619Y-179482381D01*
X82454523Y-179482381D01*
X82359285Y-179434762D01*
X82311666Y-179387143D01*
X82264047Y-179291905D01*
X82264047Y-179196667D01*
X82311666Y-179101429D01*
X82359285Y-179053810D01*
X82454523Y-179006190D01*
X82645000Y-178958571D01*
X82740238Y-178910952D01*
X82787857Y-178863333D01*
X82835476Y-178768095D01*
X82835476Y-178672857D01*
X82787857Y-178577619D01*
X82740238Y-178530000D01*
X82645000Y-178482381D01*
X82406904Y-178482381D01*
X82264047Y-178530000D01*
X81692619Y-178910952D02*
X81787857Y-178863333D01*
X81835476Y-178815714D01*
X81883095Y-178720476D01*
X81883095Y-178672857D01*
X81835476Y-178577619D01*
X81787857Y-178530000D01*
X81692619Y-178482381D01*
X81502142Y-178482381D01*
X81406904Y-178530000D01*
X81359285Y-178577619D01*
X81311666Y-178672857D01*
X81311666Y-178720476D01*
X81359285Y-178815714D01*
X81406904Y-178863333D01*
X81502142Y-178910952D01*
X81692619Y-178910952D01*
X81787857Y-178958571D01*
X81835476Y-179006190D01*
X81883095Y-179101429D01*
X81883095Y-179291905D01*
X81835476Y-179387143D01*
X81787857Y-179434762D01*
X81692619Y-179482381D01*
X81502142Y-179482381D01*
X81406904Y-179434762D01*
X81359285Y-179387143D01*
X81311666Y-179291905D01*
X81311666Y-179101429D01*
X81359285Y-179006190D01*
X81406904Y-178958571D01*
X81502142Y-178910952D01*
X80692619Y-178482381D02*
X80597380Y-178482381D01*
X80502142Y-178530000D01*
X80454523Y-178577619D01*
X80406904Y-178672857D01*
X80359285Y-178863333D01*
X80359285Y-179101429D01*
X80406904Y-179291905D01*
X80454523Y-179387143D01*
X80502142Y-179434762D01*
X80597380Y-179482381D01*
X80692619Y-179482381D01*
X80787857Y-179434762D01*
X80835476Y-179387143D01*
X80883095Y-179291905D01*
X80930714Y-179101429D01*
X80930714Y-178863333D01*
X80883095Y-178672857D01*
X80835476Y-178577619D01*
X80787857Y-178530000D01*
X80692619Y-178482381D01*
X79454523Y-178482381D02*
X79930714Y-178482381D01*
X79978333Y-178958571D01*
X79930714Y-178910952D01*
X79835476Y-178863333D01*
X79597380Y-178863333D01*
X79502142Y-178910952D01*
X79454523Y-178958571D01*
X79406904Y-179053810D01*
X79406904Y-179291905D01*
X79454523Y-179387143D01*
X79502142Y-179434762D01*
X79597380Y-179482381D01*
X79835476Y-179482381D01*
X79930714Y-179434762D01*
X79978333Y-179387143D01*
X78787857Y-178482381D02*
X78692618Y-178482381D01*
X78597380Y-178530000D01*
X78549761Y-178577619D01*
X78502142Y-178672857D01*
X78454523Y-178863333D01*
X78454523Y-179101429D01*
X78502142Y-179291905D01*
X78549761Y-179387143D01*
X78597380Y-179434762D01*
X78692618Y-179482381D01*
X78787857Y-179482381D01*
X78883095Y-179434762D01*
X78930714Y-179387143D01*
X78978333Y-179291905D01*
X79025952Y-179101429D01*
X79025952Y-178863333D01*
X78978333Y-178672857D01*
X78930714Y-178577619D01*
X78883095Y-178530000D01*
X78787857Y-178482381D01*
D14*
X80918810Y-176006191D02*
X80895000Y-175958572D01*
X80847381Y-175910953D01*
X80775952Y-175839524D01*
X80752143Y-175791905D01*
X80752143Y-175744286D01*
X80871190Y-175768096D02*
X80847381Y-175720477D01*
X80799762Y-175672858D01*
X80704524Y-175649048D01*
X80537857Y-175649048D01*
X80442619Y-175672858D01*
X80395000Y-175720477D01*
X80371190Y-175768096D01*
X80371190Y-175863334D01*
X80395000Y-175910953D01*
X80442619Y-175958572D01*
X80537857Y-175982381D01*
X80704524Y-175982381D01*
X80799762Y-175958572D01*
X80847381Y-175910953D01*
X80871190Y-175863334D01*
X80871190Y-175768096D01*
X80371190Y-176149049D02*
X80371190Y-176458572D01*
X80561667Y-176291906D01*
X80561667Y-176363334D01*
X80585476Y-176410953D01*
X80609286Y-176434763D01*
X80656905Y-176458572D01*
X80775952Y-176458572D01*
X80823571Y-176434763D01*
X80847381Y-176410953D01*
X80871190Y-176363334D01*
X80871190Y-176220477D01*
X80847381Y-176172858D01*
X80823571Y-176149049D01*
X80371190Y-176768096D02*
X80371190Y-176815715D01*
X80395000Y-176863334D01*
X80418810Y-176887143D01*
X80466429Y-176910953D01*
X80561667Y-176934762D01*
X80680714Y-176934762D01*
X80775952Y-176910953D01*
X80823571Y-176887143D01*
X80847381Y-176863334D01*
X80871190Y-176815715D01*
X80871190Y-176768096D01*
X80847381Y-176720477D01*
X80823571Y-176696667D01*
X80775952Y-176672858D01*
X80680714Y-176649048D01*
X80561667Y-176649048D01*
X80466429Y-176672858D01*
X80418810Y-176696667D01*
X80395000Y-176720477D01*
X80371190Y-176768096D01*
X80871190Y-177410952D02*
X80871190Y-177125238D01*
X80871190Y-177268095D02*
X80371190Y-177268095D01*
X80442619Y-177220476D01*
X80490238Y-177172857D01*
X80514048Y-177125238D01*
D13*
X81684762Y-168624524D02*
X81732381Y-168767381D01*
X81732381Y-169005477D01*
X81684762Y-169100715D01*
X81637143Y-169148334D01*
X81541905Y-169195953D01*
X81446667Y-169195953D01*
X81351429Y-169148334D01*
X81303810Y-169100715D01*
X81256190Y-169005477D01*
X81208571Y-168815000D01*
X81160952Y-168719762D01*
X81113333Y-168672143D01*
X81018095Y-168624524D01*
X80922857Y-168624524D01*
X80827619Y-168672143D01*
X80780000Y-168719762D01*
X80732381Y-168815000D01*
X80732381Y-169053096D01*
X80780000Y-169195953D01*
X81160952Y-169767381D02*
X81113333Y-169672143D01*
X81065714Y-169624524D01*
X80970476Y-169576905D01*
X80922857Y-169576905D01*
X80827619Y-169624524D01*
X80780000Y-169672143D01*
X80732381Y-169767381D01*
X80732381Y-169957858D01*
X80780000Y-170053096D01*
X80827619Y-170100715D01*
X80922857Y-170148334D01*
X80970476Y-170148334D01*
X81065714Y-170100715D01*
X81113333Y-170053096D01*
X81160952Y-169957858D01*
X81160952Y-169767381D01*
X81208571Y-169672143D01*
X81256190Y-169624524D01*
X81351429Y-169576905D01*
X81541905Y-169576905D01*
X81637143Y-169624524D01*
X81684762Y-169672143D01*
X81732381Y-169767381D01*
X81732381Y-169957858D01*
X81684762Y-170053096D01*
X81637143Y-170100715D01*
X81541905Y-170148334D01*
X81351429Y-170148334D01*
X81256190Y-170100715D01*
X81208571Y-170053096D01*
X81160952Y-169957858D01*
X80732381Y-170767381D02*
X80732381Y-170862620D01*
X80780000Y-170957858D01*
X80827619Y-171005477D01*
X80922857Y-171053096D01*
X81113333Y-171100715D01*
X81351429Y-171100715D01*
X81541905Y-171053096D01*
X81637143Y-171005477D01*
X81684762Y-170957858D01*
X81732381Y-170862620D01*
X81732381Y-170767381D01*
X81684762Y-170672143D01*
X81637143Y-170624524D01*
X81541905Y-170576905D01*
X81351429Y-170529286D01*
X81113333Y-170529286D01*
X80922857Y-170576905D01*
X80827619Y-170624524D01*
X80780000Y-170672143D01*
X80732381Y-170767381D01*
X80732381Y-172005477D02*
X80732381Y-171529286D01*
X81208571Y-171481667D01*
X81160952Y-171529286D01*
X81113333Y-171624524D01*
X81113333Y-171862620D01*
X81160952Y-171957858D01*
X81208571Y-172005477D01*
X81303810Y-172053096D01*
X81541905Y-172053096D01*
X81637143Y-172005477D01*
X81684762Y-171957858D01*
X81732381Y-171862620D01*
X81732381Y-171624524D01*
X81684762Y-171529286D01*
X81637143Y-171481667D01*
X80732381Y-172672143D02*
X80732381Y-172767382D01*
X80780000Y-172862620D01*
X80827619Y-172910239D01*
X80922857Y-172957858D01*
X81113333Y-173005477D01*
X81351429Y-173005477D01*
X81541905Y-172957858D01*
X81637143Y-172910239D01*
X81684762Y-172862620D01*
X81732381Y-172767382D01*
X81732381Y-172672143D01*
X81684762Y-172576905D01*
X81637143Y-172529286D01*
X81541905Y-172481667D01*
X81351429Y-172434048D01*
X81113333Y-172434048D01*
X80922857Y-172481667D01*
X80827619Y-172529286D01*
X80780000Y-172576905D01*
X80732381Y-172672143D01*
D14*
X79263809Y-171088810D02*
X79311428Y-171065000D01*
X79359047Y-171017381D01*
X79430476Y-170945952D01*
X79478095Y-170922143D01*
X79525714Y-170922143D01*
X79501904Y-171041190D02*
X79549523Y-171017381D01*
X79597142Y-170969762D01*
X79620952Y-170874524D01*
X79620952Y-170707857D01*
X79597142Y-170612619D01*
X79549523Y-170565000D01*
X79501904Y-170541190D01*
X79406666Y-170541190D01*
X79359047Y-170565000D01*
X79311428Y-170612619D01*
X79287619Y-170707857D01*
X79287619Y-170874524D01*
X79311428Y-170969762D01*
X79359047Y-171017381D01*
X79406666Y-171041190D01*
X79501904Y-171041190D01*
X79120951Y-170541190D02*
X78811428Y-170541190D01*
X78978094Y-170731667D01*
X78906666Y-170731667D01*
X78859047Y-170755476D01*
X78835237Y-170779286D01*
X78811428Y-170826905D01*
X78811428Y-170945952D01*
X78835237Y-170993571D01*
X78859047Y-171017381D01*
X78906666Y-171041190D01*
X79049523Y-171041190D01*
X79097142Y-171017381D01*
X79120951Y-170993571D01*
X78501904Y-170541190D02*
X78454285Y-170541190D01*
X78406666Y-170565000D01*
X78382857Y-170588810D01*
X78359047Y-170636429D01*
X78335238Y-170731667D01*
X78335238Y-170850714D01*
X78359047Y-170945952D01*
X78382857Y-170993571D01*
X78406666Y-171017381D01*
X78454285Y-171041190D01*
X78501904Y-171041190D01*
X78549523Y-171017381D01*
X78573333Y-170993571D01*
X78597142Y-170945952D01*
X78620952Y-170850714D01*
X78620952Y-170731667D01*
X78597142Y-170636429D01*
X78573333Y-170588810D01*
X78549523Y-170565000D01*
X78501904Y-170541190D01*
X78144762Y-170588810D02*
X78120952Y-170565000D01*
X78073333Y-170541190D01*
X77954286Y-170541190D01*
X77906667Y-170565000D01*
X77882857Y-170588810D01*
X77859048Y-170636429D01*
X77859048Y-170684048D01*
X77882857Y-170755476D01*
X78168571Y-171041190D01*
X77859048Y-171041190D01*
D13*
X66428810Y-126452381D02*
X66333571Y-126452381D01*
X66238333Y-126500000D01*
X66190714Y-126547619D01*
X66143095Y-126642857D01*
X66095476Y-126833333D01*
X66095476Y-127071429D01*
X66143095Y-127261905D01*
X66190714Y-127357143D01*
X66238333Y-127404762D01*
X66333571Y-127452381D01*
X66428810Y-127452381D01*
X66524048Y-127404762D01*
X66571667Y-127357143D01*
X66619286Y-127261905D01*
X66666905Y-127071429D01*
X66666905Y-126833333D01*
X66619286Y-126642857D01*
X66571667Y-126547619D01*
X66524048Y-126500000D01*
X66428810Y-126452381D01*
X65095476Y-127452381D02*
X65428810Y-126976190D01*
X65666905Y-127452381D02*
X65666905Y-126452381D01*
X65285952Y-126452381D01*
X65190714Y-126500000D01*
X65143095Y-126547619D01*
X65095476Y-126642857D01*
X65095476Y-126785714D01*
X65143095Y-126880952D01*
X65190714Y-126928571D01*
X65285952Y-126976190D01*
X65666905Y-126976190D01*
X64190714Y-126452381D02*
X64666905Y-126452381D01*
X64714524Y-126928571D01*
X64666905Y-126880952D01*
X64571667Y-126833333D01*
X64333571Y-126833333D01*
X64238333Y-126880952D01*
X64190714Y-126928571D01*
X64143095Y-127023810D01*
X64143095Y-127261905D01*
X64190714Y-127357143D01*
X64238333Y-127404762D01*
X64333571Y-127452381D01*
X64571667Y-127452381D01*
X64666905Y-127404762D01*
X64714524Y-127357143D01*
D14*
X69662618Y-127180952D02*
X69795952Y-126990476D01*
X69891190Y-127180952D02*
X69891190Y-126780952D01*
X69738809Y-126780952D01*
X69700714Y-126800000D01*
X69681666Y-126819048D01*
X69662618Y-126857143D01*
X69662618Y-126914286D01*
X69681666Y-126952381D01*
X69700714Y-126971429D01*
X69738809Y-126990476D01*
X69891190Y-126990476D01*
X69510238Y-126819048D02*
X69491190Y-126800000D01*
X69453095Y-126780952D01*
X69357857Y-126780952D01*
X69319761Y-126800000D01*
X69300714Y-126819048D01*
X69281666Y-126857143D01*
X69281666Y-126895238D01*
X69300714Y-126952381D01*
X69529285Y-127180952D01*
X69281666Y-127180952D01*
X69034047Y-126780952D02*
X68995952Y-126780952D01*
X68957857Y-126800000D01*
X68938809Y-126819048D01*
X68919762Y-126857143D01*
X68900714Y-126933333D01*
X68900714Y-127028571D01*
X68919762Y-127104762D01*
X68938809Y-127142857D01*
X68957857Y-127161905D01*
X68995952Y-127180952D01*
X69034047Y-127180952D01*
X69072143Y-127161905D01*
X69091190Y-127142857D01*
X69110238Y-127104762D01*
X69129286Y-127028571D01*
X69129286Y-126933333D01*
X69110238Y-126857143D01*
X69091190Y-126819048D01*
X69072143Y-126800000D01*
X69034047Y-126780952D01*
X68519762Y-127180952D02*
X68748334Y-127180952D01*
X68634048Y-127180952D02*
X68634048Y-126780952D01*
X68672143Y-126838095D01*
X68710238Y-126876190D01*
X68748334Y-126895238D01*
D13*
X66428810Y-123912381D02*
X66333571Y-123912381D01*
X66238333Y-123960000D01*
X66190714Y-124007619D01*
X66143095Y-124102857D01*
X66095476Y-124293333D01*
X66095476Y-124531429D01*
X66143095Y-124721905D01*
X66190714Y-124817143D01*
X66238333Y-124864762D01*
X66333571Y-124912381D01*
X66428810Y-124912381D01*
X66524048Y-124864762D01*
X66571667Y-124817143D01*
X66619286Y-124721905D01*
X66666905Y-124531429D01*
X66666905Y-124293333D01*
X66619286Y-124102857D01*
X66571667Y-124007619D01*
X66524048Y-123960000D01*
X66428810Y-123912381D01*
X65095476Y-124912381D02*
X65428810Y-124436190D01*
X65666905Y-124912381D02*
X65666905Y-123912381D01*
X65285952Y-123912381D01*
X65190714Y-123960000D01*
X65143095Y-124007619D01*
X65095476Y-124102857D01*
X65095476Y-124245714D01*
X65143095Y-124340952D01*
X65190714Y-124388571D01*
X65285952Y-124436190D01*
X65666905Y-124436190D01*
X64190714Y-123912381D02*
X64666905Y-123912381D01*
X64714524Y-124388571D01*
X64666905Y-124340952D01*
X64571667Y-124293333D01*
X64333571Y-124293333D01*
X64238333Y-124340952D01*
X64190714Y-124388571D01*
X64143095Y-124483810D01*
X64143095Y-124721905D01*
X64190714Y-124817143D01*
X64238333Y-124864762D01*
X64333571Y-124912381D01*
X64571667Y-124912381D01*
X64666905Y-124864762D01*
X64714524Y-124817143D01*
D14*
X69662618Y-124640952D02*
X69795952Y-124450476D01*
X69891190Y-124640952D02*
X69891190Y-124240952D01*
X69738809Y-124240952D01*
X69700714Y-124260000D01*
X69681666Y-124279048D01*
X69662618Y-124317143D01*
X69662618Y-124374286D01*
X69681666Y-124412381D01*
X69700714Y-124431429D01*
X69738809Y-124450476D01*
X69891190Y-124450476D01*
X69510238Y-124279048D02*
X69491190Y-124260000D01*
X69453095Y-124240952D01*
X69357857Y-124240952D01*
X69319761Y-124260000D01*
X69300714Y-124279048D01*
X69281666Y-124317143D01*
X69281666Y-124355238D01*
X69300714Y-124412381D01*
X69529285Y-124640952D01*
X69281666Y-124640952D01*
X69034047Y-124240952D02*
X68995952Y-124240952D01*
X68957857Y-124260000D01*
X68938809Y-124279048D01*
X68919762Y-124317143D01*
X68900714Y-124393333D01*
X68900714Y-124488571D01*
X68919762Y-124564762D01*
X68938809Y-124602857D01*
X68957857Y-124621905D01*
X68995952Y-124640952D01*
X69034047Y-124640952D01*
X69072143Y-124621905D01*
X69091190Y-124602857D01*
X69110238Y-124564762D01*
X69129286Y-124488571D01*
X69129286Y-124393333D01*
X69110238Y-124317143D01*
X69091190Y-124279048D01*
X69072143Y-124260000D01*
X69034047Y-124240952D01*
X68748334Y-124279048D02*
X68729286Y-124260000D01*
X68691191Y-124240952D01*
X68595953Y-124240952D01*
X68557857Y-124260000D01*
X68538810Y-124279048D01*
X68519762Y-124317143D01*
X68519762Y-124355238D01*
X68538810Y-124412381D01*
X68767381Y-124640952D01*
X68519762Y-124640952D01*
D13*
X72487381Y-145518334D02*
X72487381Y-144946905D01*
X72487381Y-145232619D02*
X71487381Y-145232619D01*
X71630238Y-145137381D01*
X71725476Y-145042143D01*
X71773095Y-144946905D01*
X71915952Y-146089762D02*
X71868333Y-145994524D01*
X71820714Y-145946905D01*
X71725476Y-145899286D01*
X71677857Y-145899286D01*
X71582619Y-145946905D01*
X71535000Y-145994524D01*
X71487381Y-146089762D01*
X71487381Y-146280239D01*
X71535000Y-146375477D01*
X71582619Y-146423096D01*
X71677857Y-146470715D01*
X71725476Y-146470715D01*
X71820714Y-146423096D01*
X71868333Y-146375477D01*
X71915952Y-146280239D01*
X71915952Y-146089762D01*
X71963571Y-145994524D01*
X72011190Y-145946905D01*
X72106429Y-145899286D01*
X72296905Y-145899286D01*
X72392143Y-145946905D01*
X72439762Y-145994524D01*
X72487381Y-146089762D01*
X72487381Y-146280239D01*
X72439762Y-146375477D01*
X72392143Y-146423096D01*
X72296905Y-146470715D01*
X72106429Y-146470715D01*
X72011190Y-146423096D01*
X71963571Y-146375477D01*
X71915952Y-146280239D01*
X71487381Y-147089762D02*
X71487381Y-147185001D01*
X71535000Y-147280239D01*
X71582619Y-147327858D01*
X71677857Y-147375477D01*
X71868333Y-147423096D01*
X72106429Y-147423096D01*
X72296905Y-147375477D01*
X72392143Y-147327858D01*
X72439762Y-147280239D01*
X72487381Y-147185001D01*
X72487381Y-147089762D01*
X72439762Y-146994524D01*
X72392143Y-146946905D01*
X72296905Y-146899286D01*
X72106429Y-146851667D01*
X71868333Y-146851667D01*
X71677857Y-146899286D01*
X71582619Y-146946905D01*
X71535000Y-146994524D01*
X71487381Y-147089762D01*
X72487381Y-148423096D02*
X72011190Y-148089762D01*
X72487381Y-147851667D02*
X71487381Y-147851667D01*
X71487381Y-148232620D01*
X71535000Y-148327858D01*
X71582619Y-148375477D01*
X71677857Y-148423096D01*
X71820714Y-148423096D01*
X71915952Y-148375477D01*
X71963571Y-148327858D01*
X72011190Y-148232620D01*
X72011190Y-147851667D01*
D14*
X70665952Y-146237382D02*
X70475476Y-146104048D01*
X70665952Y-146008810D02*
X70265952Y-146008810D01*
X70265952Y-146161191D01*
X70285000Y-146199286D01*
X70304048Y-146218334D01*
X70342143Y-146237382D01*
X70399286Y-146237382D01*
X70437381Y-146218334D01*
X70456429Y-146199286D01*
X70475476Y-146161191D01*
X70475476Y-146008810D01*
X70304048Y-146389762D02*
X70285000Y-146408810D01*
X70265952Y-146446905D01*
X70265952Y-146542143D01*
X70285000Y-146580239D01*
X70304048Y-146599286D01*
X70342143Y-146618334D01*
X70380238Y-146618334D01*
X70437381Y-146599286D01*
X70665952Y-146370715D01*
X70665952Y-146618334D01*
X70265952Y-146865953D02*
X70265952Y-146904048D01*
X70285000Y-146942143D01*
X70304048Y-146961191D01*
X70342143Y-146980238D01*
X70418333Y-146999286D01*
X70513571Y-146999286D01*
X70589762Y-146980238D01*
X70627857Y-146961191D01*
X70646905Y-146942143D01*
X70665952Y-146904048D01*
X70665952Y-146865953D01*
X70646905Y-146827857D01*
X70627857Y-146808810D01*
X70589762Y-146789762D01*
X70513571Y-146770714D01*
X70418333Y-146770714D01*
X70342143Y-146789762D01*
X70304048Y-146808810D01*
X70285000Y-146827857D01*
X70265952Y-146865953D01*
X70265952Y-147132619D02*
X70265952Y-147380238D01*
X70418333Y-147246905D01*
X70418333Y-147304047D01*
X70437381Y-147342143D01*
X70456429Y-147361190D01*
X70494524Y-147380238D01*
X70589762Y-147380238D01*
X70627857Y-147361190D01*
X70646905Y-147342143D01*
X70665952Y-147304047D01*
X70665952Y-147189762D01*
X70646905Y-147151666D01*
X70627857Y-147132619D01*
D13*
X64714286Y-143597381D02*
X64095238Y-143597381D01*
X64428572Y-143978333D01*
X64285714Y-143978333D01*
X64190476Y-144025952D01*
X64142857Y-144073571D01*
X64095238Y-144168810D01*
X64095238Y-144406905D01*
X64142857Y-144502143D01*
X64190476Y-144549762D01*
X64285714Y-144597381D01*
X64571429Y-144597381D01*
X64666667Y-144549762D01*
X64714286Y-144502143D01*
X63666667Y-144597381D02*
X63666667Y-143597381D01*
X63571429Y-144216429D02*
X63285714Y-144597381D01*
X63285714Y-143930714D02*
X63666667Y-144311667D01*
X62809524Y-144597381D02*
X62619048Y-144597381D01*
X62523809Y-144549762D01*
X62476190Y-144502143D01*
X62380952Y-144359286D01*
X62333333Y-144168810D01*
X62333333Y-143787857D01*
X62380952Y-143692619D01*
X62428571Y-143645000D01*
X62523809Y-143597381D01*
X62714286Y-143597381D01*
X62809524Y-143645000D01*
X62857143Y-143692619D01*
X62904762Y-143787857D01*
X62904762Y-144025952D01*
X62857143Y-144121190D01*
X62809524Y-144168810D01*
X62714286Y-144216429D01*
X62523809Y-144216429D01*
X62428571Y-144168810D01*
X62380952Y-144121190D01*
X62333333Y-144025952D01*
D14*
X67757618Y-144325952D02*
X67890952Y-144135476D01*
X67986190Y-144325952D02*
X67986190Y-143925952D01*
X67833809Y-143925952D01*
X67795714Y-143945000D01*
X67776666Y-143964048D01*
X67757618Y-144002143D01*
X67757618Y-144059286D01*
X67776666Y-144097381D01*
X67795714Y-144116429D01*
X67833809Y-144135476D01*
X67986190Y-144135476D01*
X67605238Y-143964048D02*
X67586190Y-143945000D01*
X67548095Y-143925952D01*
X67452857Y-143925952D01*
X67414761Y-143945000D01*
X67395714Y-143964048D01*
X67376666Y-144002143D01*
X67376666Y-144040238D01*
X67395714Y-144097381D01*
X67624285Y-144325952D01*
X67376666Y-144325952D01*
X67129047Y-143925952D02*
X67090952Y-143925952D01*
X67052857Y-143945000D01*
X67033809Y-143964048D01*
X67014762Y-144002143D01*
X66995714Y-144078333D01*
X66995714Y-144173571D01*
X67014762Y-144249762D01*
X67033809Y-144287857D01*
X67052857Y-144306905D01*
X67090952Y-144325952D01*
X67129047Y-144325952D01*
X67167143Y-144306905D01*
X67186190Y-144287857D01*
X67205238Y-144249762D01*
X67224286Y-144173571D01*
X67224286Y-144078333D01*
X67205238Y-144002143D01*
X67186190Y-143964048D01*
X67167143Y-143945000D01*
X67129047Y-143925952D01*
X66652857Y-144059286D02*
X66652857Y-144325952D01*
X66748095Y-143906905D02*
X66843334Y-144192619D01*
X66595714Y-144192619D01*
D13*
X64095238Y-146502381D02*
X64666667Y-146502381D01*
X64380953Y-146502381D02*
X64380953Y-145502381D01*
X64476191Y-145645238D01*
X64571429Y-145740476D01*
X64666667Y-145788095D01*
X63714286Y-145597619D02*
X63666667Y-145550000D01*
X63571429Y-145502381D01*
X63333333Y-145502381D01*
X63238095Y-145550000D01*
X63190476Y-145597619D01*
X63142857Y-145692857D01*
X63142857Y-145788095D01*
X63190476Y-145930952D01*
X63761905Y-146502381D01*
X63142857Y-146502381D01*
X62714286Y-146502381D02*
X62714286Y-145502381D01*
X62619048Y-146121429D02*
X62333333Y-146502381D01*
X62333333Y-145835714D02*
X62714286Y-146216667D01*
D14*
X67757618Y-146230952D02*
X67890952Y-146040476D01*
X67986190Y-146230952D02*
X67986190Y-145830952D01*
X67833809Y-145830952D01*
X67795714Y-145850000D01*
X67776666Y-145869048D01*
X67757618Y-145907143D01*
X67757618Y-145964286D01*
X67776666Y-146002381D01*
X67795714Y-146021429D01*
X67833809Y-146040476D01*
X67986190Y-146040476D01*
X67605238Y-145869048D02*
X67586190Y-145850000D01*
X67548095Y-145830952D01*
X67452857Y-145830952D01*
X67414761Y-145850000D01*
X67395714Y-145869048D01*
X67376666Y-145907143D01*
X67376666Y-145945238D01*
X67395714Y-146002381D01*
X67624285Y-146230952D01*
X67376666Y-146230952D01*
X67129047Y-145830952D02*
X67090952Y-145830952D01*
X67052857Y-145850000D01*
X67033809Y-145869048D01*
X67014762Y-145907143D01*
X66995714Y-145983333D01*
X66995714Y-146078571D01*
X67014762Y-146154762D01*
X67033809Y-146192857D01*
X67052857Y-146211905D01*
X67090952Y-146230952D01*
X67129047Y-146230952D01*
X67167143Y-146211905D01*
X67186190Y-146192857D01*
X67205238Y-146154762D01*
X67224286Y-146078571D01*
X67224286Y-145983333D01*
X67205238Y-145907143D01*
X67186190Y-145869048D01*
X67167143Y-145850000D01*
X67129047Y-145830952D01*
X66633810Y-145830952D02*
X66824286Y-145830952D01*
X66843334Y-146021429D01*
X66824286Y-146002381D01*
X66786191Y-145983333D01*
X66690953Y-145983333D01*
X66652857Y-146002381D01*
X66633810Y-146021429D01*
X66614762Y-146059524D01*
X66614762Y-146154762D01*
X66633810Y-146192857D01*
X66652857Y-146211905D01*
X66690953Y-146230952D01*
X66786191Y-146230952D01*
X66824286Y-146211905D01*
X66843334Y-146192857D01*
D13*
X71715238Y-180792381D02*
X72286667Y-180792381D01*
X72000953Y-180792381D02*
X72000953Y-179792381D01*
X72096191Y-179935238D01*
X72191429Y-180030476D01*
X72286667Y-180078095D01*
X71334286Y-179887619D02*
X71286667Y-179840000D01*
X71191429Y-179792381D01*
X70953333Y-179792381D01*
X70858095Y-179840000D01*
X70810476Y-179887619D01*
X70762857Y-179982857D01*
X70762857Y-180078095D01*
X70810476Y-180220952D01*
X71381905Y-180792381D01*
X70762857Y-180792381D01*
X70334286Y-180792381D02*
X70334286Y-179792381D01*
X70239048Y-180411429D02*
X69953333Y-180792381D01*
X69953333Y-180125714D02*
X70334286Y-180506667D01*
D14*
X71567618Y-179250952D02*
X71700952Y-179060476D01*
X71796190Y-179250952D02*
X71796190Y-178850952D01*
X71643809Y-178850952D01*
X71605714Y-178870000D01*
X71586666Y-178889048D01*
X71567618Y-178927143D01*
X71567618Y-178984286D01*
X71586666Y-179022381D01*
X71605714Y-179041429D01*
X71643809Y-179060476D01*
X71796190Y-179060476D01*
X71434285Y-178850952D02*
X71186666Y-178850952D01*
X71319999Y-179003333D01*
X71262857Y-179003333D01*
X71224761Y-179022381D01*
X71205714Y-179041429D01*
X71186666Y-179079524D01*
X71186666Y-179174762D01*
X71205714Y-179212857D01*
X71224761Y-179231905D01*
X71262857Y-179250952D01*
X71377142Y-179250952D01*
X71415238Y-179231905D01*
X71434285Y-179212857D01*
X70939047Y-178850952D02*
X70900952Y-178850952D01*
X70862857Y-178870000D01*
X70843809Y-178889048D01*
X70824762Y-178927143D01*
X70805714Y-179003333D01*
X70805714Y-179098571D01*
X70824762Y-179174762D01*
X70843809Y-179212857D01*
X70862857Y-179231905D01*
X70900952Y-179250952D01*
X70939047Y-179250952D01*
X70977143Y-179231905D01*
X70996190Y-179212857D01*
X71015238Y-179174762D01*
X71034286Y-179098571D01*
X71034286Y-179003333D01*
X71015238Y-178927143D01*
X70996190Y-178889048D01*
X70977143Y-178870000D01*
X70939047Y-178850952D01*
X70424762Y-179250952D02*
X70653334Y-179250952D01*
X70539048Y-179250952D02*
X70539048Y-178850952D01*
X70577143Y-178908095D01*
X70615238Y-178946190D01*
X70653334Y-178965238D01*
D13*
X71715238Y-178252381D02*
X72286667Y-178252381D01*
X72000953Y-178252381D02*
X72000953Y-177252381D01*
X72096191Y-177395238D01*
X72191429Y-177490476D01*
X72286667Y-177538095D01*
X71334286Y-177347619D02*
X71286667Y-177300000D01*
X71191429Y-177252381D01*
X70953333Y-177252381D01*
X70858095Y-177300000D01*
X70810476Y-177347619D01*
X70762857Y-177442857D01*
X70762857Y-177538095D01*
X70810476Y-177680952D01*
X71381905Y-178252381D01*
X70762857Y-178252381D01*
X70334286Y-178252381D02*
X70334286Y-177252381D01*
X70239048Y-177871429D02*
X69953333Y-178252381D01*
X69953333Y-177585714D02*
X70334286Y-177966667D01*
D14*
X71567618Y-176710952D02*
X71700952Y-176520476D01*
X71796190Y-176710952D02*
X71796190Y-176310952D01*
X71643809Y-176310952D01*
X71605714Y-176330000D01*
X71586666Y-176349048D01*
X71567618Y-176387143D01*
X71567618Y-176444286D01*
X71586666Y-176482381D01*
X71605714Y-176501429D01*
X71643809Y-176520476D01*
X71796190Y-176520476D01*
X71434285Y-176310952D02*
X71186666Y-176310952D01*
X71319999Y-176463333D01*
X71262857Y-176463333D01*
X71224761Y-176482381D01*
X71205714Y-176501429D01*
X71186666Y-176539524D01*
X71186666Y-176634762D01*
X71205714Y-176672857D01*
X71224761Y-176691905D01*
X71262857Y-176710952D01*
X71377142Y-176710952D01*
X71415238Y-176691905D01*
X71434285Y-176672857D01*
X70939047Y-176310952D02*
X70900952Y-176310952D01*
X70862857Y-176330000D01*
X70843809Y-176349048D01*
X70824762Y-176387143D01*
X70805714Y-176463333D01*
X70805714Y-176558571D01*
X70824762Y-176634762D01*
X70843809Y-176672857D01*
X70862857Y-176691905D01*
X70900952Y-176710952D01*
X70939047Y-176710952D01*
X70977143Y-176691905D01*
X70996190Y-176672857D01*
X71015238Y-176634762D01*
X71034286Y-176558571D01*
X71034286Y-176463333D01*
X71015238Y-176387143D01*
X70996190Y-176349048D01*
X70977143Y-176330000D01*
X70939047Y-176310952D01*
X70653334Y-176349048D02*
X70634286Y-176330000D01*
X70596191Y-176310952D01*
X70500953Y-176310952D01*
X70462857Y-176330000D01*
X70443810Y-176349048D01*
X70424762Y-176387143D01*
X70424762Y-176425238D01*
X70443810Y-176482381D01*
X70672381Y-176710952D01*
X70424762Y-176710952D01*
D13*
X55633810Y-156652381D02*
X55538571Y-156652381D01*
X55443333Y-156700000D01*
X55395714Y-156747619D01*
X55348095Y-156842857D01*
X55300476Y-157033333D01*
X55300476Y-157271429D01*
X55348095Y-157461905D01*
X55395714Y-157557143D01*
X55443333Y-157604762D01*
X55538571Y-157652381D01*
X55633810Y-157652381D01*
X55729048Y-157604762D01*
X55776667Y-157557143D01*
X55824286Y-157461905D01*
X55871905Y-157271429D01*
X55871905Y-157033333D01*
X55824286Y-156842857D01*
X55776667Y-156747619D01*
X55729048Y-156700000D01*
X55633810Y-156652381D01*
X54300476Y-157652381D02*
X54633810Y-157176190D01*
X54871905Y-157652381D02*
X54871905Y-156652381D01*
X54490952Y-156652381D01*
X54395714Y-156700000D01*
X54348095Y-156747619D01*
X54300476Y-156842857D01*
X54300476Y-156985714D01*
X54348095Y-157080952D01*
X54395714Y-157128571D01*
X54490952Y-157176190D01*
X54871905Y-157176190D01*
X53681429Y-156652381D02*
X53586190Y-156652381D01*
X53490952Y-156700000D01*
X53443333Y-156747619D01*
X53395714Y-156842857D01*
X53348095Y-157033333D01*
X53348095Y-157271429D01*
X53395714Y-157461905D01*
X53443333Y-157557143D01*
X53490952Y-157604762D01*
X53586190Y-157652381D01*
X53681429Y-157652381D01*
X53776667Y-157604762D01*
X53824286Y-157557143D01*
X53871905Y-157461905D01*
X53919524Y-157271429D01*
X53919524Y-157033333D01*
X53871905Y-156842857D01*
X53824286Y-156747619D01*
X53776667Y-156700000D01*
X53681429Y-156652381D01*
D14*
X55057618Y-158930952D02*
X55190952Y-158740476D01*
X55286190Y-158930952D02*
X55286190Y-158530952D01*
X55133809Y-158530952D01*
X55095714Y-158550000D01*
X55076666Y-158569048D01*
X55057618Y-158607143D01*
X55057618Y-158664286D01*
X55076666Y-158702381D01*
X55095714Y-158721429D01*
X55133809Y-158740476D01*
X55286190Y-158740476D01*
X54924285Y-158530952D02*
X54676666Y-158530952D01*
X54809999Y-158683333D01*
X54752857Y-158683333D01*
X54714761Y-158702381D01*
X54695714Y-158721429D01*
X54676666Y-158759524D01*
X54676666Y-158854762D01*
X54695714Y-158892857D01*
X54714761Y-158911905D01*
X54752857Y-158930952D01*
X54867142Y-158930952D01*
X54905238Y-158911905D01*
X54924285Y-158892857D01*
X54429047Y-158530952D02*
X54390952Y-158530952D01*
X54352857Y-158550000D01*
X54333809Y-158569048D01*
X54314762Y-158607143D01*
X54295714Y-158683333D01*
X54295714Y-158778571D01*
X54314762Y-158854762D01*
X54333809Y-158892857D01*
X54352857Y-158911905D01*
X54390952Y-158930952D01*
X54429047Y-158930952D01*
X54467143Y-158911905D01*
X54486190Y-158892857D01*
X54505238Y-158854762D01*
X54524286Y-158778571D01*
X54524286Y-158683333D01*
X54505238Y-158607143D01*
X54486190Y-158569048D01*
X54467143Y-158550000D01*
X54429047Y-158530952D01*
X54162381Y-158530952D02*
X53914762Y-158530952D01*
X54048095Y-158683333D01*
X53990953Y-158683333D01*
X53952857Y-158702381D01*
X53933810Y-158721429D01*
X53914762Y-158759524D01*
X53914762Y-158854762D01*
X53933810Y-158892857D01*
X53952857Y-158911905D01*
X53990953Y-158930952D01*
X54105238Y-158930952D01*
X54143334Y-158911905D01*
X54162381Y-158892857D01*
D13*
X80446428Y-131262381D02*
X81017857Y-131262381D01*
X80732143Y-131262381D02*
X80732143Y-130262381D01*
X80827381Y-130405238D01*
X80922619Y-130500476D01*
X81017857Y-130548095D01*
X79827381Y-130262381D02*
X79732142Y-130262381D01*
X79636904Y-130310000D01*
X79589285Y-130357619D01*
X79541666Y-130452857D01*
X79494047Y-130643333D01*
X79494047Y-130881429D01*
X79541666Y-131071905D01*
X79589285Y-131167143D01*
X79636904Y-131214762D01*
X79732142Y-131262381D01*
X79827381Y-131262381D01*
X79922619Y-131214762D01*
X79970238Y-131167143D01*
X80017857Y-131071905D01*
X80065476Y-130881429D01*
X80065476Y-130643333D01*
X80017857Y-130452857D01*
X79970238Y-130357619D01*
X79922619Y-130310000D01*
X79827381Y-130262381D01*
X78875000Y-130262381D02*
X78779761Y-130262381D01*
X78684523Y-130310000D01*
X78636904Y-130357619D01*
X78589285Y-130452857D01*
X78541666Y-130643333D01*
X78541666Y-130881429D01*
X78589285Y-131071905D01*
X78636904Y-131167143D01*
X78684523Y-131214762D01*
X78779761Y-131262381D01*
X78875000Y-131262381D01*
X78970238Y-131214762D01*
X79017857Y-131167143D01*
X79065476Y-131071905D01*
X79113095Y-130881429D01*
X79113095Y-130643333D01*
X79065476Y-130452857D01*
X79017857Y-130357619D01*
X78970238Y-130310000D01*
X78875000Y-130262381D01*
X78113095Y-131262381D02*
X78113095Y-130262381D01*
X78017857Y-130881429D02*
X77732142Y-131262381D01*
X77732142Y-130595714D02*
X78113095Y-130976667D01*
D14*
X75377618Y-130990952D02*
X75510952Y-130800476D01*
X75606190Y-130990952D02*
X75606190Y-130590952D01*
X75453809Y-130590952D01*
X75415714Y-130610000D01*
X75396666Y-130629048D01*
X75377618Y-130667143D01*
X75377618Y-130724286D01*
X75396666Y-130762381D01*
X75415714Y-130781429D01*
X75453809Y-130800476D01*
X75606190Y-130800476D01*
X75034761Y-130724286D02*
X75034761Y-130990952D01*
X75129999Y-130571905D02*
X75225238Y-130857619D01*
X74977618Y-130857619D01*
X74749047Y-130590952D02*
X74710952Y-130590952D01*
X74672857Y-130610000D01*
X74653809Y-130629048D01*
X74634762Y-130667143D01*
X74615714Y-130743333D01*
X74615714Y-130838571D01*
X74634762Y-130914762D01*
X74653809Y-130952857D01*
X74672857Y-130971905D01*
X74710952Y-130990952D01*
X74749047Y-130990952D01*
X74787143Y-130971905D01*
X74806190Y-130952857D01*
X74825238Y-130914762D01*
X74844286Y-130838571D01*
X74844286Y-130743333D01*
X74825238Y-130667143D01*
X74806190Y-130629048D01*
X74787143Y-130610000D01*
X74749047Y-130590952D01*
X74234762Y-130990952D02*
X74463334Y-130990952D01*
X74349048Y-130990952D02*
X74349048Y-130590952D01*
X74387143Y-130648095D01*
X74425238Y-130686190D01*
X74463334Y-130705238D01*
D13*
X80446428Y-133167381D02*
X81017857Y-133167381D01*
X80732143Y-133167381D02*
X80732143Y-132167381D01*
X80827381Y-132310238D01*
X80922619Y-132405476D01*
X81017857Y-132453095D01*
X79827381Y-132167381D02*
X79732142Y-132167381D01*
X79636904Y-132215000D01*
X79589285Y-132262619D01*
X79541666Y-132357857D01*
X79494047Y-132548333D01*
X79494047Y-132786429D01*
X79541666Y-132976905D01*
X79589285Y-133072143D01*
X79636904Y-133119762D01*
X79732142Y-133167381D01*
X79827381Y-133167381D01*
X79922619Y-133119762D01*
X79970238Y-133072143D01*
X80017857Y-132976905D01*
X80065476Y-132786429D01*
X80065476Y-132548333D01*
X80017857Y-132357857D01*
X79970238Y-132262619D01*
X79922619Y-132215000D01*
X79827381Y-132167381D01*
X78875000Y-132167381D02*
X78779761Y-132167381D01*
X78684523Y-132215000D01*
X78636904Y-132262619D01*
X78589285Y-132357857D01*
X78541666Y-132548333D01*
X78541666Y-132786429D01*
X78589285Y-132976905D01*
X78636904Y-133072143D01*
X78684523Y-133119762D01*
X78779761Y-133167381D01*
X78875000Y-133167381D01*
X78970238Y-133119762D01*
X79017857Y-133072143D01*
X79065476Y-132976905D01*
X79113095Y-132786429D01*
X79113095Y-132548333D01*
X79065476Y-132357857D01*
X79017857Y-132262619D01*
X78970238Y-132215000D01*
X78875000Y-132167381D01*
X78113095Y-133167381D02*
X78113095Y-132167381D01*
X78017857Y-132786429D02*
X77732142Y-133167381D01*
X77732142Y-132500714D02*
X78113095Y-132881667D01*
D14*
X75377618Y-132895952D02*
X75510952Y-132705476D01*
X75606190Y-132895952D02*
X75606190Y-132495952D01*
X75453809Y-132495952D01*
X75415714Y-132515000D01*
X75396666Y-132534048D01*
X75377618Y-132572143D01*
X75377618Y-132629286D01*
X75396666Y-132667381D01*
X75415714Y-132686429D01*
X75453809Y-132705476D01*
X75606190Y-132705476D01*
X75034761Y-132629286D02*
X75034761Y-132895952D01*
X75129999Y-132476905D02*
X75225238Y-132762619D01*
X74977618Y-132762619D01*
X74749047Y-132495952D02*
X74710952Y-132495952D01*
X74672857Y-132515000D01*
X74653809Y-132534048D01*
X74634762Y-132572143D01*
X74615714Y-132648333D01*
X74615714Y-132743571D01*
X74634762Y-132819762D01*
X74653809Y-132857857D01*
X74672857Y-132876905D01*
X74710952Y-132895952D01*
X74749047Y-132895952D01*
X74787143Y-132876905D01*
X74806190Y-132857857D01*
X74825238Y-132819762D01*
X74844286Y-132743571D01*
X74844286Y-132648333D01*
X74825238Y-132572143D01*
X74806190Y-132534048D01*
X74787143Y-132515000D01*
X74749047Y-132495952D01*
X74463334Y-132534048D02*
X74444286Y-132515000D01*
X74406191Y-132495952D01*
X74310953Y-132495952D01*
X74272857Y-132515000D01*
X74253810Y-132534048D01*
X74234762Y-132572143D01*
X74234762Y-132610238D01*
X74253810Y-132667381D01*
X74482381Y-132895952D01*
X74234762Y-132895952D01*
D13*
X80446428Y-128722381D02*
X81017857Y-128722381D01*
X80732143Y-128722381D02*
X80732143Y-127722381D01*
X80827381Y-127865238D01*
X80922619Y-127960476D01*
X81017857Y-128008095D01*
X79827381Y-127722381D02*
X79732142Y-127722381D01*
X79636904Y-127770000D01*
X79589285Y-127817619D01*
X79541666Y-127912857D01*
X79494047Y-128103333D01*
X79494047Y-128341429D01*
X79541666Y-128531905D01*
X79589285Y-128627143D01*
X79636904Y-128674762D01*
X79732142Y-128722381D01*
X79827381Y-128722381D01*
X79922619Y-128674762D01*
X79970238Y-128627143D01*
X80017857Y-128531905D01*
X80065476Y-128341429D01*
X80065476Y-128103333D01*
X80017857Y-127912857D01*
X79970238Y-127817619D01*
X79922619Y-127770000D01*
X79827381Y-127722381D01*
X78875000Y-127722381D02*
X78779761Y-127722381D01*
X78684523Y-127770000D01*
X78636904Y-127817619D01*
X78589285Y-127912857D01*
X78541666Y-128103333D01*
X78541666Y-128341429D01*
X78589285Y-128531905D01*
X78636904Y-128627143D01*
X78684523Y-128674762D01*
X78779761Y-128722381D01*
X78875000Y-128722381D01*
X78970238Y-128674762D01*
X79017857Y-128627143D01*
X79065476Y-128531905D01*
X79113095Y-128341429D01*
X79113095Y-128103333D01*
X79065476Y-127912857D01*
X79017857Y-127817619D01*
X78970238Y-127770000D01*
X78875000Y-127722381D01*
X78113095Y-128722381D02*
X78113095Y-127722381D01*
X78017857Y-128341429D02*
X77732142Y-128722381D01*
X77732142Y-128055714D02*
X78113095Y-128436667D01*
D14*
X75377618Y-128450952D02*
X75510952Y-128260476D01*
X75606190Y-128450952D02*
X75606190Y-128050952D01*
X75453809Y-128050952D01*
X75415714Y-128070000D01*
X75396666Y-128089048D01*
X75377618Y-128127143D01*
X75377618Y-128184286D01*
X75396666Y-128222381D01*
X75415714Y-128241429D01*
X75453809Y-128260476D01*
X75606190Y-128260476D01*
X75034761Y-128184286D02*
X75034761Y-128450952D01*
X75129999Y-128031905D02*
X75225238Y-128317619D01*
X74977618Y-128317619D01*
X74749047Y-128050952D02*
X74710952Y-128050952D01*
X74672857Y-128070000D01*
X74653809Y-128089048D01*
X74634762Y-128127143D01*
X74615714Y-128203333D01*
X74615714Y-128298571D01*
X74634762Y-128374762D01*
X74653809Y-128412857D01*
X74672857Y-128431905D01*
X74710952Y-128450952D01*
X74749047Y-128450952D01*
X74787143Y-128431905D01*
X74806190Y-128412857D01*
X74825238Y-128374762D01*
X74844286Y-128298571D01*
X74844286Y-128203333D01*
X74825238Y-128127143D01*
X74806190Y-128089048D01*
X74787143Y-128070000D01*
X74749047Y-128050952D01*
X74253810Y-128050952D02*
X74444286Y-128050952D01*
X74463334Y-128241429D01*
X74444286Y-128222381D01*
X74406191Y-128203333D01*
X74310953Y-128203333D01*
X74272857Y-128222381D01*
X74253810Y-128241429D01*
X74234762Y-128279524D01*
X74234762Y-128374762D01*
X74253810Y-128412857D01*
X74272857Y-128431905D01*
X74310953Y-128450952D01*
X74406191Y-128450952D01*
X74444286Y-128431905D01*
X74463334Y-128412857D01*
D13*
X80446428Y-126817381D02*
X81017857Y-126817381D01*
X80732143Y-126817381D02*
X80732143Y-125817381D01*
X80827381Y-125960238D01*
X80922619Y-126055476D01*
X81017857Y-126103095D01*
X79827381Y-125817381D02*
X79732142Y-125817381D01*
X79636904Y-125865000D01*
X79589285Y-125912619D01*
X79541666Y-126007857D01*
X79494047Y-126198333D01*
X79494047Y-126436429D01*
X79541666Y-126626905D01*
X79589285Y-126722143D01*
X79636904Y-126769762D01*
X79732142Y-126817381D01*
X79827381Y-126817381D01*
X79922619Y-126769762D01*
X79970238Y-126722143D01*
X80017857Y-126626905D01*
X80065476Y-126436429D01*
X80065476Y-126198333D01*
X80017857Y-126007857D01*
X79970238Y-125912619D01*
X79922619Y-125865000D01*
X79827381Y-125817381D01*
X78875000Y-125817381D02*
X78779761Y-125817381D01*
X78684523Y-125865000D01*
X78636904Y-125912619D01*
X78589285Y-126007857D01*
X78541666Y-126198333D01*
X78541666Y-126436429D01*
X78589285Y-126626905D01*
X78636904Y-126722143D01*
X78684523Y-126769762D01*
X78779761Y-126817381D01*
X78875000Y-126817381D01*
X78970238Y-126769762D01*
X79017857Y-126722143D01*
X79065476Y-126626905D01*
X79113095Y-126436429D01*
X79113095Y-126198333D01*
X79065476Y-126007857D01*
X79017857Y-125912619D01*
X78970238Y-125865000D01*
X78875000Y-125817381D01*
X78113095Y-126817381D02*
X78113095Y-125817381D01*
X78017857Y-126436429D02*
X77732142Y-126817381D01*
X77732142Y-126150714D02*
X78113095Y-126531667D01*
D14*
X75377618Y-126545952D02*
X75510952Y-126355476D01*
X75606190Y-126545952D02*
X75606190Y-126145952D01*
X75453809Y-126145952D01*
X75415714Y-126165000D01*
X75396666Y-126184048D01*
X75377618Y-126222143D01*
X75377618Y-126279286D01*
X75396666Y-126317381D01*
X75415714Y-126336429D01*
X75453809Y-126355476D01*
X75606190Y-126355476D01*
X75034761Y-126279286D02*
X75034761Y-126545952D01*
X75129999Y-126126905D02*
X75225238Y-126412619D01*
X74977618Y-126412619D01*
X74749047Y-126145952D02*
X74710952Y-126145952D01*
X74672857Y-126165000D01*
X74653809Y-126184048D01*
X74634762Y-126222143D01*
X74615714Y-126298333D01*
X74615714Y-126393571D01*
X74634762Y-126469762D01*
X74653809Y-126507857D01*
X74672857Y-126526905D01*
X74710952Y-126545952D01*
X74749047Y-126545952D01*
X74787143Y-126526905D01*
X74806190Y-126507857D01*
X74825238Y-126469762D01*
X74844286Y-126393571D01*
X74844286Y-126298333D01*
X74825238Y-126222143D01*
X74806190Y-126184048D01*
X74787143Y-126165000D01*
X74749047Y-126145952D01*
X74272857Y-126145952D02*
X74349048Y-126145952D01*
X74387143Y-126165000D01*
X74406191Y-126184048D01*
X74444286Y-126241190D01*
X74463334Y-126317381D01*
X74463334Y-126469762D01*
X74444286Y-126507857D01*
X74425238Y-126526905D01*
X74387143Y-126545952D01*
X74310953Y-126545952D01*
X74272857Y-126526905D01*
X74253810Y-126507857D01*
X74234762Y-126469762D01*
X74234762Y-126374524D01*
X74253810Y-126336429D01*
X74272857Y-126317381D01*
X74310953Y-126298333D01*
X74387143Y-126298333D01*
X74425238Y-126317381D01*
X74444286Y-126336429D01*
X74463334Y-126374524D01*
D13*
X83272381Y-167251190D02*
X83272381Y-167346429D01*
X83320000Y-167441667D01*
X83367619Y-167489286D01*
X83462857Y-167536905D01*
X83653333Y-167584524D01*
X83891429Y-167584524D01*
X84081905Y-167536905D01*
X84177143Y-167489286D01*
X84224762Y-167441667D01*
X84272381Y-167346429D01*
X84272381Y-167251190D01*
X84224762Y-167155952D01*
X84177143Y-167108333D01*
X84081905Y-167060714D01*
X83891429Y-167013095D01*
X83653333Y-167013095D01*
X83462857Y-167060714D01*
X83367619Y-167108333D01*
X83320000Y-167155952D01*
X83272381Y-167251190D01*
X84272381Y-168584524D02*
X83796190Y-168251190D01*
X84272381Y-168013095D02*
X83272381Y-168013095D01*
X83272381Y-168394048D01*
X83320000Y-168489286D01*
X83367619Y-168536905D01*
X83462857Y-168584524D01*
X83605714Y-168584524D01*
X83700952Y-168536905D01*
X83748571Y-168489286D01*
X83796190Y-168394048D01*
X83796190Y-168013095D01*
X83272381Y-169203571D02*
X83272381Y-169298810D01*
X83320000Y-169394048D01*
X83367619Y-169441667D01*
X83462857Y-169489286D01*
X83653333Y-169536905D01*
X83891429Y-169536905D01*
X84081905Y-169489286D01*
X84177143Y-169441667D01*
X84224762Y-169394048D01*
X84272381Y-169298810D01*
X84272381Y-169203571D01*
X84224762Y-169108333D01*
X84177143Y-169060714D01*
X84081905Y-169013095D01*
X83891429Y-168965476D01*
X83653333Y-168965476D01*
X83462857Y-169013095D01*
X83367619Y-169060714D01*
X83320000Y-169108333D01*
X83272381Y-169203571D01*
D14*
X84000952Y-164017382D02*
X83810476Y-163884048D01*
X84000952Y-163788810D02*
X83600952Y-163788810D01*
X83600952Y-163941191D01*
X83620000Y-163979286D01*
X83639048Y-163998334D01*
X83677143Y-164017382D01*
X83734286Y-164017382D01*
X83772381Y-163998334D01*
X83791429Y-163979286D01*
X83810476Y-163941191D01*
X83810476Y-163788810D01*
X83600952Y-164379286D02*
X83600952Y-164188810D01*
X83791429Y-164169762D01*
X83772381Y-164188810D01*
X83753333Y-164226905D01*
X83753333Y-164322143D01*
X83772381Y-164360239D01*
X83791429Y-164379286D01*
X83829524Y-164398334D01*
X83924762Y-164398334D01*
X83962857Y-164379286D01*
X83981905Y-164360239D01*
X84000952Y-164322143D01*
X84000952Y-164226905D01*
X83981905Y-164188810D01*
X83962857Y-164169762D01*
X83600952Y-164645953D02*
X83600952Y-164684048D01*
X83620000Y-164722143D01*
X83639048Y-164741191D01*
X83677143Y-164760238D01*
X83753333Y-164779286D01*
X83848571Y-164779286D01*
X83924762Y-164760238D01*
X83962857Y-164741191D01*
X83981905Y-164722143D01*
X84000952Y-164684048D01*
X84000952Y-164645953D01*
X83981905Y-164607857D01*
X83962857Y-164588810D01*
X83924762Y-164569762D01*
X83848571Y-164550714D01*
X83753333Y-164550714D01*
X83677143Y-164569762D01*
X83639048Y-164588810D01*
X83620000Y-164607857D01*
X83600952Y-164645953D01*
X84000952Y-165160238D02*
X84000952Y-164931666D01*
X84000952Y-165045952D02*
X83600952Y-165045952D01*
X83658095Y-165007857D01*
X83696190Y-164969762D01*
X83715238Y-164931666D01*
D13*
X82518095Y-162377381D02*
X82518095Y-161377381D01*
X81946666Y-162377381D01*
X81946666Y-161377381D01*
X80756190Y-161329762D02*
X81613333Y-162615476D01*
X80470476Y-162091667D02*
X79994285Y-162091667D01*
X80565714Y-162377381D02*
X80232381Y-161377381D01*
X79899047Y-162377381D01*
D14*
X81460952Y-164017382D02*
X81270476Y-163884048D01*
X81460952Y-163788810D02*
X81060952Y-163788810D01*
X81060952Y-163941191D01*
X81080000Y-163979286D01*
X81099048Y-163998334D01*
X81137143Y-164017382D01*
X81194286Y-164017382D01*
X81232381Y-163998334D01*
X81251429Y-163979286D01*
X81270476Y-163941191D01*
X81270476Y-163788810D01*
X81060952Y-164379286D02*
X81060952Y-164188810D01*
X81251429Y-164169762D01*
X81232381Y-164188810D01*
X81213333Y-164226905D01*
X81213333Y-164322143D01*
X81232381Y-164360239D01*
X81251429Y-164379286D01*
X81289524Y-164398334D01*
X81384762Y-164398334D01*
X81422857Y-164379286D01*
X81441905Y-164360239D01*
X81460952Y-164322143D01*
X81460952Y-164226905D01*
X81441905Y-164188810D01*
X81422857Y-164169762D01*
X81060952Y-164645953D02*
X81060952Y-164684048D01*
X81080000Y-164722143D01*
X81099048Y-164741191D01*
X81137143Y-164760238D01*
X81213333Y-164779286D01*
X81308571Y-164779286D01*
X81384762Y-164760238D01*
X81422857Y-164741191D01*
X81441905Y-164722143D01*
X81460952Y-164684048D01*
X81460952Y-164645953D01*
X81441905Y-164607857D01*
X81422857Y-164588810D01*
X81384762Y-164569762D01*
X81308571Y-164550714D01*
X81213333Y-164550714D01*
X81137143Y-164569762D01*
X81099048Y-164588810D01*
X81080000Y-164607857D01*
X81060952Y-164645953D01*
X81099048Y-164931666D02*
X81080000Y-164950714D01*
X81060952Y-164988809D01*
X81060952Y-165084047D01*
X81080000Y-165122143D01*
X81099048Y-165141190D01*
X81137143Y-165160238D01*
X81175238Y-165160238D01*
X81232381Y-165141190D01*
X81460952Y-164912619D01*
X81460952Y-165160238D01*
D13*
X59507381Y-160051905D02*
X58507381Y-160051905D01*
X59507381Y-160623334D01*
X58507381Y-160623334D01*
X58459762Y-161813810D02*
X59745476Y-160956667D01*
X59221667Y-162099524D02*
X59221667Y-162575715D01*
X59507381Y-162004286D02*
X58507381Y-162337619D01*
X59507381Y-162670953D01*
D14*
X61140952Y-160842382D02*
X60950476Y-160709048D01*
X61140952Y-160613810D02*
X60740952Y-160613810D01*
X60740952Y-160766191D01*
X60760000Y-160804286D01*
X60779048Y-160823334D01*
X60817143Y-160842382D01*
X60874286Y-160842382D01*
X60912381Y-160823334D01*
X60931429Y-160804286D01*
X60950476Y-160766191D01*
X60950476Y-160613810D01*
X60740952Y-161204286D02*
X60740952Y-161013810D01*
X60931429Y-160994762D01*
X60912381Y-161013810D01*
X60893333Y-161051905D01*
X60893333Y-161147143D01*
X60912381Y-161185239D01*
X60931429Y-161204286D01*
X60969524Y-161223334D01*
X61064762Y-161223334D01*
X61102857Y-161204286D01*
X61121905Y-161185239D01*
X61140952Y-161147143D01*
X61140952Y-161051905D01*
X61121905Y-161013810D01*
X61102857Y-160994762D01*
X60740952Y-161470953D02*
X60740952Y-161509048D01*
X60760000Y-161547143D01*
X60779048Y-161566191D01*
X60817143Y-161585238D01*
X60893333Y-161604286D01*
X60988571Y-161604286D01*
X61064762Y-161585238D01*
X61102857Y-161566191D01*
X61121905Y-161547143D01*
X61140952Y-161509048D01*
X61140952Y-161470953D01*
X61121905Y-161432857D01*
X61102857Y-161413810D01*
X61064762Y-161394762D01*
X60988571Y-161375714D01*
X60893333Y-161375714D01*
X60817143Y-161394762D01*
X60779048Y-161413810D01*
X60760000Y-161432857D01*
X60740952Y-161470953D01*
X60740952Y-161737619D02*
X60740952Y-161985238D01*
X60893333Y-161851905D01*
X60893333Y-161909047D01*
X60912381Y-161947143D01*
X60931429Y-161966190D01*
X60969524Y-161985238D01*
X61064762Y-161985238D01*
X61102857Y-161966190D01*
X61121905Y-161947143D01*
X61140952Y-161909047D01*
X61140952Y-161794762D01*
X61121905Y-161756666D01*
X61102857Y-161737619D01*
D13*
X63952381Y-163226905D02*
X62952381Y-163226905D01*
X63952381Y-163798334D01*
X62952381Y-163798334D01*
X62904762Y-164988810D02*
X64190476Y-164131667D01*
X63666667Y-165274524D02*
X63666667Y-165750715D01*
X63952381Y-165179286D02*
X62952381Y-165512619D01*
X63952381Y-165845953D01*
D14*
X63680952Y-160842382D02*
X63490476Y-160709048D01*
X63680952Y-160613810D02*
X63280952Y-160613810D01*
X63280952Y-160766191D01*
X63300000Y-160804286D01*
X63319048Y-160823334D01*
X63357143Y-160842382D01*
X63414286Y-160842382D01*
X63452381Y-160823334D01*
X63471429Y-160804286D01*
X63490476Y-160766191D01*
X63490476Y-160613810D01*
X63280952Y-161204286D02*
X63280952Y-161013810D01*
X63471429Y-160994762D01*
X63452381Y-161013810D01*
X63433333Y-161051905D01*
X63433333Y-161147143D01*
X63452381Y-161185239D01*
X63471429Y-161204286D01*
X63509524Y-161223334D01*
X63604762Y-161223334D01*
X63642857Y-161204286D01*
X63661905Y-161185239D01*
X63680952Y-161147143D01*
X63680952Y-161051905D01*
X63661905Y-161013810D01*
X63642857Y-160994762D01*
X63280952Y-161470953D02*
X63280952Y-161509048D01*
X63300000Y-161547143D01*
X63319048Y-161566191D01*
X63357143Y-161585238D01*
X63433333Y-161604286D01*
X63528571Y-161604286D01*
X63604762Y-161585238D01*
X63642857Y-161566191D01*
X63661905Y-161547143D01*
X63680952Y-161509048D01*
X63680952Y-161470953D01*
X63661905Y-161432857D01*
X63642857Y-161413810D01*
X63604762Y-161394762D01*
X63528571Y-161375714D01*
X63433333Y-161375714D01*
X63357143Y-161394762D01*
X63319048Y-161413810D01*
X63300000Y-161432857D01*
X63280952Y-161470953D01*
X63414286Y-161947143D02*
X63680952Y-161947143D01*
X63261905Y-161851905D02*
X63547619Y-161756666D01*
X63547619Y-162004286D01*
D13*
X65492381Y-163441190D02*
X65492381Y-163536429D01*
X65540000Y-163631667D01*
X65587619Y-163679286D01*
X65682857Y-163726905D01*
X65873333Y-163774524D01*
X66111429Y-163774524D01*
X66301905Y-163726905D01*
X66397143Y-163679286D01*
X66444762Y-163631667D01*
X66492381Y-163536429D01*
X66492381Y-163441190D01*
X66444762Y-163345952D01*
X66397143Y-163298333D01*
X66301905Y-163250714D01*
X66111429Y-163203095D01*
X65873333Y-163203095D01*
X65682857Y-163250714D01*
X65587619Y-163298333D01*
X65540000Y-163345952D01*
X65492381Y-163441190D01*
X66492381Y-164774524D02*
X66016190Y-164441190D01*
X66492381Y-164203095D02*
X65492381Y-164203095D01*
X65492381Y-164584048D01*
X65540000Y-164679286D01*
X65587619Y-164726905D01*
X65682857Y-164774524D01*
X65825714Y-164774524D01*
X65920952Y-164726905D01*
X65968571Y-164679286D01*
X66016190Y-164584048D01*
X66016190Y-164203095D01*
X65492381Y-165393571D02*
X65492381Y-165488810D01*
X65540000Y-165584048D01*
X65587619Y-165631667D01*
X65682857Y-165679286D01*
X65873333Y-165726905D01*
X66111429Y-165726905D01*
X66301905Y-165679286D01*
X66397143Y-165631667D01*
X66444762Y-165584048D01*
X66492381Y-165488810D01*
X66492381Y-165393571D01*
X66444762Y-165298333D01*
X66397143Y-165250714D01*
X66301905Y-165203095D01*
X66111429Y-165155476D01*
X65873333Y-165155476D01*
X65682857Y-165203095D01*
X65587619Y-165250714D01*
X65540000Y-165298333D01*
X65492381Y-165393571D01*
D14*
X66220952Y-160842382D02*
X66030476Y-160709048D01*
X66220952Y-160613810D02*
X65820952Y-160613810D01*
X65820952Y-160766191D01*
X65840000Y-160804286D01*
X65859048Y-160823334D01*
X65897143Y-160842382D01*
X65954286Y-160842382D01*
X65992381Y-160823334D01*
X66011429Y-160804286D01*
X66030476Y-160766191D01*
X66030476Y-160613810D01*
X65820952Y-161204286D02*
X65820952Y-161013810D01*
X66011429Y-160994762D01*
X65992381Y-161013810D01*
X65973333Y-161051905D01*
X65973333Y-161147143D01*
X65992381Y-161185239D01*
X66011429Y-161204286D01*
X66049524Y-161223334D01*
X66144762Y-161223334D01*
X66182857Y-161204286D01*
X66201905Y-161185239D01*
X66220952Y-161147143D01*
X66220952Y-161051905D01*
X66201905Y-161013810D01*
X66182857Y-160994762D01*
X65820952Y-161470953D02*
X65820952Y-161509048D01*
X65840000Y-161547143D01*
X65859048Y-161566191D01*
X65897143Y-161585238D01*
X65973333Y-161604286D01*
X66068571Y-161604286D01*
X66144762Y-161585238D01*
X66182857Y-161566191D01*
X66201905Y-161547143D01*
X66220952Y-161509048D01*
X66220952Y-161470953D01*
X66201905Y-161432857D01*
X66182857Y-161413810D01*
X66144762Y-161394762D01*
X66068571Y-161375714D01*
X65973333Y-161375714D01*
X65897143Y-161394762D01*
X65859048Y-161413810D01*
X65840000Y-161432857D01*
X65820952Y-161470953D01*
X65820952Y-161966190D02*
X65820952Y-161775714D01*
X66011429Y-161756666D01*
X65992381Y-161775714D01*
X65973333Y-161813809D01*
X65973333Y-161909047D01*
X65992381Y-161947143D01*
X66011429Y-161966190D01*
X66049524Y-161985238D01*
X66144762Y-161985238D01*
X66182857Y-161966190D01*
X66201905Y-161947143D01*
X66220952Y-161909047D01*
X66220952Y-161813809D01*
X66201905Y-161775714D01*
X66182857Y-161756666D01*
D13*
X76731667Y-176077619D02*
X76684048Y-176030000D01*
X76588810Y-175982381D01*
X76350714Y-175982381D01*
X76255476Y-176030000D01*
X76207857Y-176077619D01*
X76160238Y-176172857D01*
X76160238Y-176268095D01*
X76207857Y-176410952D01*
X76779286Y-176982381D01*
X76160238Y-176982381D01*
X75731667Y-176982381D02*
X75731667Y-175982381D01*
X75636429Y-176601429D02*
X75350714Y-176982381D01*
X75350714Y-176315714D02*
X75731667Y-176696667D01*
X74731667Y-175982381D02*
X74636428Y-175982381D01*
X74541190Y-176030000D01*
X74493571Y-176077619D01*
X74445952Y-176172857D01*
X74398333Y-176363333D01*
X74398333Y-176601429D01*
X74445952Y-176791905D01*
X74493571Y-176887143D01*
X74541190Y-176934762D01*
X74636428Y-176982381D01*
X74731667Y-176982381D01*
X74826905Y-176934762D01*
X74874524Y-176887143D01*
X74922143Y-176791905D01*
X74969762Y-176601429D01*
X74969762Y-176363333D01*
X74922143Y-176172857D01*
X74874524Y-176077619D01*
X74826905Y-176030000D01*
X74731667Y-175982381D01*
D14*
X76012618Y-175440952D02*
X76145952Y-175250476D01*
X76241190Y-175440952D02*
X76241190Y-175040952D01*
X76088809Y-175040952D01*
X76050714Y-175060000D01*
X76031666Y-175079048D01*
X76012618Y-175117143D01*
X76012618Y-175174286D01*
X76031666Y-175212381D01*
X76050714Y-175231429D01*
X76088809Y-175250476D01*
X76241190Y-175250476D01*
X75650714Y-175040952D02*
X75841190Y-175040952D01*
X75860238Y-175231429D01*
X75841190Y-175212381D01*
X75803095Y-175193333D01*
X75707857Y-175193333D01*
X75669761Y-175212381D01*
X75650714Y-175231429D01*
X75631666Y-175269524D01*
X75631666Y-175364762D01*
X75650714Y-175402857D01*
X75669761Y-175421905D01*
X75707857Y-175440952D01*
X75803095Y-175440952D01*
X75841190Y-175421905D01*
X75860238Y-175402857D01*
X75384047Y-175040952D02*
X75345952Y-175040952D01*
X75307857Y-175060000D01*
X75288809Y-175079048D01*
X75269762Y-175117143D01*
X75250714Y-175193333D01*
X75250714Y-175288571D01*
X75269762Y-175364762D01*
X75288809Y-175402857D01*
X75307857Y-175421905D01*
X75345952Y-175440952D01*
X75384047Y-175440952D01*
X75422143Y-175421905D01*
X75441190Y-175402857D01*
X75460238Y-175364762D01*
X75479286Y-175288571D01*
X75479286Y-175193333D01*
X75460238Y-175117143D01*
X75441190Y-175079048D01*
X75422143Y-175060000D01*
X75384047Y-175040952D01*
X74907857Y-175040952D02*
X74984048Y-175040952D01*
X75022143Y-175060000D01*
X75041191Y-175079048D01*
X75079286Y-175136190D01*
X75098334Y-175212381D01*
X75098334Y-175364762D01*
X75079286Y-175402857D01*
X75060238Y-175421905D01*
X75022143Y-175440952D01*
X74945953Y-175440952D01*
X74907857Y-175421905D01*
X74888810Y-175402857D01*
X74869762Y-175364762D01*
X74869762Y-175269524D01*
X74888810Y-175231429D01*
X74907857Y-175212381D01*
X74945953Y-175193333D01*
X75022143Y-175193333D01*
X75060238Y-175212381D01*
X75079286Y-175231429D01*
X75098334Y-175269524D01*
D13*
X75985714Y-159464524D02*
X76652381Y-159464524D01*
X76080952Y-159464524D02*
X76033333Y-159512143D01*
X75985714Y-159607381D01*
X75985714Y-159750239D01*
X76033333Y-159845477D01*
X76128571Y-159893096D01*
X76652381Y-159893096D01*
X75604762Y-161083572D02*
X76890476Y-160226429D01*
X76652381Y-161845477D02*
X76128571Y-161845477D01*
X76033333Y-161797858D01*
X75985714Y-161702620D01*
X75985714Y-161512143D01*
X76033333Y-161416905D01*
X76604762Y-161845477D02*
X76652381Y-161750239D01*
X76652381Y-161512143D01*
X76604762Y-161416905D01*
X76509524Y-161369286D01*
X76414286Y-161369286D01*
X76319048Y-161416905D01*
X76271429Y-161512143D01*
X76271429Y-161750239D01*
X76223810Y-161845477D01*
D14*
X76380952Y-164017382D02*
X76190476Y-163884048D01*
X76380952Y-163788810D02*
X75980952Y-163788810D01*
X75980952Y-163941191D01*
X76000000Y-163979286D01*
X76019048Y-163998334D01*
X76057143Y-164017382D01*
X76114286Y-164017382D01*
X76152381Y-163998334D01*
X76171429Y-163979286D01*
X76190476Y-163941191D01*
X76190476Y-163788810D01*
X75980952Y-164379286D02*
X75980952Y-164188810D01*
X76171429Y-164169762D01*
X76152381Y-164188810D01*
X76133333Y-164226905D01*
X76133333Y-164322143D01*
X76152381Y-164360239D01*
X76171429Y-164379286D01*
X76209524Y-164398334D01*
X76304762Y-164398334D01*
X76342857Y-164379286D01*
X76361905Y-164360239D01*
X76380952Y-164322143D01*
X76380952Y-164226905D01*
X76361905Y-164188810D01*
X76342857Y-164169762D01*
X75980952Y-164645953D02*
X75980952Y-164684048D01*
X76000000Y-164722143D01*
X76019048Y-164741191D01*
X76057143Y-164760238D01*
X76133333Y-164779286D01*
X76228571Y-164779286D01*
X76304762Y-164760238D01*
X76342857Y-164741191D01*
X76361905Y-164722143D01*
X76380952Y-164684048D01*
X76380952Y-164645953D01*
X76361905Y-164607857D01*
X76342857Y-164588810D01*
X76304762Y-164569762D01*
X76228571Y-164550714D01*
X76133333Y-164550714D01*
X76057143Y-164569762D01*
X76019048Y-164588810D01*
X76000000Y-164607857D01*
X75980952Y-164645953D01*
X75980952Y-164912619D02*
X75980952Y-165179286D01*
X76380952Y-165007857D01*
D13*
X78192381Y-159631190D02*
X78192381Y-159726429D01*
X78240000Y-159821667D01*
X78287619Y-159869286D01*
X78382857Y-159916905D01*
X78573333Y-159964524D01*
X78811429Y-159964524D01*
X79001905Y-159916905D01*
X79097143Y-159869286D01*
X79144762Y-159821667D01*
X79192381Y-159726429D01*
X79192381Y-159631190D01*
X79144762Y-159535952D01*
X79097143Y-159488333D01*
X79001905Y-159440714D01*
X78811429Y-159393095D01*
X78573333Y-159393095D01*
X78382857Y-159440714D01*
X78287619Y-159488333D01*
X78240000Y-159535952D01*
X78192381Y-159631190D01*
X79192381Y-160964524D02*
X78716190Y-160631190D01*
X79192381Y-160393095D02*
X78192381Y-160393095D01*
X78192381Y-160774048D01*
X78240000Y-160869286D01*
X78287619Y-160916905D01*
X78382857Y-160964524D01*
X78525714Y-160964524D01*
X78620952Y-160916905D01*
X78668571Y-160869286D01*
X78716190Y-160774048D01*
X78716190Y-160393095D01*
X78192381Y-161583571D02*
X78192381Y-161678810D01*
X78240000Y-161774048D01*
X78287619Y-161821667D01*
X78382857Y-161869286D01*
X78573333Y-161916905D01*
X78811429Y-161916905D01*
X79001905Y-161869286D01*
X79097143Y-161821667D01*
X79144762Y-161774048D01*
X79192381Y-161678810D01*
X79192381Y-161583571D01*
X79144762Y-161488333D01*
X79097143Y-161440714D01*
X79001905Y-161393095D01*
X78811429Y-161345476D01*
X78573333Y-161345476D01*
X78382857Y-161393095D01*
X78287619Y-161440714D01*
X78240000Y-161488333D01*
X78192381Y-161583571D01*
D14*
X78920952Y-164017382D02*
X78730476Y-163884048D01*
X78920952Y-163788810D02*
X78520952Y-163788810D01*
X78520952Y-163941191D01*
X78540000Y-163979286D01*
X78559048Y-163998334D01*
X78597143Y-164017382D01*
X78654286Y-164017382D01*
X78692381Y-163998334D01*
X78711429Y-163979286D01*
X78730476Y-163941191D01*
X78730476Y-163788810D01*
X78520952Y-164379286D02*
X78520952Y-164188810D01*
X78711429Y-164169762D01*
X78692381Y-164188810D01*
X78673333Y-164226905D01*
X78673333Y-164322143D01*
X78692381Y-164360239D01*
X78711429Y-164379286D01*
X78749524Y-164398334D01*
X78844762Y-164398334D01*
X78882857Y-164379286D01*
X78901905Y-164360239D01*
X78920952Y-164322143D01*
X78920952Y-164226905D01*
X78901905Y-164188810D01*
X78882857Y-164169762D01*
X78520952Y-164645953D02*
X78520952Y-164684048D01*
X78540000Y-164722143D01*
X78559048Y-164741191D01*
X78597143Y-164760238D01*
X78673333Y-164779286D01*
X78768571Y-164779286D01*
X78844762Y-164760238D01*
X78882857Y-164741191D01*
X78901905Y-164722143D01*
X78920952Y-164684048D01*
X78920952Y-164645953D01*
X78901905Y-164607857D01*
X78882857Y-164588810D01*
X78844762Y-164569762D01*
X78768571Y-164550714D01*
X78673333Y-164550714D01*
X78597143Y-164569762D01*
X78559048Y-164588810D01*
X78540000Y-164607857D01*
X78520952Y-164645953D01*
X78692381Y-165007857D02*
X78673333Y-164969762D01*
X78654286Y-164950714D01*
X78616190Y-164931666D01*
X78597143Y-164931666D01*
X78559048Y-164950714D01*
X78540000Y-164969762D01*
X78520952Y-165007857D01*
X78520952Y-165084047D01*
X78540000Y-165122143D01*
X78559048Y-165141190D01*
X78597143Y-165160238D01*
X78616190Y-165160238D01*
X78654286Y-165141190D01*
X78673333Y-165122143D01*
X78692381Y-165084047D01*
X78692381Y-165007857D01*
X78711429Y-164969762D01*
X78730476Y-164950714D01*
X78768571Y-164931666D01*
X78844762Y-164931666D01*
X78882857Y-164950714D01*
X78901905Y-164969762D01*
X78920952Y-165007857D01*
X78920952Y-165084047D01*
X78901905Y-165122143D01*
X78882857Y-165141190D01*
X78844762Y-165160238D01*
X78768571Y-165160238D01*
X78730476Y-165141190D01*
X78711429Y-165122143D01*
X78692381Y-165084047D01*
D13*
X74747381Y-158313572D02*
X74747381Y-157742143D01*
X74747381Y-158027857D02*
X73747381Y-158027857D01*
X73890238Y-157932619D01*
X73985476Y-157837381D01*
X74033095Y-157742143D01*
X73747381Y-158932619D02*
X73747381Y-159027858D01*
X73795000Y-159123096D01*
X73842619Y-159170715D01*
X73937857Y-159218334D01*
X74128333Y-159265953D01*
X74366429Y-159265953D01*
X74556905Y-159218334D01*
X74652143Y-159170715D01*
X74699762Y-159123096D01*
X74747381Y-159027858D01*
X74747381Y-158932619D01*
X74699762Y-158837381D01*
X74652143Y-158789762D01*
X74556905Y-158742143D01*
X74366429Y-158694524D01*
X74128333Y-158694524D01*
X73937857Y-158742143D01*
X73842619Y-158789762D01*
X73795000Y-158837381D01*
X73747381Y-158932619D01*
X73747381Y-159885000D02*
X73747381Y-159980239D01*
X73795000Y-160075477D01*
X73842619Y-160123096D01*
X73937857Y-160170715D01*
X74128333Y-160218334D01*
X74366429Y-160218334D01*
X74556905Y-160170715D01*
X74652143Y-160123096D01*
X74699762Y-160075477D01*
X74747381Y-159980239D01*
X74747381Y-159885000D01*
X74699762Y-159789762D01*
X74652143Y-159742143D01*
X74556905Y-159694524D01*
X74366429Y-159646905D01*
X74128333Y-159646905D01*
X73937857Y-159694524D01*
X73842619Y-159742143D01*
X73795000Y-159789762D01*
X73747381Y-159885000D01*
X74747381Y-160646905D02*
X73747381Y-160646905D01*
X74366429Y-160742143D02*
X74747381Y-161027858D01*
X74080714Y-161027858D02*
X74461667Y-160646905D01*
D14*
X72570952Y-162747382D02*
X72380476Y-162614048D01*
X72570952Y-162518810D02*
X72170952Y-162518810D01*
X72170952Y-162671191D01*
X72190000Y-162709286D01*
X72209048Y-162728334D01*
X72247143Y-162747382D01*
X72304286Y-162747382D01*
X72342381Y-162728334D01*
X72361429Y-162709286D01*
X72380476Y-162671191D01*
X72380476Y-162518810D01*
X72170952Y-163109286D02*
X72170952Y-162918810D01*
X72361429Y-162899762D01*
X72342381Y-162918810D01*
X72323333Y-162956905D01*
X72323333Y-163052143D01*
X72342381Y-163090239D01*
X72361429Y-163109286D01*
X72399524Y-163128334D01*
X72494762Y-163128334D01*
X72532857Y-163109286D01*
X72551905Y-163090239D01*
X72570952Y-163052143D01*
X72570952Y-162956905D01*
X72551905Y-162918810D01*
X72532857Y-162899762D01*
X72170952Y-163375953D02*
X72170952Y-163414048D01*
X72190000Y-163452143D01*
X72209048Y-163471191D01*
X72247143Y-163490238D01*
X72323333Y-163509286D01*
X72418571Y-163509286D01*
X72494762Y-163490238D01*
X72532857Y-163471191D01*
X72551905Y-163452143D01*
X72570952Y-163414048D01*
X72570952Y-163375953D01*
X72551905Y-163337857D01*
X72532857Y-163318810D01*
X72494762Y-163299762D01*
X72418571Y-163280714D01*
X72323333Y-163280714D01*
X72247143Y-163299762D01*
X72209048Y-163318810D01*
X72190000Y-163337857D01*
X72170952Y-163375953D01*
X72570952Y-163699762D02*
X72570952Y-163775952D01*
X72551905Y-163814047D01*
X72532857Y-163833095D01*
X72475714Y-163871190D01*
X72399524Y-163890238D01*
X72247143Y-163890238D01*
X72209048Y-163871190D01*
X72190000Y-163852143D01*
X72170952Y-163814047D01*
X72170952Y-163737857D01*
X72190000Y-163699762D01*
X72209048Y-163680714D01*
X72247143Y-163661666D01*
X72342381Y-163661666D01*
X72380476Y-163680714D01*
X72399524Y-163699762D01*
X72418571Y-163737857D01*
X72418571Y-163814047D01*
X72399524Y-163852143D01*
X72380476Y-163871190D01*
X72342381Y-163890238D01*
D13*
X72842381Y-158313572D02*
X72842381Y-157742143D01*
X72842381Y-158027857D02*
X71842381Y-158027857D01*
X71985238Y-157932619D01*
X72080476Y-157837381D01*
X72128095Y-157742143D01*
X71842381Y-158932619D02*
X71842381Y-159027858D01*
X71890000Y-159123096D01*
X71937619Y-159170715D01*
X72032857Y-159218334D01*
X72223333Y-159265953D01*
X72461429Y-159265953D01*
X72651905Y-159218334D01*
X72747143Y-159170715D01*
X72794762Y-159123096D01*
X72842381Y-159027858D01*
X72842381Y-158932619D01*
X72794762Y-158837381D01*
X72747143Y-158789762D01*
X72651905Y-158742143D01*
X72461429Y-158694524D01*
X72223333Y-158694524D01*
X72032857Y-158742143D01*
X71937619Y-158789762D01*
X71890000Y-158837381D01*
X71842381Y-158932619D01*
X71842381Y-159885000D02*
X71842381Y-159980239D01*
X71890000Y-160075477D01*
X71937619Y-160123096D01*
X72032857Y-160170715D01*
X72223333Y-160218334D01*
X72461429Y-160218334D01*
X72651905Y-160170715D01*
X72747143Y-160123096D01*
X72794762Y-160075477D01*
X72842381Y-159980239D01*
X72842381Y-159885000D01*
X72794762Y-159789762D01*
X72747143Y-159742143D01*
X72651905Y-159694524D01*
X72461429Y-159646905D01*
X72223333Y-159646905D01*
X72032857Y-159694524D01*
X71937619Y-159742143D01*
X71890000Y-159789762D01*
X71842381Y-159885000D01*
X72842381Y-160646905D02*
X71842381Y-160646905D01*
X72461429Y-160742143D02*
X72842381Y-161027858D01*
X72175714Y-161027858D02*
X72556667Y-160646905D01*
D14*
X74475952Y-162747382D02*
X74285476Y-162614048D01*
X74475952Y-162518810D02*
X74075952Y-162518810D01*
X74075952Y-162671191D01*
X74095000Y-162709286D01*
X74114048Y-162728334D01*
X74152143Y-162747382D01*
X74209286Y-162747382D01*
X74247381Y-162728334D01*
X74266429Y-162709286D01*
X74285476Y-162671191D01*
X74285476Y-162518810D01*
X74075952Y-163109286D02*
X74075952Y-162918810D01*
X74266429Y-162899762D01*
X74247381Y-162918810D01*
X74228333Y-162956905D01*
X74228333Y-163052143D01*
X74247381Y-163090239D01*
X74266429Y-163109286D01*
X74304524Y-163128334D01*
X74399762Y-163128334D01*
X74437857Y-163109286D01*
X74456905Y-163090239D01*
X74475952Y-163052143D01*
X74475952Y-162956905D01*
X74456905Y-162918810D01*
X74437857Y-162899762D01*
X74475952Y-163509286D02*
X74475952Y-163280714D01*
X74475952Y-163395000D02*
X74075952Y-163395000D01*
X74133095Y-163356905D01*
X74171190Y-163318810D01*
X74190238Y-163280714D01*
X74075952Y-163756905D02*
X74075952Y-163795000D01*
X74095000Y-163833095D01*
X74114048Y-163852143D01*
X74152143Y-163871190D01*
X74228333Y-163890238D01*
X74323571Y-163890238D01*
X74399762Y-163871190D01*
X74437857Y-163852143D01*
X74456905Y-163833095D01*
X74475952Y-163795000D01*
X74475952Y-163756905D01*
X74456905Y-163718809D01*
X74437857Y-163699762D01*
X74399762Y-163680714D01*
X74323571Y-163661666D01*
X74228333Y-163661666D01*
X74152143Y-163680714D01*
X74114048Y-163699762D01*
X74095000Y-163718809D01*
X74075952Y-163756905D01*
D13*
X68127619Y-161552143D02*
X68080000Y-161599762D01*
X68032381Y-161695000D01*
X68032381Y-161933096D01*
X68080000Y-162028334D01*
X68127619Y-162075953D01*
X68222857Y-162123572D01*
X68318095Y-162123572D01*
X68460952Y-162075953D01*
X69032381Y-161504524D01*
X69032381Y-162123572D01*
X68032381Y-162742619D02*
X68032381Y-162837858D01*
X68080000Y-162933096D01*
X68127619Y-162980715D01*
X68222857Y-163028334D01*
X68413333Y-163075953D01*
X68651429Y-163075953D01*
X68841905Y-163028334D01*
X68937143Y-162980715D01*
X68984762Y-162933096D01*
X69032381Y-162837858D01*
X69032381Y-162742619D01*
X68984762Y-162647381D01*
X68937143Y-162599762D01*
X68841905Y-162552143D01*
X68651429Y-162504524D01*
X68413333Y-162504524D01*
X68222857Y-162552143D01*
X68127619Y-162599762D01*
X68080000Y-162647381D01*
X68032381Y-162742619D01*
X68032381Y-163695000D02*
X68032381Y-163790239D01*
X68080000Y-163885477D01*
X68127619Y-163933096D01*
X68222857Y-163980715D01*
X68413333Y-164028334D01*
X68651429Y-164028334D01*
X68841905Y-163980715D01*
X68937143Y-163933096D01*
X68984762Y-163885477D01*
X69032381Y-163790239D01*
X69032381Y-163695000D01*
X68984762Y-163599762D01*
X68937143Y-163552143D01*
X68841905Y-163504524D01*
X68651429Y-163456905D01*
X68413333Y-163456905D01*
X68222857Y-163504524D01*
X68127619Y-163552143D01*
X68080000Y-163599762D01*
X68032381Y-163695000D01*
X69032381Y-164456905D02*
X68032381Y-164456905D01*
X68651429Y-164552143D02*
X69032381Y-164837858D01*
X68365714Y-164837858D02*
X68746667Y-164456905D01*
D14*
X70030952Y-162747382D02*
X69840476Y-162614048D01*
X70030952Y-162518810D02*
X69630952Y-162518810D01*
X69630952Y-162671191D01*
X69650000Y-162709286D01*
X69669048Y-162728334D01*
X69707143Y-162747382D01*
X69764286Y-162747382D01*
X69802381Y-162728334D01*
X69821429Y-162709286D01*
X69840476Y-162671191D01*
X69840476Y-162518810D01*
X69630952Y-163109286D02*
X69630952Y-162918810D01*
X69821429Y-162899762D01*
X69802381Y-162918810D01*
X69783333Y-162956905D01*
X69783333Y-163052143D01*
X69802381Y-163090239D01*
X69821429Y-163109286D01*
X69859524Y-163128334D01*
X69954762Y-163128334D01*
X69992857Y-163109286D01*
X70011905Y-163090239D01*
X70030952Y-163052143D01*
X70030952Y-162956905D01*
X70011905Y-162918810D01*
X69992857Y-162899762D01*
X70030952Y-163509286D02*
X70030952Y-163280714D01*
X70030952Y-163395000D02*
X69630952Y-163395000D01*
X69688095Y-163356905D01*
X69726190Y-163318810D01*
X69745238Y-163280714D01*
X70030952Y-163890238D02*
X70030952Y-163661666D01*
X70030952Y-163775952D02*
X69630952Y-163775952D01*
X69688095Y-163737857D01*
X69726190Y-163699762D01*
X69745238Y-163661666D01*
D13*
X60497381Y-54649762D02*
X60497381Y-54078333D01*
X60497381Y-54364047D02*
X59497381Y-54364047D01*
X59640238Y-54268809D01*
X59735476Y-54173571D01*
X59783095Y-54078333D01*
X60497381Y-55078333D02*
X59497381Y-55078333D01*
X60116429Y-55173571D02*
X60497381Y-55459286D01*
X59830714Y-55459286D02*
X60211667Y-55078333D01*
X59497381Y-56364048D02*
X59497381Y-55887857D01*
X59973571Y-55840238D01*
X59925952Y-55887857D01*
X59878333Y-55983095D01*
X59878333Y-56221191D01*
X59925952Y-56316429D01*
X59973571Y-56364048D01*
X60068810Y-56411667D01*
X60306905Y-56411667D01*
X60402143Y-56364048D01*
X60449762Y-56316429D01*
X60497381Y-56221191D01*
X60497381Y-55983095D01*
X60449762Y-55887857D01*
X60402143Y-55840238D01*
D14*
X61775952Y-54606906D02*
X61585476Y-54473572D01*
X61775952Y-54378334D02*
X61375952Y-54378334D01*
X61375952Y-54530715D01*
X61395000Y-54568810D01*
X61414048Y-54587858D01*
X61452143Y-54606906D01*
X61509286Y-54606906D01*
X61547381Y-54587858D01*
X61566429Y-54568810D01*
X61585476Y-54530715D01*
X61585476Y-54378334D01*
X61775952Y-54987858D02*
X61775952Y-54759286D01*
X61775952Y-54873572D02*
X61375952Y-54873572D01*
X61433095Y-54835477D01*
X61471190Y-54797382D01*
X61490238Y-54759286D01*
X61375952Y-55235477D02*
X61375952Y-55273572D01*
X61395000Y-55311667D01*
X61414048Y-55330715D01*
X61452143Y-55349762D01*
X61528333Y-55368810D01*
X61623571Y-55368810D01*
X61699762Y-55349762D01*
X61737857Y-55330715D01*
X61756905Y-55311667D01*
X61775952Y-55273572D01*
X61775952Y-55235477D01*
X61756905Y-55197381D01*
X61737857Y-55178334D01*
X61699762Y-55159286D01*
X61623571Y-55140238D01*
X61528333Y-55140238D01*
X61452143Y-55159286D01*
X61414048Y-55178334D01*
X61395000Y-55197381D01*
X61375952Y-55235477D01*
X61375952Y-55616429D02*
X61375952Y-55654524D01*
X61395000Y-55692619D01*
X61414048Y-55711667D01*
X61452143Y-55730714D01*
X61528333Y-55749762D01*
X61623571Y-55749762D01*
X61699762Y-55730714D01*
X61737857Y-55711667D01*
X61756905Y-55692619D01*
X61775952Y-55654524D01*
X61775952Y-55616429D01*
X61756905Y-55578333D01*
X61737857Y-55559286D01*
X61699762Y-55540238D01*
X61623571Y-55521190D01*
X61528333Y-55521190D01*
X61452143Y-55540238D01*
X61414048Y-55559286D01*
X61395000Y-55578333D01*
X61375952Y-55616429D01*
X61775952Y-56130714D02*
X61775952Y-55902142D01*
X61775952Y-56016428D02*
X61375952Y-56016428D01*
X61433095Y-55978333D01*
X61471190Y-55940238D01*
X61490238Y-55902142D01*
D13*
X58227381Y-59539286D02*
X58227381Y-59348809D01*
X58275000Y-59253571D01*
X58322619Y-59205952D01*
X58465476Y-59110714D01*
X58655952Y-59063095D01*
X59036905Y-59063095D01*
X59132143Y-59110714D01*
X59179762Y-59158333D01*
X59227381Y-59253571D01*
X59227381Y-59444048D01*
X59179762Y-59539286D01*
X59132143Y-59586905D01*
X59036905Y-59634524D01*
X58798810Y-59634524D01*
X58703571Y-59586905D01*
X58655952Y-59539286D01*
X58608333Y-59444048D01*
X58608333Y-59253571D01*
X58655952Y-59158333D01*
X58703571Y-59110714D01*
X58798810Y-59063095D01*
X58655952Y-60205952D02*
X58608333Y-60110714D01*
X58560714Y-60063095D01*
X58465476Y-60015476D01*
X58417857Y-60015476D01*
X58322619Y-60063095D01*
X58275000Y-60110714D01*
X58227381Y-60205952D01*
X58227381Y-60396429D01*
X58275000Y-60491667D01*
X58322619Y-60539286D01*
X58417857Y-60586905D01*
X58465476Y-60586905D01*
X58560714Y-60539286D01*
X58608333Y-60491667D01*
X58655952Y-60396429D01*
X58655952Y-60205952D01*
X58703571Y-60110714D01*
X58751190Y-60063095D01*
X58846429Y-60015476D01*
X59036905Y-60015476D01*
X59132143Y-60063095D01*
X59179762Y-60110714D01*
X59227381Y-60205952D01*
X59227381Y-60396429D01*
X59179762Y-60491667D01*
X59132143Y-60539286D01*
X59036905Y-60586905D01*
X58846429Y-60586905D01*
X58751190Y-60539286D01*
X58703571Y-60491667D01*
X58655952Y-60396429D01*
X59227381Y-61586905D02*
X58751190Y-61253571D01*
X59227381Y-61015476D02*
X58227381Y-61015476D01*
X58227381Y-61396429D01*
X58275000Y-61491667D01*
X58322619Y-61539286D01*
X58417857Y-61586905D01*
X58560714Y-61586905D01*
X58655952Y-61539286D01*
X58703571Y-61491667D01*
X58751190Y-61396429D01*
X58751190Y-61015476D01*
D14*
X60505952Y-59686906D02*
X60315476Y-59553572D01*
X60505952Y-59458334D02*
X60105952Y-59458334D01*
X60105952Y-59610715D01*
X60125000Y-59648810D01*
X60144048Y-59667858D01*
X60182143Y-59686906D01*
X60239286Y-59686906D01*
X60277381Y-59667858D01*
X60296429Y-59648810D01*
X60315476Y-59610715D01*
X60315476Y-59458334D01*
X60505952Y-60067858D02*
X60505952Y-59839286D01*
X60505952Y-59953572D02*
X60105952Y-59953572D01*
X60163095Y-59915477D01*
X60201190Y-59877382D01*
X60220238Y-59839286D01*
X60105952Y-60315477D02*
X60105952Y-60353572D01*
X60125000Y-60391667D01*
X60144048Y-60410715D01*
X60182143Y-60429762D01*
X60258333Y-60448810D01*
X60353571Y-60448810D01*
X60429762Y-60429762D01*
X60467857Y-60410715D01*
X60486905Y-60391667D01*
X60505952Y-60353572D01*
X60505952Y-60315477D01*
X60486905Y-60277381D01*
X60467857Y-60258334D01*
X60429762Y-60239286D01*
X60353571Y-60220238D01*
X60258333Y-60220238D01*
X60182143Y-60239286D01*
X60144048Y-60258334D01*
X60125000Y-60277381D01*
X60105952Y-60315477D01*
X60105952Y-60696429D02*
X60105952Y-60734524D01*
X60125000Y-60772619D01*
X60144048Y-60791667D01*
X60182143Y-60810714D01*
X60258333Y-60829762D01*
X60353571Y-60829762D01*
X60429762Y-60810714D01*
X60467857Y-60791667D01*
X60486905Y-60772619D01*
X60505952Y-60734524D01*
X60505952Y-60696429D01*
X60486905Y-60658333D01*
X60467857Y-60639286D01*
X60429762Y-60620238D01*
X60353571Y-60601190D01*
X60258333Y-60601190D01*
X60182143Y-60620238D01*
X60144048Y-60639286D01*
X60125000Y-60658333D01*
X60105952Y-60696429D01*
X60144048Y-60982142D02*
X60125000Y-61001190D01*
X60105952Y-61039285D01*
X60105952Y-61134523D01*
X60125000Y-61172619D01*
X60144048Y-61191666D01*
X60182143Y-61210714D01*
X60220238Y-61210714D01*
X60277381Y-61191666D01*
X60505952Y-60963095D01*
X60505952Y-61210714D01*
D13*
X63587381Y-59539286D02*
X63587381Y-59348809D01*
X63635000Y-59253571D01*
X63682619Y-59205952D01*
X63825476Y-59110714D01*
X64015952Y-59063095D01*
X64396905Y-59063095D01*
X64492143Y-59110714D01*
X64539762Y-59158333D01*
X64587381Y-59253571D01*
X64587381Y-59444048D01*
X64539762Y-59539286D01*
X64492143Y-59586905D01*
X64396905Y-59634524D01*
X64158810Y-59634524D01*
X64063571Y-59586905D01*
X64015952Y-59539286D01*
X63968333Y-59444048D01*
X63968333Y-59253571D01*
X64015952Y-59158333D01*
X64063571Y-59110714D01*
X64158810Y-59063095D01*
X64015952Y-60205952D02*
X63968333Y-60110714D01*
X63920714Y-60063095D01*
X63825476Y-60015476D01*
X63777857Y-60015476D01*
X63682619Y-60063095D01*
X63635000Y-60110714D01*
X63587381Y-60205952D01*
X63587381Y-60396429D01*
X63635000Y-60491667D01*
X63682619Y-60539286D01*
X63777857Y-60586905D01*
X63825476Y-60586905D01*
X63920714Y-60539286D01*
X63968333Y-60491667D01*
X64015952Y-60396429D01*
X64015952Y-60205952D01*
X64063571Y-60110714D01*
X64111190Y-60063095D01*
X64206429Y-60015476D01*
X64396905Y-60015476D01*
X64492143Y-60063095D01*
X64539762Y-60110714D01*
X64587381Y-60205952D01*
X64587381Y-60396429D01*
X64539762Y-60491667D01*
X64492143Y-60539286D01*
X64396905Y-60586905D01*
X64206429Y-60586905D01*
X64111190Y-60539286D01*
X64063571Y-60491667D01*
X64015952Y-60396429D01*
X64587381Y-61586905D02*
X64111190Y-61253571D01*
X64587381Y-61015476D02*
X63587381Y-61015476D01*
X63587381Y-61396429D01*
X63635000Y-61491667D01*
X63682619Y-61539286D01*
X63777857Y-61586905D01*
X63920714Y-61586905D01*
X64015952Y-61539286D01*
X64063571Y-61491667D01*
X64111190Y-61396429D01*
X64111190Y-61015476D01*
D14*
X62410952Y-59686906D02*
X62220476Y-59553572D01*
X62410952Y-59458334D02*
X62010952Y-59458334D01*
X62010952Y-59610715D01*
X62030000Y-59648810D01*
X62049048Y-59667858D01*
X62087143Y-59686906D01*
X62144286Y-59686906D01*
X62182381Y-59667858D01*
X62201429Y-59648810D01*
X62220476Y-59610715D01*
X62220476Y-59458334D01*
X62410952Y-60067858D02*
X62410952Y-59839286D01*
X62410952Y-59953572D02*
X62010952Y-59953572D01*
X62068095Y-59915477D01*
X62106190Y-59877382D01*
X62125238Y-59839286D01*
X62010952Y-60315477D02*
X62010952Y-60353572D01*
X62030000Y-60391667D01*
X62049048Y-60410715D01*
X62087143Y-60429762D01*
X62163333Y-60448810D01*
X62258571Y-60448810D01*
X62334762Y-60429762D01*
X62372857Y-60410715D01*
X62391905Y-60391667D01*
X62410952Y-60353572D01*
X62410952Y-60315477D01*
X62391905Y-60277381D01*
X62372857Y-60258334D01*
X62334762Y-60239286D01*
X62258571Y-60220238D01*
X62163333Y-60220238D01*
X62087143Y-60239286D01*
X62049048Y-60258334D01*
X62030000Y-60277381D01*
X62010952Y-60315477D01*
X62010952Y-60696429D02*
X62010952Y-60734524D01*
X62030000Y-60772619D01*
X62049048Y-60791667D01*
X62087143Y-60810714D01*
X62163333Y-60829762D01*
X62258571Y-60829762D01*
X62334762Y-60810714D01*
X62372857Y-60791667D01*
X62391905Y-60772619D01*
X62410952Y-60734524D01*
X62410952Y-60696429D01*
X62391905Y-60658333D01*
X62372857Y-60639286D01*
X62334762Y-60620238D01*
X62258571Y-60601190D01*
X62163333Y-60601190D01*
X62087143Y-60620238D01*
X62049048Y-60639286D01*
X62030000Y-60658333D01*
X62010952Y-60696429D01*
X62010952Y-60963095D02*
X62010952Y-61210714D01*
X62163333Y-61077381D01*
X62163333Y-61134523D01*
X62182381Y-61172619D01*
X62201429Y-61191666D01*
X62239524Y-61210714D01*
X62334762Y-61210714D01*
X62372857Y-61191666D01*
X62391905Y-61172619D01*
X62410952Y-61134523D01*
X62410952Y-61020238D01*
X62391905Y-60982142D01*
X62372857Y-60963095D01*
D13*
X72477381Y-81526190D02*
X72477381Y-81621429D01*
X72525000Y-81716667D01*
X72572619Y-81764286D01*
X72667857Y-81811905D01*
X72858333Y-81859524D01*
X73096429Y-81859524D01*
X73286905Y-81811905D01*
X73382143Y-81764286D01*
X73429762Y-81716667D01*
X73477381Y-81621429D01*
X73477381Y-81526190D01*
X73429762Y-81430952D01*
X73382143Y-81383333D01*
X73286905Y-81335714D01*
X73096429Y-81288095D01*
X72858333Y-81288095D01*
X72667857Y-81335714D01*
X72572619Y-81383333D01*
X72525000Y-81430952D01*
X72477381Y-81526190D01*
X73477381Y-82859524D02*
X73001190Y-82526190D01*
X73477381Y-82288095D02*
X72477381Y-82288095D01*
X72477381Y-82669048D01*
X72525000Y-82764286D01*
X72572619Y-82811905D01*
X72667857Y-82859524D01*
X72810714Y-82859524D01*
X72905952Y-82811905D01*
X72953571Y-82764286D01*
X73001190Y-82669048D01*
X73001190Y-82288095D01*
X72477381Y-83478571D02*
X72477381Y-83573810D01*
X72525000Y-83669048D01*
X72572619Y-83716667D01*
X72667857Y-83764286D01*
X72858333Y-83811905D01*
X73096429Y-83811905D01*
X73286905Y-83764286D01*
X73382143Y-83716667D01*
X73429762Y-83669048D01*
X73477381Y-83573810D01*
X73477381Y-83478571D01*
X73429762Y-83383333D01*
X73382143Y-83335714D01*
X73286905Y-83288095D01*
X73096429Y-83240476D01*
X72858333Y-83240476D01*
X72667857Y-83288095D01*
X72572619Y-83335714D01*
X72525000Y-83383333D01*
X72477381Y-83478571D01*
D14*
X71300952Y-81911906D02*
X71110476Y-81778572D01*
X71300952Y-81683334D02*
X70900952Y-81683334D01*
X70900952Y-81835715D01*
X70920000Y-81873810D01*
X70939048Y-81892858D01*
X70977143Y-81911906D01*
X71034286Y-81911906D01*
X71072381Y-81892858D01*
X71091429Y-81873810D01*
X71110476Y-81835715D01*
X71110476Y-81683334D01*
X71300952Y-82292858D02*
X71300952Y-82064286D01*
X71300952Y-82178572D02*
X70900952Y-82178572D01*
X70958095Y-82140477D01*
X70996190Y-82102382D01*
X71015238Y-82064286D01*
X70900952Y-82540477D02*
X70900952Y-82578572D01*
X70920000Y-82616667D01*
X70939048Y-82635715D01*
X70977143Y-82654762D01*
X71053333Y-82673810D01*
X71148571Y-82673810D01*
X71224762Y-82654762D01*
X71262857Y-82635715D01*
X71281905Y-82616667D01*
X71300952Y-82578572D01*
X71300952Y-82540477D01*
X71281905Y-82502381D01*
X71262857Y-82483334D01*
X71224762Y-82464286D01*
X71148571Y-82445238D01*
X71053333Y-82445238D01*
X70977143Y-82464286D01*
X70939048Y-82483334D01*
X70920000Y-82502381D01*
X70900952Y-82540477D01*
X70900952Y-82921429D02*
X70900952Y-82959524D01*
X70920000Y-82997619D01*
X70939048Y-83016667D01*
X70977143Y-83035714D01*
X71053333Y-83054762D01*
X71148571Y-83054762D01*
X71224762Y-83035714D01*
X71262857Y-83016667D01*
X71281905Y-82997619D01*
X71300952Y-82959524D01*
X71300952Y-82921429D01*
X71281905Y-82883333D01*
X71262857Y-82864286D01*
X71224762Y-82845238D01*
X71148571Y-82826190D01*
X71053333Y-82826190D01*
X70977143Y-82845238D01*
X70939048Y-82864286D01*
X70920000Y-82883333D01*
X70900952Y-82921429D01*
X71034286Y-83397619D02*
X71300952Y-83397619D01*
X70881905Y-83302381D02*
X71167619Y-83207142D01*
X71167619Y-83454762D01*
D13*
X63307381Y-81526190D02*
X63307381Y-81621429D01*
X63355000Y-81716667D01*
X63402619Y-81764286D01*
X63497857Y-81811905D01*
X63688333Y-81859524D01*
X63926429Y-81859524D01*
X64116905Y-81811905D01*
X64212143Y-81764286D01*
X64259762Y-81716667D01*
X64307381Y-81621429D01*
X64307381Y-81526190D01*
X64259762Y-81430952D01*
X64212143Y-81383333D01*
X64116905Y-81335714D01*
X63926429Y-81288095D01*
X63688333Y-81288095D01*
X63497857Y-81335714D01*
X63402619Y-81383333D01*
X63355000Y-81430952D01*
X63307381Y-81526190D01*
X64307381Y-82859524D02*
X63831190Y-82526190D01*
X64307381Y-82288095D02*
X63307381Y-82288095D01*
X63307381Y-82669048D01*
X63355000Y-82764286D01*
X63402619Y-82811905D01*
X63497857Y-82859524D01*
X63640714Y-82859524D01*
X63735952Y-82811905D01*
X63783571Y-82764286D01*
X63831190Y-82669048D01*
X63831190Y-82288095D01*
X63307381Y-83478571D02*
X63307381Y-83573810D01*
X63355000Y-83669048D01*
X63402619Y-83716667D01*
X63497857Y-83764286D01*
X63688333Y-83811905D01*
X63926429Y-83811905D01*
X64116905Y-83764286D01*
X64212143Y-83716667D01*
X64259762Y-83669048D01*
X64307381Y-83573810D01*
X64307381Y-83478571D01*
X64259762Y-83383333D01*
X64212143Y-83335714D01*
X64116905Y-83288095D01*
X63926429Y-83240476D01*
X63688333Y-83240476D01*
X63497857Y-83288095D01*
X63402619Y-83335714D01*
X63355000Y-83383333D01*
X63307381Y-83478571D01*
D14*
X65585952Y-81911906D02*
X65395476Y-81778572D01*
X65585952Y-81683334D02*
X65185952Y-81683334D01*
X65185952Y-81835715D01*
X65205000Y-81873810D01*
X65224048Y-81892858D01*
X65262143Y-81911906D01*
X65319286Y-81911906D01*
X65357381Y-81892858D01*
X65376429Y-81873810D01*
X65395476Y-81835715D01*
X65395476Y-81683334D01*
X65585952Y-82292858D02*
X65585952Y-82064286D01*
X65585952Y-82178572D02*
X65185952Y-82178572D01*
X65243095Y-82140477D01*
X65281190Y-82102382D01*
X65300238Y-82064286D01*
X65185952Y-82540477D02*
X65185952Y-82578572D01*
X65205000Y-82616667D01*
X65224048Y-82635715D01*
X65262143Y-82654762D01*
X65338333Y-82673810D01*
X65433571Y-82673810D01*
X65509762Y-82654762D01*
X65547857Y-82635715D01*
X65566905Y-82616667D01*
X65585952Y-82578572D01*
X65585952Y-82540477D01*
X65566905Y-82502381D01*
X65547857Y-82483334D01*
X65509762Y-82464286D01*
X65433571Y-82445238D01*
X65338333Y-82445238D01*
X65262143Y-82464286D01*
X65224048Y-82483334D01*
X65205000Y-82502381D01*
X65185952Y-82540477D01*
X65185952Y-82921429D02*
X65185952Y-82959524D01*
X65205000Y-82997619D01*
X65224048Y-83016667D01*
X65262143Y-83035714D01*
X65338333Y-83054762D01*
X65433571Y-83054762D01*
X65509762Y-83035714D01*
X65547857Y-83016667D01*
X65566905Y-82997619D01*
X65585952Y-82959524D01*
X65585952Y-82921429D01*
X65566905Y-82883333D01*
X65547857Y-82864286D01*
X65509762Y-82845238D01*
X65433571Y-82826190D01*
X65338333Y-82826190D01*
X65262143Y-82845238D01*
X65224048Y-82864286D01*
X65205000Y-82883333D01*
X65185952Y-82921429D01*
X65185952Y-83416666D02*
X65185952Y-83226190D01*
X65376429Y-83207142D01*
X65357381Y-83226190D01*
X65338333Y-83264285D01*
X65338333Y-83359523D01*
X65357381Y-83397619D01*
X65376429Y-83416666D01*
X65414524Y-83435714D01*
X65509762Y-83435714D01*
X65547857Y-83416666D01*
X65566905Y-83397619D01*
X65585952Y-83359523D01*
X65585952Y-83264285D01*
X65566905Y-83226190D01*
X65547857Y-83207142D01*
D13*
X67117381Y-81526190D02*
X67117381Y-81621429D01*
X67165000Y-81716667D01*
X67212619Y-81764286D01*
X67307857Y-81811905D01*
X67498333Y-81859524D01*
X67736429Y-81859524D01*
X67926905Y-81811905D01*
X68022143Y-81764286D01*
X68069762Y-81716667D01*
X68117381Y-81621429D01*
X68117381Y-81526190D01*
X68069762Y-81430952D01*
X68022143Y-81383333D01*
X67926905Y-81335714D01*
X67736429Y-81288095D01*
X67498333Y-81288095D01*
X67307857Y-81335714D01*
X67212619Y-81383333D01*
X67165000Y-81430952D01*
X67117381Y-81526190D01*
X68117381Y-82859524D02*
X67641190Y-82526190D01*
X68117381Y-82288095D02*
X67117381Y-82288095D01*
X67117381Y-82669048D01*
X67165000Y-82764286D01*
X67212619Y-82811905D01*
X67307857Y-82859524D01*
X67450714Y-82859524D01*
X67545952Y-82811905D01*
X67593571Y-82764286D01*
X67641190Y-82669048D01*
X67641190Y-82288095D01*
X67117381Y-83478571D02*
X67117381Y-83573810D01*
X67165000Y-83669048D01*
X67212619Y-83716667D01*
X67307857Y-83764286D01*
X67498333Y-83811905D01*
X67736429Y-83811905D01*
X67926905Y-83764286D01*
X68022143Y-83716667D01*
X68069762Y-83669048D01*
X68117381Y-83573810D01*
X68117381Y-83478571D01*
X68069762Y-83383333D01*
X68022143Y-83335714D01*
X67926905Y-83288095D01*
X67736429Y-83240476D01*
X67498333Y-83240476D01*
X67307857Y-83288095D01*
X67212619Y-83335714D01*
X67165000Y-83383333D01*
X67117381Y-83478571D01*
D14*
X69395952Y-81911906D02*
X69205476Y-81778572D01*
X69395952Y-81683334D02*
X68995952Y-81683334D01*
X68995952Y-81835715D01*
X69015000Y-81873810D01*
X69034048Y-81892858D01*
X69072143Y-81911906D01*
X69129286Y-81911906D01*
X69167381Y-81892858D01*
X69186429Y-81873810D01*
X69205476Y-81835715D01*
X69205476Y-81683334D01*
X69395952Y-82292858D02*
X69395952Y-82064286D01*
X69395952Y-82178572D02*
X68995952Y-82178572D01*
X69053095Y-82140477D01*
X69091190Y-82102382D01*
X69110238Y-82064286D01*
X68995952Y-82540477D02*
X68995952Y-82578572D01*
X69015000Y-82616667D01*
X69034048Y-82635715D01*
X69072143Y-82654762D01*
X69148333Y-82673810D01*
X69243571Y-82673810D01*
X69319762Y-82654762D01*
X69357857Y-82635715D01*
X69376905Y-82616667D01*
X69395952Y-82578572D01*
X69395952Y-82540477D01*
X69376905Y-82502381D01*
X69357857Y-82483334D01*
X69319762Y-82464286D01*
X69243571Y-82445238D01*
X69148333Y-82445238D01*
X69072143Y-82464286D01*
X69034048Y-82483334D01*
X69015000Y-82502381D01*
X68995952Y-82540477D01*
X68995952Y-82921429D02*
X68995952Y-82959524D01*
X69015000Y-82997619D01*
X69034048Y-83016667D01*
X69072143Y-83035714D01*
X69148333Y-83054762D01*
X69243571Y-83054762D01*
X69319762Y-83035714D01*
X69357857Y-83016667D01*
X69376905Y-82997619D01*
X69395952Y-82959524D01*
X69395952Y-82921429D01*
X69376905Y-82883333D01*
X69357857Y-82864286D01*
X69319762Y-82845238D01*
X69243571Y-82826190D01*
X69148333Y-82826190D01*
X69072143Y-82845238D01*
X69034048Y-82864286D01*
X69015000Y-82883333D01*
X68995952Y-82921429D01*
X68995952Y-83397619D02*
X68995952Y-83321428D01*
X69015000Y-83283333D01*
X69034048Y-83264285D01*
X69091190Y-83226190D01*
X69167381Y-83207142D01*
X69319762Y-83207142D01*
X69357857Y-83226190D01*
X69376905Y-83245238D01*
X69395952Y-83283333D01*
X69395952Y-83359523D01*
X69376905Y-83397619D01*
X69357857Y-83416666D01*
X69319762Y-83435714D01*
X69224524Y-83435714D01*
X69186429Y-83416666D01*
X69167381Y-83397619D01*
X69148333Y-83359523D01*
X69148333Y-83283333D01*
X69167381Y-83245238D01*
X69186429Y-83226190D01*
X69224524Y-83207142D01*
D13*
X78779286Y-153177381D02*
X78779286Y-152177381D01*
X78445952Y-152891667D01*
X78112619Y-152177381D01*
X78112619Y-153177381D01*
X77065000Y-153082143D02*
X77112619Y-153129762D01*
X77255476Y-153177381D01*
X77350714Y-153177381D01*
X77493572Y-153129762D01*
X77588810Y-153034524D01*
X77636429Y-152939286D01*
X77684048Y-152748810D01*
X77684048Y-152605952D01*
X77636429Y-152415476D01*
X77588810Y-152320238D01*
X77493572Y-152225000D01*
X77350714Y-152177381D01*
X77255476Y-152177381D01*
X77112619Y-152225000D01*
X77065000Y-152272619D01*
X76731667Y-152177381D02*
X76112619Y-152177381D01*
X76445953Y-152558333D01*
X76303095Y-152558333D01*
X76207857Y-152605952D01*
X76160238Y-152653571D01*
X76112619Y-152748810D01*
X76112619Y-152986905D01*
X76160238Y-153082143D01*
X76207857Y-153129762D01*
X76303095Y-153177381D01*
X76588810Y-153177381D01*
X76684048Y-153129762D01*
X76731667Y-153082143D01*
X75255476Y-152510714D02*
X75255476Y-153177381D01*
X75493572Y-152129762D02*
X75731667Y-152844048D01*
X75112619Y-152844048D01*
X74541191Y-152177381D02*
X74445952Y-152177381D01*
X74350714Y-152225000D01*
X74303095Y-152272619D01*
X74255476Y-152367857D01*
X74207857Y-152558333D01*
X74207857Y-152796429D01*
X74255476Y-152986905D01*
X74303095Y-153082143D01*
X74350714Y-153129762D01*
X74445952Y-153177381D01*
X74541191Y-153177381D01*
X74636429Y-153129762D01*
X74684048Y-153082143D01*
X74731667Y-152986905D01*
X74779286Y-152796429D01*
X74779286Y-152558333D01*
X74731667Y-152367857D01*
X74684048Y-152272619D01*
X74636429Y-152225000D01*
X74541191Y-152177381D01*
X73350714Y-152177381D02*
X73541191Y-152177381D01*
X73636429Y-152225000D01*
X73684048Y-152272619D01*
X73779286Y-152415476D01*
X73826905Y-152605952D01*
X73826905Y-152986905D01*
X73779286Y-153082143D01*
X73731667Y-153129762D01*
X73636429Y-153177381D01*
X73445952Y-153177381D01*
X73350714Y-153129762D01*
X73303095Y-153082143D01*
X73255476Y-152986905D01*
X73255476Y-152748810D01*
X73303095Y-152653571D01*
X73350714Y-152605952D01*
X73445952Y-152558333D01*
X73636429Y-152558333D01*
X73731667Y-152605952D01*
X73779286Y-152653571D01*
X73826905Y-152748810D01*
X72922143Y-152177381D02*
X72303095Y-152177381D01*
X72636429Y-152558333D01*
X72493571Y-152558333D01*
X72398333Y-152605952D01*
X72350714Y-152653571D01*
X72303095Y-152748810D01*
X72303095Y-152986905D01*
X72350714Y-153082143D01*
X72398333Y-153129762D01*
X72493571Y-153177381D01*
X72779286Y-153177381D01*
X72874524Y-153129762D01*
X72922143Y-153082143D01*
X74907857Y-166380001D02*
X74907857Y-167065715D01*
X76107857Y-166722858D02*
X74907857Y-166722858D01*
X76107857Y-167465715D02*
X74907857Y-167465715D01*
X74907857Y-167922858D01*
X74965000Y-168037144D01*
X75022143Y-168094287D01*
X75136429Y-168151430D01*
X75307857Y-168151430D01*
X75422143Y-168094287D01*
X75479286Y-168037144D01*
X75536429Y-167922858D01*
X75536429Y-167465715D01*
X76050714Y-168608572D02*
X76107857Y-168780001D01*
X76107857Y-169065715D01*
X76050714Y-169180001D01*
X75993571Y-169237144D01*
X75879286Y-169294287D01*
X75765000Y-169294287D01*
X75650714Y-169237144D01*
X75593571Y-169180001D01*
X75536429Y-169065715D01*
X75479286Y-168837144D01*
X75422143Y-168722858D01*
X75365000Y-168665715D01*
X75250714Y-168608572D01*
X75136429Y-168608572D01*
X75022143Y-168665715D01*
X74965000Y-168722858D01*
X74907857Y-168837144D01*
X74907857Y-169122858D01*
X74965000Y-169294287D01*
X75307857Y-170322858D02*
X76107857Y-170322858D01*
X74850714Y-170037144D02*
X75707857Y-169751429D01*
X75707857Y-170494287D01*
X74907857Y-171180001D02*
X74907857Y-171294286D01*
X74965000Y-171408572D01*
X75022143Y-171465715D01*
X75136429Y-171522858D01*
X75365000Y-171580001D01*
X75650714Y-171580001D01*
X75879286Y-171522858D01*
X75993571Y-171465715D01*
X76050714Y-171408572D01*
X76107857Y-171294286D01*
X76107857Y-171180001D01*
X76050714Y-171065715D01*
X75993571Y-171008572D01*
X75879286Y-170951429D01*
X75650714Y-170894286D01*
X75365000Y-170894286D01*
X75136429Y-170951429D01*
X75022143Y-171008572D01*
X74965000Y-171065715D01*
X74907857Y-171180001D01*
X74907857Y-172665715D02*
X74907857Y-172094286D01*
X75479286Y-172037143D01*
X75422143Y-172094286D01*
X75365000Y-172208572D01*
X75365000Y-172494286D01*
X75422143Y-172608572D01*
X75479286Y-172665715D01*
X75593571Y-172722858D01*
X75879286Y-172722858D01*
X75993571Y-172665715D01*
X76050714Y-172608572D01*
X76107857Y-172494286D01*
X76107857Y-172208572D01*
X76050714Y-172094286D01*
X75993571Y-172037143D01*
X74907857Y-173751429D02*
X74907857Y-173522858D01*
X74965000Y-173408572D01*
X75022143Y-173351429D01*
X75193571Y-173237143D01*
X75422143Y-173180000D01*
X75879286Y-173180000D01*
X75993571Y-173237143D01*
X76050714Y-173294286D01*
X76107857Y-173408572D01*
X76107857Y-173637143D01*
X76050714Y-173751429D01*
X75993571Y-173808572D01*
X75879286Y-173865715D01*
X75593571Y-173865715D01*
X75479286Y-173808572D01*
X75422143Y-173751429D01*
X75365000Y-173637143D01*
X75365000Y-173408572D01*
X75422143Y-173294286D01*
X75479286Y-173237143D01*
X75593571Y-173180000D01*
X51522381Y-164711190D02*
X51522381Y-164806429D01*
X51570000Y-164901667D01*
X51617619Y-164949286D01*
X51712857Y-164996905D01*
X51903333Y-165044524D01*
X52141429Y-165044524D01*
X52331905Y-164996905D01*
X52427143Y-164949286D01*
X52474762Y-164901667D01*
X52522381Y-164806429D01*
X52522381Y-164711190D01*
X52474762Y-164615952D01*
X52427143Y-164568333D01*
X52331905Y-164520714D01*
X52141429Y-164473095D01*
X51903333Y-164473095D01*
X51712857Y-164520714D01*
X51617619Y-164568333D01*
X51570000Y-164615952D01*
X51522381Y-164711190D01*
X52522381Y-166044524D02*
X52046190Y-165711190D01*
X52522381Y-165473095D02*
X51522381Y-165473095D01*
X51522381Y-165854048D01*
X51570000Y-165949286D01*
X51617619Y-165996905D01*
X51712857Y-166044524D01*
X51855714Y-166044524D01*
X51950952Y-165996905D01*
X51998571Y-165949286D01*
X52046190Y-165854048D01*
X52046190Y-165473095D01*
X51522381Y-166663571D02*
X51522381Y-166758810D01*
X51570000Y-166854048D01*
X51617619Y-166901667D01*
X51712857Y-166949286D01*
X51903333Y-166996905D01*
X52141429Y-166996905D01*
X52331905Y-166949286D01*
X52427143Y-166901667D01*
X52474762Y-166854048D01*
X52522381Y-166758810D01*
X52522381Y-166663571D01*
X52474762Y-166568333D01*
X52427143Y-166520714D01*
X52331905Y-166473095D01*
X52141429Y-166425476D01*
X51903333Y-166425476D01*
X51712857Y-166473095D01*
X51617619Y-166520714D01*
X51570000Y-166568333D01*
X51522381Y-166663571D01*
D14*
X52250952Y-169732382D02*
X52060476Y-169599048D01*
X52250952Y-169503810D02*
X51850952Y-169503810D01*
X51850952Y-169656191D01*
X51870000Y-169694286D01*
X51889048Y-169713334D01*
X51927143Y-169732382D01*
X51984286Y-169732382D01*
X52022381Y-169713334D01*
X52041429Y-169694286D01*
X52060476Y-169656191D01*
X52060476Y-169503810D01*
X51850952Y-169865715D02*
X51850952Y-170113334D01*
X52003333Y-169980001D01*
X52003333Y-170037143D01*
X52022381Y-170075239D01*
X52041429Y-170094286D01*
X52079524Y-170113334D01*
X52174762Y-170113334D01*
X52212857Y-170094286D01*
X52231905Y-170075239D01*
X52250952Y-170037143D01*
X52250952Y-169922858D01*
X52231905Y-169884762D01*
X52212857Y-169865715D01*
X51850952Y-170360953D02*
X51850952Y-170399048D01*
X51870000Y-170437143D01*
X51889048Y-170456191D01*
X51927143Y-170475238D01*
X52003333Y-170494286D01*
X52098571Y-170494286D01*
X52174762Y-170475238D01*
X52212857Y-170456191D01*
X52231905Y-170437143D01*
X52250952Y-170399048D01*
X52250952Y-170360953D01*
X52231905Y-170322857D01*
X52212857Y-170303810D01*
X52174762Y-170284762D01*
X52098571Y-170265714D01*
X52003333Y-170265714D01*
X51927143Y-170284762D01*
X51889048Y-170303810D01*
X51870000Y-170322857D01*
X51850952Y-170360953D01*
X51984286Y-170837143D02*
X52250952Y-170837143D01*
X51831905Y-170741905D02*
X52117619Y-170646666D01*
X52117619Y-170894286D01*
D13*
X51990476Y-151472381D02*
X52561905Y-151472381D01*
X52276191Y-151472381D02*
X52276191Y-150472381D01*
X52371429Y-150615238D01*
X52466667Y-150710476D01*
X52561905Y-150758095D01*
X51371429Y-150472381D02*
X51276190Y-150472381D01*
X51180952Y-150520000D01*
X51133333Y-150567619D01*
X51085714Y-150662857D01*
X51038095Y-150853333D01*
X51038095Y-151091429D01*
X51085714Y-151281905D01*
X51133333Y-151377143D01*
X51180952Y-151424762D01*
X51276190Y-151472381D01*
X51371429Y-151472381D01*
X51466667Y-151424762D01*
X51514286Y-151377143D01*
X51561905Y-151281905D01*
X51609524Y-151091429D01*
X51609524Y-150853333D01*
X51561905Y-150662857D01*
X51514286Y-150567619D01*
X51466667Y-150520000D01*
X51371429Y-150472381D01*
X50419048Y-150472381D02*
X50323809Y-150472381D01*
X50228571Y-150520000D01*
X50180952Y-150567619D01*
X50133333Y-150662857D01*
X50085714Y-150853333D01*
X50085714Y-151091429D01*
X50133333Y-151281905D01*
X50180952Y-151377143D01*
X50228571Y-151424762D01*
X50323809Y-151472381D01*
X50419048Y-151472381D01*
X50514286Y-151424762D01*
X50561905Y-151377143D01*
X50609524Y-151281905D01*
X50657143Y-151091429D01*
X50657143Y-150853333D01*
X50609524Y-150662857D01*
X50561905Y-150567619D01*
X50514286Y-150520000D01*
X50419048Y-150472381D01*
X49657143Y-150805714D02*
X49657143Y-151805714D01*
X49180952Y-151329524D02*
X49133333Y-151424762D01*
X49038095Y-151472381D01*
X49657143Y-151329524D02*
X49609524Y-151424762D01*
X49514286Y-151472381D01*
X49323809Y-151472381D01*
X49228571Y-151424762D01*
X49180952Y-151329524D01*
X49180952Y-150805714D01*
X52560952Y-154951429D02*
X51799047Y-154951429D01*
X52179999Y-155332381D02*
X52179999Y-154570476D01*
X51919047Y-159217143D02*
X51966666Y-159264762D01*
X52109523Y-159312381D01*
X52204761Y-159312381D01*
X52347619Y-159264762D01*
X52442857Y-159169524D01*
X52490476Y-159074286D01*
X52538095Y-158883810D01*
X52538095Y-158740952D01*
X52490476Y-158550476D01*
X52442857Y-158455238D01*
X52347619Y-158360000D01*
X52204761Y-158312381D01*
X52109523Y-158312381D01*
X51966666Y-158360000D01*
X51919047Y-158407619D01*
X51538095Y-158407619D02*
X51490476Y-158360000D01*
X51395238Y-158312381D01*
X51157142Y-158312381D01*
X51061904Y-158360000D01*
X51014285Y-158407619D01*
X50966666Y-158502857D01*
X50966666Y-158598095D01*
X51014285Y-158740952D01*
X51585714Y-159312381D01*
X50966666Y-159312381D01*
X50347619Y-158312381D02*
X50252380Y-158312381D01*
X50157142Y-158360000D01*
X50109523Y-158407619D01*
X50061904Y-158502857D01*
X50014285Y-158693333D01*
X50014285Y-158931429D01*
X50061904Y-159121905D01*
X50109523Y-159217143D01*
X50157142Y-159264762D01*
X50252380Y-159312381D01*
X50347619Y-159312381D01*
X50442857Y-159264762D01*
X50490476Y-159217143D01*
X50538095Y-159121905D01*
X50585714Y-158931429D01*
X50585714Y-158693333D01*
X50538095Y-158502857D01*
X50490476Y-158407619D01*
X50442857Y-158360000D01*
X50347619Y-158312381D01*
X49633333Y-158407619D02*
X49585714Y-158360000D01*
X49490476Y-158312381D01*
X49252380Y-158312381D01*
X49157142Y-158360000D01*
X49109523Y-158407619D01*
X49061904Y-158502857D01*
X49061904Y-158598095D01*
X49109523Y-158740952D01*
X49680952Y-159312381D01*
X49061904Y-159312381D01*
X56967381Y-168830715D02*
X56967381Y-168259286D01*
X56967381Y-168545000D02*
X55967381Y-168545000D01*
X56110238Y-168449762D01*
X56205476Y-168354524D01*
X56253095Y-168259286D01*
X55967381Y-169449762D02*
X55967381Y-169545001D01*
X56015000Y-169640239D01*
X56062619Y-169687858D01*
X56157857Y-169735477D01*
X56348333Y-169783096D01*
X56586429Y-169783096D01*
X56776905Y-169735477D01*
X56872143Y-169687858D01*
X56919762Y-169640239D01*
X56967381Y-169545001D01*
X56967381Y-169449762D01*
X56919762Y-169354524D01*
X56872143Y-169306905D01*
X56776905Y-169259286D01*
X56586429Y-169211667D01*
X56348333Y-169211667D01*
X56157857Y-169259286D01*
X56062619Y-169306905D01*
X56015000Y-169354524D01*
X55967381Y-169449762D01*
X56300714Y-170211667D02*
X57300714Y-170211667D01*
X56824524Y-170687858D02*
X56919762Y-170735477D01*
X56967381Y-170830715D01*
X56824524Y-170211667D02*
X56919762Y-170259286D01*
X56967381Y-170354524D01*
X56967381Y-170545001D01*
X56919762Y-170640239D01*
X56824524Y-170687858D01*
X56300714Y-170687858D01*
X60456429Y-170544048D02*
X60456429Y-171305953D01*
X60837381Y-170925001D02*
X60075476Y-170925001D01*
X92947857Y-154122381D02*
X93519286Y-154122381D01*
X93233572Y-154122381D02*
X93233572Y-153122381D01*
X93328810Y-153265238D01*
X93424048Y-153360476D01*
X93519286Y-153408095D01*
X92519286Y-154122381D02*
X92519286Y-153122381D01*
X91947857Y-154122381D01*
X91947857Y-153122381D01*
X90995476Y-153122381D02*
X91471667Y-153122381D01*
X91519286Y-153598571D01*
X91471667Y-153550952D01*
X91376429Y-153503333D01*
X91138333Y-153503333D01*
X91043095Y-153550952D01*
X90995476Y-153598571D01*
X90947857Y-153693810D01*
X90947857Y-153931905D01*
X90995476Y-154027143D01*
X91043095Y-154074762D01*
X91138333Y-154122381D01*
X91376429Y-154122381D01*
X91471667Y-154074762D01*
X91519286Y-154027143D01*
X90376429Y-153550952D02*
X90471667Y-153503333D01*
X90519286Y-153455714D01*
X90566905Y-153360476D01*
X90566905Y-153312857D01*
X90519286Y-153217619D01*
X90471667Y-153170000D01*
X90376429Y-153122381D01*
X90185952Y-153122381D01*
X90090714Y-153170000D01*
X90043095Y-153217619D01*
X89995476Y-153312857D01*
X89995476Y-153360476D01*
X90043095Y-153455714D01*
X90090714Y-153503333D01*
X90185952Y-153550952D01*
X90376429Y-153550952D01*
X90471667Y-153598571D01*
X90519286Y-153646190D01*
X90566905Y-153741429D01*
X90566905Y-153931905D01*
X90519286Y-154027143D01*
X90471667Y-154074762D01*
X90376429Y-154122381D01*
X90185952Y-154122381D01*
X90090714Y-154074762D01*
X90043095Y-154027143D01*
X89995476Y-153931905D01*
X89995476Y-153741429D01*
X90043095Y-153646190D01*
X90090714Y-153598571D01*
X90185952Y-153550952D01*
X89043095Y-154122381D02*
X89614524Y-154122381D01*
X89328810Y-154122381D02*
X89328810Y-153122381D01*
X89424048Y-153265238D01*
X89519286Y-153360476D01*
X89614524Y-153408095D01*
X88566905Y-154122381D02*
X88376429Y-154122381D01*
X88281190Y-154074762D01*
X88233571Y-154027143D01*
X88138333Y-153884286D01*
X88090714Y-153693810D01*
X88090714Y-153312857D01*
X88138333Y-153217619D01*
X88185952Y-153170000D01*
X88281190Y-153122381D01*
X88471667Y-153122381D01*
X88566905Y-153170000D01*
X88614524Y-153217619D01*
X88662143Y-153312857D01*
X88662143Y-153550952D01*
X88614524Y-153646190D01*
X88566905Y-153693810D01*
X88471667Y-153741429D01*
X88281190Y-153741429D01*
X88185952Y-153693810D01*
X88138333Y-153646190D01*
X88090714Y-153550952D01*
X53943095Y-51177381D02*
X53324047Y-51177381D01*
X53657381Y-51558333D01*
X53514523Y-51558333D01*
X53419285Y-51605952D01*
X53371666Y-51653571D01*
X53324047Y-51748810D01*
X53324047Y-51986905D01*
X53371666Y-52082143D01*
X53419285Y-52129762D01*
X53514523Y-52177381D01*
X53800238Y-52177381D01*
X53895476Y-52129762D01*
X53943095Y-52082143D01*
X53038333Y-51177381D02*
X52705000Y-52177381D01*
X52371666Y-51177381D01*
X51609761Y-51177381D02*
X51800238Y-51177381D01*
X51895476Y-51225000D01*
X51943095Y-51272619D01*
X52038333Y-51415476D01*
X52085952Y-51605952D01*
X52085952Y-51986905D01*
X52038333Y-52082143D01*
X51990714Y-52129762D01*
X51895476Y-52177381D01*
X51704999Y-52177381D01*
X51609761Y-52129762D01*
X51562142Y-52082143D01*
X51514523Y-51986905D01*
X51514523Y-51748810D01*
X51562142Y-51653571D01*
X51609761Y-51605952D01*
X51704999Y-51558333D01*
X51895476Y-51558333D01*
X51990714Y-51605952D01*
X52038333Y-51653571D01*
X52085952Y-51748810D01*
X53943095Y-58162381D02*
X53324047Y-58162381D01*
X53657381Y-58543333D01*
X53514523Y-58543333D01*
X53419285Y-58590952D01*
X53371666Y-58638571D01*
X53324047Y-58733810D01*
X53324047Y-58971905D01*
X53371666Y-59067143D01*
X53419285Y-59114762D01*
X53514523Y-59162381D01*
X53800238Y-59162381D01*
X53895476Y-59114762D01*
X53943095Y-59067143D01*
X53038333Y-58162381D02*
X52705000Y-59162381D01*
X52371666Y-58162381D01*
X51609761Y-58162381D02*
X51800238Y-58162381D01*
X51895476Y-58210000D01*
X51943095Y-58257619D01*
X52038333Y-58400476D01*
X52085952Y-58590952D01*
X52085952Y-58971905D01*
X52038333Y-59067143D01*
X51990714Y-59114762D01*
X51895476Y-59162381D01*
X51704999Y-59162381D01*
X51609761Y-59114762D01*
X51562142Y-59067143D01*
X51514523Y-58971905D01*
X51514523Y-58733810D01*
X51562142Y-58638571D01*
X51609761Y-58590952D01*
X51704999Y-58543333D01*
X51895476Y-58543333D01*
X51990714Y-58590952D01*
X52038333Y-58638571D01*
X52085952Y-58733810D01*
M02*
